<?xml version="1.0" encoding="UTF-8" standalone="no"?><svg xmlns="http://www.w3.org/2000/svg" xmlns:xlink="http://www.w3.org/1999/xlink" contentScriptType="application/ecmascript" contentStyleType="text/css" height="612px" preserveAspectRatio="none" style="width:924px;height:612px;background:#1D2021;" version="1.1" viewBox="0 0 924 612" width="924px" zoomAndPan="magnify"><defs/><g><text fill="#EBDBB2" font-family="Iosevka Term" font-size="18" lengthAdjust="spacing" textLength="115" x="398.25" y="16.708">Caso Cinema</text><!--MD5=[b339233fdce63b97128f3b6902e52aed]
class Multiplex--><rect codeLine="7" fill="#282828" height="60.8047" id="Multiplex" rx="7.5" ry="7.5" style="stroke:#504945;stroke-width:1.5;" width="123" x="794.5" y="524.9531"/><ellipse cx="826.15" cy="540.9531" fill="#B8BB26" rx="11" ry="11" style="stroke:#B8BB26;stroke-width:1.0;"/><path d="M826.3531,547.5938 Q825.8844,547.5938 825.4313,547.5 Q824.9781,547.4063 824.5563,547.1719 Q824.15,546.9375 823.8375,546.5781 Q823.525,546.2188 823.3375,545.7969 Q823.15,545.3594 823.0719,544.8906 Q823.0094,544.4219 823.0094,543.9688 L823.0094,538.4375 Q823.0094,537.9844 823.0719,537.5156 Q823.15,537.0469 823.3375,536.625 Q823.525,536.2031 823.8375,535.8438 Q824.15,535.4688 824.5563,535.25 Q824.9781,535.0156 825.4313,534.9219 Q825.8844,534.8281 826.3531,534.8281 Q826.7906,534.8281 827.2281,534.9063 Q827.6656,534.9688 828.0563,535.1719 Q828.4469,535.3594 828.7594,535.6875 Q829.0875,536 829.275,536.3906 Q829.4781,536.7813 829.5719,537.2188 Q829.6813,537.6406 829.6813,538.0938 Q829.6813,538.0938 829.6813,538.0938 Q829.6813,538.0938 829.6813,538.1094 L827.7906,538.1094 Q827.7906,538.0938 827.7906,538.0938 Q827.7906,538.0938 827.7906,538.0938 Q827.7906,537.7813 827.6969,537.4844 Q827.6188,537.1875 827.4313,536.9375 Q827.2438,536.6875 826.9469,536.5781 Q826.65,536.4531 826.3531,536.4531 Q826.1344,536.4531 825.9,536.5313 Q825.6656,536.5938 825.4938,536.75 Q825.3219,536.8906 825.1969,537.0938 Q825.0875,537.2969 825.025,537.5313 Q824.9625,537.75 824.9313,537.9844 Q824.9,538.2031 824.9,538.4375 L824.9,543.9688 Q824.9,544.2031 824.9313,544.4375 Q824.9625,544.6719 825.025,544.8906 Q825.0875,545.1094 825.1969,545.3125 Q825.3219,545.5156 825.4938,545.6719 Q825.6656,545.8281 825.9,545.8906 Q826.1344,545.9531 826.3531,545.9531 Q826.65,545.9531 826.9469,545.8438 Q827.2438,545.7188 827.4313,545.4688 Q827.6188,545.2188 827.6969,544.9219 Q827.7906,544.625 827.7906,544.3281 Q827.7906,544.3281 827.7906,544.3281 Q827.7906,544.3281 827.7906,544.3125 L829.6813,544.3125 Q829.6813,544.3281 829.6813,544.3281 Q829.6813,544.3281 829.6813,544.3281 Q829.6813,544.7656 829.5719,545.2031 Q829.4781,545.6406 829.275,546.0313 Q829.0875,546.4219 828.7594,546.7344 Q828.4469,547.0469 828.0563,547.25 Q827.6656,547.4375 827.2281,547.5156 Q826.7906,547.5938 826.3531,547.5938 Z " fill="#EBDBB2"/><text fill="#EBDBB2" font-family="Iosevka Term" font-size="12" lengthAdjust="spacing" textLength="54" x="843.85" y="545.1074">Multiplex</text><line style="stroke:#504945;stroke-width:1.5;" x1="795.5" x2="916.5" y1="556.9531" y2="556.9531"/><rect fill="none" height="6" style="stroke:#CC241D;stroke-width:1.0;" width="6" x="802.5" y="564.9531"/><text fill="#EBDBB2" font-family="Iosevka Term" font-size="11" lengthAdjust="spacing" textLength="97" x="814.5" y="571.1636">direccion : String</text><line style="stroke:#504945;stroke-width:1.5;" x1="795.5" x2="916.5" y1="577.7578" y2="577.7578"/><!--MD5=[c134d32153233da6044d921446b59e3a]
class Salas--><rect codeLine="11" fill="#282828" height="60.8047" id="Salas" rx="7.5" ry="7.5" style="stroke:#504945;stroke-width:1.5;" width="109" x="520.5" y="524.9531"/><ellipse cx="554.85" cy="540.9531" fill="#B8BB26" rx="11" ry="11" style="stroke:#B8BB26;stroke-width:1.0;"/><path d="M555.0531,547.5938 Q554.5844,547.5938 554.1313,547.5 Q553.6781,547.4063 553.2563,547.1719 Q552.85,546.9375 552.5375,546.5781 Q552.225,546.2188 552.0375,545.7969 Q551.85,545.3594 551.7719,544.8906 Q551.7094,544.4219 551.7094,543.9688 L551.7094,538.4375 Q551.7094,537.9844 551.7719,537.5156 Q551.85,537.0469 552.0375,536.625 Q552.225,536.2031 552.5375,535.8438 Q552.85,535.4688 553.2563,535.25 Q553.6781,535.0156 554.1313,534.9219 Q554.5844,534.8281 555.0531,534.8281 Q555.4906,534.8281 555.9281,534.9063 Q556.3656,534.9688 556.7563,535.1719 Q557.1469,535.3594 557.4594,535.6875 Q557.7875,536 557.975,536.3906 Q558.1781,536.7813 558.2719,537.2188 Q558.3813,537.6406 558.3813,538.0938 Q558.3813,538.0938 558.3813,538.0938 Q558.3813,538.0938 558.3813,538.1094 L556.4906,538.1094 Q556.4906,538.0938 556.4906,538.0938 Q556.4906,538.0938 556.4906,538.0938 Q556.4906,537.7813 556.3969,537.4844 Q556.3188,537.1875 556.1313,536.9375 Q555.9438,536.6875 555.6469,536.5781 Q555.35,536.4531 555.0531,536.4531 Q554.8344,536.4531 554.6,536.5313 Q554.3656,536.5938 554.1938,536.75 Q554.0219,536.8906 553.8969,537.0938 Q553.7875,537.2969 553.725,537.5313 Q553.6625,537.75 553.6313,537.9844 Q553.6,538.2031 553.6,538.4375 L553.6,543.9688 Q553.6,544.2031 553.6313,544.4375 Q553.6625,544.6719 553.725,544.8906 Q553.7875,545.1094 553.8969,545.3125 Q554.0219,545.5156 554.1938,545.6719 Q554.3656,545.8281 554.6,545.8906 Q554.8344,545.9531 555.0531,545.9531 Q555.35,545.9531 555.6469,545.8438 Q555.9438,545.7188 556.1313,545.4688 Q556.3188,545.2188 556.3969,544.9219 Q556.4906,544.625 556.4906,544.3281 Q556.4906,544.3281 556.4906,544.3281 Q556.4906,544.3281 556.4906,544.3125 L558.3813,544.3125 Q558.3813,544.3281 558.3813,544.3281 Q558.3813,544.3281 558.3813,544.3281 Q558.3813,544.7656 558.2719,545.2031 Q558.1781,545.6406 557.975,546.0313 Q557.7875,546.4219 557.4594,546.7344 Q557.1469,547.0469 556.7563,547.25 Q556.3656,547.4375 555.9281,547.5156 Q555.4906,547.5938 555.0531,547.5938 Z " fill="#EBDBB2"/><text fill="#EBDBB2" font-family="Iosevka Term" font-size="12" lengthAdjust="spacing" textLength="34" x="573.15" y="545.1074">Salas</text><line style="stroke:#504945;stroke-width:1.5;" x1="521.5" x2="628.5" y1="556.9531" y2="556.9531"/><rect fill="none" height="6" style="stroke:#CC241D;stroke-width:1.0;" width="6" x="528.5" y="564.9531"/><text fill="#EBDBB2" font-family="Iosevka Term" font-size="11" lengthAdjust="spacing" textLength="83" x="540.5" y="571.1636">ocupacion : int</text><line style="stroke:#504945;stroke-width:1.5;" x1="521.5" x2="628.5" y1="577.7578" y2="577.7578"/><!--MD5=[3f3d6f78745f2dfe9b5b98a944fa4bc6]
class Butacas--><rect codeLine="15" fill="#282828" height="73.6094" id="Butacas" rx="7.5" ry="7.5" style="stroke:#504945;stroke-width:1.5;" width="100" x="279" y="518.4531"/><ellipse cx="301.65" cy="534.4531" fill="#B8BB26" rx="11" ry="11" style="stroke:#B8BB26;stroke-width:1.0;"/><path d="M301.8531,541.0938 Q301.3844,541.0938 300.9313,541 Q300.4781,540.9063 300.0563,540.6719 Q299.65,540.4375 299.3375,540.0781 Q299.025,539.7188 298.8375,539.2969 Q298.65,538.8594 298.5719,538.3906 Q298.5094,537.9219 298.5094,537.4688 L298.5094,531.9375 Q298.5094,531.4844 298.5719,531.0156 Q298.65,530.5469 298.8375,530.125 Q299.025,529.7031 299.3375,529.3438 Q299.65,528.9688 300.0563,528.75 Q300.4781,528.5156 300.9313,528.4219 Q301.3844,528.3281 301.8531,528.3281 Q302.2906,528.3281 302.7281,528.4063 Q303.1656,528.4688 303.5563,528.6719 Q303.9469,528.8594 304.2594,529.1875 Q304.5875,529.5 304.775,529.8906 Q304.9781,530.2813 305.0719,530.7188 Q305.1813,531.1406 305.1813,531.5938 Q305.1813,531.5938 305.1813,531.5938 Q305.1813,531.5938 305.1813,531.6094 L303.2906,531.6094 Q303.2906,531.5938 303.2906,531.5938 Q303.2906,531.5938 303.2906,531.5938 Q303.2906,531.2813 303.1969,530.9844 Q303.1188,530.6875 302.9313,530.4375 Q302.7438,530.1875 302.4469,530.0781 Q302.15,529.9531 301.8531,529.9531 Q301.6344,529.9531 301.4,530.0313 Q301.1656,530.0938 300.9938,530.25 Q300.8219,530.3906 300.6969,530.5938 Q300.5875,530.7969 300.525,531.0313 Q300.4625,531.25 300.4313,531.4844 Q300.4,531.7031 300.4,531.9375 L300.4,537.4688 Q300.4,537.7031 300.4313,537.9375 Q300.4625,538.1719 300.525,538.3906 Q300.5875,538.6094 300.6969,538.8125 Q300.8219,539.0156 300.9938,539.1719 Q301.1656,539.3281 301.4,539.3906 Q301.6344,539.4531 301.8531,539.4531 Q302.15,539.4531 302.4469,539.3438 Q302.7438,539.2188 302.9313,538.9688 Q303.1188,538.7188 303.1969,538.4219 Q303.2906,538.125 303.2906,537.8281 Q303.2906,537.8281 303.2906,537.8281 Q303.2906,537.8281 303.2906,537.8125 L305.1813,537.8125 Q305.1813,537.8281 305.1813,537.8281 Q305.1813,537.8281 305.1813,537.8281 Q305.1813,538.2656 305.0719,538.7031 Q304.9781,539.1406 304.775,539.5313 Q304.5875,539.9219 304.2594,540.2344 Q303.9469,540.5469 303.5563,540.75 Q303.1656,540.9375 302.7281,541.0156 Q302.2906,541.0938 301.8531,541.0938 Z " fill="#EBDBB2"/><text fill="#EBDBB2" font-family="Iosevka Term" font-size="12" lengthAdjust="spacing" textLength="51" x="317.35" y="538.6074">Butacas</text><line style="stroke:#504945;stroke-width:1.5;" x1="280" x2="378" y1="550.4531" y2="550.4531"/><rect fill="none" height="6" style="stroke:#CC241D;stroke-width:1.0;" width="6" x="287" y="558.4531"/><text fill="#EBDBB2" font-family="Iosevka Term" font-size="11" lengthAdjust="spacing" textLength="43" x="299" y="564.6636">fila : int</text><rect fill="none" height="6" style="stroke:#CC241D;stroke-width:1.0;" width="6" x="287" y="571.2578"/><text fill="#EBDBB2" font-family="Iosevka Term" font-size="11" lengthAdjust="spacing" textLength="74" x="299" y="577.4683">columna : int</text><line style="stroke:#504945;stroke-width:1.5;" x1="280" x2="378" y1="584.0625" y2="584.0625"/><!--MD5=[6ea9d6598d9760662639554c9857ab6b]
class Reserva--><rect codeLine="20" fill="#282828" height="48" id="Reserva" rx="7.5" ry="7.5" style="stroke:#504945;stroke-width:1.5;" width="82" x="311" y="204.4531"/><ellipse cx="326" cy="220.4531" fill="#B8BB26" rx="11" ry="11" style="stroke:#B8BB26;stroke-width:1.0;"/><path d="M326.2031,227.0938 Q325.7344,227.0938 325.2813,227 Q324.8281,226.9063 324.4063,226.6719 Q324,226.4375 323.6875,226.0781 Q323.375,225.7188 323.1875,225.2969 Q323,224.8594 322.9219,224.3906 Q322.8594,223.9219 322.8594,223.4688 L322.8594,217.9375 Q322.8594,217.4844 322.9219,217.0156 Q323,216.5469 323.1875,216.125 Q323.375,215.7031 323.6875,215.3438 Q324,214.9688 324.4063,214.75 Q324.8281,214.5156 325.2813,214.4219 Q325.7344,214.3281 326.2031,214.3281 Q326.6406,214.3281 327.0781,214.4063 Q327.5156,214.4688 327.9063,214.6719 Q328.2969,214.8594 328.6094,215.1875 Q328.9375,215.5 329.125,215.8906 Q329.3281,216.2813 329.4219,216.7188 Q329.5313,217.1406 329.5313,217.5938 Q329.5313,217.5938 329.5313,217.5938 Q329.5313,217.5938 329.5313,217.6094 L327.6406,217.6094 Q327.6406,217.5938 327.6406,217.5938 Q327.6406,217.5938 327.6406,217.5938 Q327.6406,217.2813 327.5469,216.9844 Q327.4688,216.6875 327.2813,216.4375 Q327.0938,216.1875 326.7969,216.0781 Q326.5,215.9531 326.2031,215.9531 Q325.9844,215.9531 325.75,216.0313 Q325.5156,216.0938 325.3438,216.25 Q325.1719,216.3906 325.0469,216.5938 Q324.9375,216.7969 324.875,217.0313 Q324.8125,217.25 324.7813,217.4844 Q324.75,217.7031 324.75,217.9375 L324.75,223.4688 Q324.75,223.7031 324.7813,223.9375 Q324.8125,224.1719 324.875,224.3906 Q324.9375,224.6094 325.0469,224.8125 Q325.1719,225.0156 325.3438,225.1719 Q325.5156,225.3281 325.75,225.3906 Q325.9844,225.4531 326.2031,225.4531 Q326.5,225.4531 326.7969,225.3438 Q327.0938,225.2188 327.2813,224.9688 Q327.4688,224.7188 327.5469,224.4219 Q327.6406,224.125 327.6406,223.8281 Q327.6406,223.8281 327.6406,223.8281 Q327.6406,223.8281 327.6406,223.8125 L329.5313,223.8125 Q329.5313,223.8281 329.5313,223.8281 Q329.5313,223.8281 329.5313,223.8281 Q329.5313,224.2656 329.4219,224.7031 Q329.3281,225.1406 329.125,225.5313 Q328.9375,225.9219 328.6094,226.2344 Q328.2969,226.5469 327.9063,226.75 Q327.5156,226.9375 327.0781,227.0156 Q326.6406,227.0938 326.2031,227.0938 Z " fill="#EBDBB2"/><text fill="#EBDBB2" font-family="Iosevka Term" font-size="12" lengthAdjust="spacing" textLength="50" x="340" y="224.6074">Reserva</text><line style="stroke:#504945;stroke-width:1.5;" x1="312" x2="392" y1="236.4531" y2="236.4531"/><line style="stroke:#504945;stroke-width:1.5;" x1="312" x2="392" y1="244.4531" y2="244.4531"/><!--MD5=[9026d20a9095412bfd8e39b2f93259f2]
class ReservaInternet--><rect codeLine="21" fill="#282828" height="48" id="ReservaInternet" rx="7.5" ry="7.5" style="stroke:#504945;stroke-width:1.5;" width="132" x="500" y="40.9531"/><ellipse cx="515" cy="56.9531" fill="#B8BB26" rx="11" ry="11" style="stroke:#B8BB26;stroke-width:1.0;"/><path d="M515.2031,63.5938 Q514.7344,63.5938 514.2813,63.5 Q513.8281,63.4063 513.4063,63.1719 Q513,62.9375 512.6875,62.5781 Q512.375,62.2188 512.1875,61.7969 Q512,61.3594 511.9219,60.8906 Q511.8594,60.4219 511.8594,59.9688 L511.8594,54.4375 Q511.8594,53.9844 511.9219,53.5156 Q512,53.0469 512.1875,52.625 Q512.375,52.2031 512.6875,51.8438 Q513,51.4688 513.4063,51.25 Q513.8281,51.0156 514.2813,50.9219 Q514.7344,50.8281 515.2031,50.8281 Q515.6406,50.8281 516.0781,50.9063 Q516.5156,50.9688 516.9063,51.1719 Q517.2969,51.3594 517.6094,51.6875 Q517.9375,52 518.125,52.3906 Q518.3281,52.7813 518.4219,53.2188 Q518.5313,53.6406 518.5313,54.0938 Q518.5313,54.0938 518.5313,54.0938 Q518.5313,54.0938 518.5313,54.1094 L516.6406,54.1094 Q516.6406,54.0938 516.6406,54.0938 Q516.6406,54.0938 516.6406,54.0938 Q516.6406,53.7813 516.5469,53.4844 Q516.4688,53.1875 516.2813,52.9375 Q516.0938,52.6875 515.7969,52.5781 Q515.5,52.4531 515.2031,52.4531 Q514.9844,52.4531 514.75,52.5313 Q514.5156,52.5938 514.3438,52.75 Q514.1719,52.8906 514.0469,53.0938 Q513.9375,53.2969 513.875,53.5313 Q513.8125,53.75 513.7813,53.9844 Q513.75,54.2031 513.75,54.4375 L513.75,59.9688 Q513.75,60.2031 513.7813,60.4375 Q513.8125,60.6719 513.875,60.8906 Q513.9375,61.1094 514.0469,61.3125 Q514.1719,61.5156 514.3438,61.6719 Q514.5156,61.8281 514.75,61.8906 Q514.9844,61.9531 515.2031,61.9531 Q515.5,61.9531 515.7969,61.8438 Q516.0938,61.7188 516.2813,61.4688 Q516.4688,61.2188 516.5469,60.9219 Q516.6406,60.625 516.6406,60.3281 Q516.6406,60.3281 516.6406,60.3281 Q516.6406,60.3281 516.6406,60.3125 L518.5313,60.3125 Q518.5313,60.3281 518.5313,60.3281 Q518.5313,60.3281 518.5313,60.3281 Q518.5313,60.7656 518.4219,61.2031 Q518.3281,61.6406 518.125,62.0313 Q517.9375,62.4219 517.6094,62.7344 Q517.2969,63.0469 516.9063,63.25 Q516.5156,63.4375 516.0781,63.5156 Q515.6406,63.5938 515.2031,63.5938 Z " fill="#EBDBB2"/><text fill="#EBDBB2" font-family="Iosevka Term" font-size="12" lengthAdjust="spacing" textLength="100" x="529" y="61.1074">ReservaInternet</text><line style="stroke:#504945;stroke-width:1.5;" x1="501" x2="631" y1="72.9531" y2="72.9531"/><line style="stroke:#504945;stroke-width:1.5;" x1="501" x2="631" y1="80.9531" y2="80.9531"/><!--MD5=[01955e7749f2df97d3ba6578b9f21622]
class ReservaTelefono--><rect codeLine="22" fill="#282828" height="48" id="ReservaTelefono" rx="7.5" ry="7.5" style="stroke:#504945;stroke-width:1.5;" width="136" x="264" y="40.9531"/><ellipse cx="279" cy="56.9531" fill="#B8BB26" rx="11" ry="11" style="stroke:#B8BB26;stroke-width:1.0;"/><path d="M279.2031,63.5938 Q278.7344,63.5938 278.2813,63.5 Q277.8281,63.4063 277.4063,63.1719 Q277,62.9375 276.6875,62.5781 Q276.375,62.2188 276.1875,61.7969 Q276,61.3594 275.9219,60.8906 Q275.8594,60.4219 275.8594,59.9688 L275.8594,54.4375 Q275.8594,53.9844 275.9219,53.5156 Q276,53.0469 276.1875,52.625 Q276.375,52.2031 276.6875,51.8438 Q277,51.4688 277.4063,51.25 Q277.8281,51.0156 278.2813,50.9219 Q278.7344,50.8281 279.2031,50.8281 Q279.6406,50.8281 280.0781,50.9063 Q280.5156,50.9688 280.9063,51.1719 Q281.2969,51.3594 281.6094,51.6875 Q281.9375,52 282.125,52.3906 Q282.3281,52.7813 282.4219,53.2188 Q282.5313,53.6406 282.5313,54.0938 Q282.5313,54.0938 282.5313,54.0938 Q282.5313,54.0938 282.5313,54.1094 L280.6406,54.1094 Q280.6406,54.0938 280.6406,54.0938 Q280.6406,54.0938 280.6406,54.0938 Q280.6406,53.7813 280.5469,53.4844 Q280.4688,53.1875 280.2813,52.9375 Q280.0938,52.6875 279.7969,52.5781 Q279.5,52.4531 279.2031,52.4531 Q278.9844,52.4531 278.75,52.5313 Q278.5156,52.5938 278.3438,52.75 Q278.1719,52.8906 278.0469,53.0938 Q277.9375,53.2969 277.875,53.5313 Q277.8125,53.75 277.7813,53.9844 Q277.75,54.2031 277.75,54.4375 L277.75,59.9688 Q277.75,60.2031 277.7813,60.4375 Q277.8125,60.6719 277.875,60.8906 Q277.9375,61.1094 278.0469,61.3125 Q278.1719,61.5156 278.3438,61.6719 Q278.5156,61.8281 278.75,61.8906 Q278.9844,61.9531 279.2031,61.9531 Q279.5,61.9531 279.7969,61.8438 Q280.0938,61.7188 280.2813,61.4688 Q280.4688,61.2188 280.5469,60.9219 Q280.6406,60.625 280.6406,60.3281 Q280.6406,60.3281 280.6406,60.3281 Q280.6406,60.3281 280.6406,60.3125 L282.5313,60.3125 Q282.5313,60.3281 282.5313,60.3281 Q282.5313,60.3281 282.5313,60.3281 Q282.5313,60.7656 282.4219,61.2031 Q282.3281,61.6406 282.125,62.0313 Q281.9375,62.4219 281.6094,62.7344 Q281.2969,63.0469 280.9063,63.25 Q280.5156,63.4375 280.0781,63.5156 Q279.6406,63.5938 279.2031,63.5938 Z " fill="#EBDBB2"/><text fill="#EBDBB2" font-family="Iosevka Term" font-size="12" lengthAdjust="spacing" textLength="104" x="293" y="61.1074">ReservaTelefono</text><line style="stroke:#504945;stroke-width:1.5;" x1="265" x2="399" y1="72.9531" y2="72.9531"/><line style="stroke:#504945;stroke-width:1.5;" x1="265" x2="399" y1="80.9531" y2="80.9531"/><!--MD5=[1286053e450a9a75d41b700ea070e576]
class TipoButaca--><rect codeLine="24" fill="#282828" height="99.2188" id="TipoButaca" rx="7.5" ry="7.5" style="stroke:#504945;stroke-width:1.5;" width="102" x="77" y="505.9531"/><ellipse cx="92" cy="521.9531" fill="#FE8019" rx="11" ry="11" style="stroke:#FE8019;stroke-width:1.0;"/><path d="M88.6406,528.4531 L88.6406,515.9531 L95,515.9531 L95,517.5938 L90.5313,517.5938 L90.5313,521.1406 L94.0313,521.1406 L94.0313,522.7813 L90.5313,522.7813 L90.5313,526.8281 L95,526.8281 L95,528.4531 L88.6406,528.4531 Z " fill="#EBDBB2"/><text fill="#EBDBB2" font-family="Iosevka Term" font-size="12" lengthAdjust="spacing" textLength="70" x="106" y="526.1074">TipoButaca</text><line style="stroke:#504945;stroke-width:1.5;" x1="78" x2="178" y1="537.9531" y2="537.9531"/><text fill="#EBDBB2" font-family="Iosevka Term" font-size="11" lengthAdjust="spacing" textLength="45" x="83" y="552.1636">General</text><text fill="#EBDBB2" font-family="Iosevka Term" font-size="11" lengthAdjust="spacing" textLength="68" x="83" y="564.9683">Preferencial</text><text fill="#EBDBB2" font-family="Iosevka Term" font-size="11" lengthAdjust="spacing" textLength="44" x="83" y="577.7729">Cinebar</text><text fill="#EBDBB2" font-family="Iosevka Term" font-size="11" lengthAdjust="spacing" textLength="50" x="83" y="590.5776">Fumador</text><line style="stroke:#504945;stroke-width:1.5;" x1="78" x2="178" y1="597.1719" y2="597.1719"/><!--MD5=[a39cd33f9b0d19819d6cd3c0a9cb40a3]
class Peliculas--><rect codeLine="31" fill="#282828" height="99.2188" id="Peliculas" rx="7.5" ry="7.5" style="stroke:#504945;stroke-width:1.5;" width="123" x="513.5" y="178.9531"/><ellipse cx="544.7" cy="194.9531" fill="#B8BB26" rx="11" ry="11" style="stroke:#B8BB26;stroke-width:1.0;"/><path d="M544.9031,201.5938 Q544.4344,201.5938 543.9813,201.5 Q543.5281,201.4063 543.1063,201.1719 Q542.7,200.9375 542.3875,200.5781 Q542.075,200.2188 541.8875,199.7969 Q541.7,199.3594 541.6219,198.8906 Q541.5594,198.4219 541.5594,197.9688 L541.5594,192.4375 Q541.5594,191.9844 541.6219,191.5156 Q541.7,191.0469 541.8875,190.625 Q542.075,190.2031 542.3875,189.8438 Q542.7,189.4688 543.1063,189.25 Q543.5281,189.0156 543.9813,188.9219 Q544.4344,188.8281 544.9031,188.8281 Q545.3406,188.8281 545.7781,188.9063 Q546.2156,188.9688 546.6063,189.1719 Q546.9969,189.3594 547.3094,189.6875 Q547.6375,190 547.825,190.3906 Q548.0281,190.7813 548.1219,191.2188 Q548.2313,191.6406 548.2313,192.0938 Q548.2313,192.0938 548.2313,192.0938 Q548.2313,192.0938 548.2313,192.1094 L546.3406,192.1094 Q546.3406,192.0938 546.3406,192.0938 Q546.3406,192.0938 546.3406,192.0938 Q546.3406,191.7813 546.2469,191.4844 Q546.1688,191.1875 545.9813,190.9375 Q545.7938,190.6875 545.4969,190.5781 Q545.2,190.4531 544.9031,190.4531 Q544.6844,190.4531 544.45,190.5313 Q544.2156,190.5938 544.0438,190.75 Q543.8719,190.8906 543.7469,191.0938 Q543.6375,191.2969 543.575,191.5313 Q543.5125,191.75 543.4813,191.9844 Q543.45,192.2031 543.45,192.4375 L543.45,197.9688 Q543.45,198.2031 543.4813,198.4375 Q543.5125,198.6719 543.575,198.8906 Q543.6375,199.1094 543.7469,199.3125 Q543.8719,199.5156 544.0438,199.6719 Q544.2156,199.8281 544.45,199.8906 Q544.6844,199.9531 544.9031,199.9531 Q545.2,199.9531 545.4969,199.8438 Q545.7938,199.7188 545.9813,199.4688 Q546.1688,199.2188 546.2469,198.9219 Q546.3406,198.625 546.3406,198.3281 Q546.3406,198.3281 546.3406,198.3281 Q546.3406,198.3281 546.3406,198.3125 L548.2313,198.3125 Q548.2313,198.3281 548.2313,198.3281 Q548.2313,198.3281 548.2313,198.3281 Q548.2313,198.7656 548.1219,199.2031 Q548.0281,199.6406 547.825,200.0313 Q547.6375,200.4219 547.3094,200.7344 Q546.9969,201.0469 546.6063,201.25 Q546.2156,201.4375 545.7781,201.5156 Q545.3406,201.5938 544.9031,201.5938 Z " fill="#EBDBB2"/><text fill="#EBDBB2" font-family="Iosevka Term" font-size="12" lengthAdjust="spacing" textLength="55" x="562.3" y="199.1074">Peliculas</text><line style="stroke:#504945;stroke-width:1.5;" x1="514.5" x2="635.5" y1="210.9531" y2="210.9531"/><rect fill="none" height="6" style="stroke:#CC241D;stroke-width:1.0;" width="6" x="521.5" y="218.9531"/><text fill="#EBDBB2" font-family="Iosevka Term" font-size="11" lengthAdjust="spacing" textLength="90" x="533.5" y="225.1636">director : String</text><rect fill="none" height="6" style="stroke:#CC241D;stroke-width:1.0;" width="6" x="521.5" y="231.7578"/><text fill="#EBDBB2" font-family="Iosevka Term" font-size="11" lengthAdjust="spacing" textLength="49" x="533.5" y="237.9683">duracion</text><rect fill="none" height="6" style="stroke:#CC241D;stroke-width:1.0;" width="6" x="521.5" y="244.5625"/><text fill="#EBDBB2" font-family="Iosevka Term" font-size="11" lengthAdjust="spacing" textLength="84" x="533.5" y="250.7729">idioma : String</text><rect fill="none" height="6" style="stroke:#CC241D;stroke-width:1.0;" width="6" x="521.5" y="257.3672"/><text fill="#EBDBB2" font-family="Iosevka Term" font-size="11" lengthAdjust="spacing" textLength="97" x="533.5" y="263.5776">resumen : String</text><line style="stroke:#504945;stroke-width:1.5;" x1="514.5" x2="635.5" y1="270.1719" y2="270.1719"/><!--MD5=[74438b4bcd0b343607a1e9b7af88b110]
class Horario--><rect codeLine="38" fill="#282828" height="73.6094" id="Horario" rx="7.5" ry="7.5" style="stroke:#504945;stroke-width:1.5;" width="95" x="677.5" y="354.9531"/><ellipse cx="700.15" cy="370.9531" fill="#B8BB26" rx="11" ry="11" style="stroke:#B8BB26;stroke-width:1.0;"/><path d="M700.3531,377.5938 Q699.8844,377.5938 699.4313,377.5 Q698.9781,377.4063 698.5563,377.1719 Q698.15,376.9375 697.8375,376.5781 Q697.525,376.2188 697.3375,375.7969 Q697.15,375.3594 697.0719,374.8906 Q697.0094,374.4219 697.0094,373.9688 L697.0094,368.4375 Q697.0094,367.9844 697.0719,367.5156 Q697.15,367.0469 697.3375,366.625 Q697.525,366.2031 697.8375,365.8438 Q698.15,365.4688 698.5563,365.25 Q698.9781,365.0156 699.4313,364.9219 Q699.8844,364.8281 700.3531,364.8281 Q700.7906,364.8281 701.2281,364.9063 Q701.6656,364.9688 702.0563,365.1719 Q702.4469,365.3594 702.7594,365.6875 Q703.0875,366 703.275,366.3906 Q703.4781,366.7813 703.5719,367.2188 Q703.6813,367.6406 703.6813,368.0938 Q703.6813,368.0938 703.6813,368.0938 Q703.6813,368.0938 703.6813,368.1094 L701.7906,368.1094 Q701.7906,368.0938 701.7906,368.0938 Q701.7906,368.0938 701.7906,368.0938 Q701.7906,367.7813 701.6969,367.4844 Q701.6188,367.1875 701.4313,366.9375 Q701.2438,366.6875 700.9469,366.5781 Q700.65,366.4531 700.3531,366.4531 Q700.1344,366.4531 699.9,366.5313 Q699.6656,366.5938 699.4938,366.75 Q699.3219,366.8906 699.1969,367.0938 Q699.0875,367.2969 699.025,367.5313 Q698.9625,367.75 698.9313,367.9844 Q698.9,368.2031 698.9,368.4375 L698.9,373.9688 Q698.9,374.2031 698.9313,374.4375 Q698.9625,374.6719 699.025,374.8906 Q699.0875,375.1094 699.1969,375.3125 Q699.3219,375.5156 699.4938,375.6719 Q699.6656,375.8281 699.9,375.8906 Q700.1344,375.9531 700.3531,375.9531 Q700.65,375.9531 700.9469,375.8438 Q701.2438,375.7188 701.4313,375.4688 Q701.6188,375.2188 701.6969,374.9219 Q701.7906,374.625 701.7906,374.3281 Q701.7906,374.3281 701.7906,374.3281 Q701.7906,374.3281 701.7906,374.3125 L703.6813,374.3125 Q703.6813,374.3281 703.6813,374.3281 Q703.6813,374.3281 703.6813,374.3281 Q703.6813,374.7656 703.5719,375.2031 Q703.4781,375.6406 703.275,376.0313 Q703.0875,376.4219 702.7594,376.7344 Q702.4469,377.0469 702.0563,377.25 Q701.6656,377.4375 701.2281,377.5156 Q700.7906,377.5938 700.3531,377.5938 Z " fill="#EBDBB2"/><text fill="#EBDBB2" font-family="Iosevka Term" font-size="12" lengthAdjust="spacing" textLength="46" x="715.85" y="375.1074">Horario</text><line style="stroke:#504945;stroke-width:1.5;" x1="678.5" x2="771.5" y1="386.9531" y2="386.9531"/><rect fill="none" height="6" style="stroke:#CC241D;stroke-width:1.0;" width="6" x="685.5" y="394.9531"/><text fill="#EBDBB2" font-family="Iosevka Term" font-size="11" lengthAdjust="spacing" textLength="69" x="697.5" y="401.1636">fecha : Date</text><rect fill="none" height="6" style="stroke:#CC241D;stroke-width:1.0;" width="6" x="685.5" y="407.7578"/><text fill="#EBDBB2" font-family="Iosevka Term" font-size="11" lengthAdjust="spacing" textLength="26" x="697.5" y="413.9683">hora</text><line style="stroke:#504945;stroke-width:1.5;" x1="678.5" x2="771.5" y1="420.5625" y2="420.5625"/><!--MD5=[b075b078375748949101a622860ff644]
class ClienteRegistrado--><rect codeLine="43" fill="#282828" height="73.6094" id="ClienteRegistrado" rx="7.5" ry="7.5" style="stroke:#504945;stroke-width:1.5;" width="160" x="7" y="191.4531"/><ellipse cx="29.65" cy="207.4531" fill="#B8BB26" rx="11" ry="11" style="stroke:#B8BB26;stroke-width:1.0;"/><path d="M29.8531,214.0938 Q29.3844,214.0938 28.9313,214 Q28.4781,213.9063 28.0563,213.6719 Q27.65,213.4375 27.3375,213.0781 Q27.025,212.7188 26.8375,212.2969 Q26.65,211.8594 26.5719,211.3906 Q26.5094,210.9219 26.5094,210.4688 L26.5094,204.9375 Q26.5094,204.4844 26.5719,204.0156 Q26.65,203.5469 26.8375,203.125 Q27.025,202.7031 27.3375,202.3438 Q27.65,201.9688 28.0563,201.75 Q28.4781,201.5156 28.9313,201.4219 Q29.3844,201.3281 29.8531,201.3281 Q30.2906,201.3281 30.7281,201.4063 Q31.1656,201.4688 31.5563,201.6719 Q31.9469,201.8594 32.2594,202.1875 Q32.5875,202.5 32.775,202.8906 Q32.9781,203.2813 33.0719,203.7188 Q33.1813,204.1406 33.1813,204.5938 Q33.1813,204.5938 33.1813,204.5938 Q33.1813,204.5938 33.1813,204.6094 L31.2906,204.6094 Q31.2906,204.5938 31.2906,204.5938 Q31.2906,204.5938 31.2906,204.5938 Q31.2906,204.2813 31.1969,203.9844 Q31.1188,203.6875 30.9313,203.4375 Q30.7438,203.1875 30.4469,203.0781 Q30.15,202.9531 29.8531,202.9531 Q29.6344,202.9531 29.4,203.0313 Q29.1656,203.0938 28.9938,203.25 Q28.8219,203.3906 28.6969,203.5938 Q28.5875,203.7969 28.525,204.0313 Q28.4625,204.25 28.4313,204.4844 Q28.4,204.7031 28.4,204.9375 L28.4,210.4688 Q28.4,210.7031 28.4313,210.9375 Q28.4625,211.1719 28.525,211.3906 Q28.5875,211.6094 28.6969,211.8125 Q28.8219,212.0156 28.9938,212.1719 Q29.1656,212.3281 29.4,212.3906 Q29.6344,212.4531 29.8531,212.4531 Q30.15,212.4531 30.4469,212.3438 Q30.7438,212.2188 30.9313,211.9688 Q31.1188,211.7188 31.1969,211.4219 Q31.2906,211.125 31.2906,210.8281 Q31.2906,210.8281 31.2906,210.8281 Q31.2906,210.8281 31.2906,210.8125 L33.1813,210.8125 Q33.1813,210.8281 33.1813,210.8281 Q33.1813,210.8281 33.1813,210.8281 Q33.1813,211.2656 33.0719,211.7031 Q32.9781,212.1406 32.775,212.5313 Q32.5875,212.9219 32.2594,213.2344 Q31.9469,213.5469 31.5563,213.75 Q31.1656,213.9375 30.7281,214.0156 Q30.2906,214.0938 29.8531,214.0938 Z " fill="#EBDBB2"/><text fill="#EBDBB2" font-family="Iosevka Term" font-size="12" lengthAdjust="spacing" textLength="111" x="45.35" y="211.6074">ClienteRegistrado</text><line style="stroke:#504945;stroke-width:1.5;" x1="8" x2="166" y1="223.4531" y2="223.4531"/><rect fill="none" height="6" style="stroke:#CC241D;stroke-width:1.0;" width="6" x="15" y="231.4531"/><text fill="#EBDBB2" font-family="Iosevka Term" font-size="11" lengthAdjust="spacing" textLength="134" x="27" y="237.6636">cuentaBancaria : String</text><rect fill="none" height="6" style="stroke:#CC241D;stroke-width:1.0;" width="6" x="15" y="244.2578"/><text fill="#EBDBB2" font-family="Iosevka Term" font-size="11" lengthAdjust="spacing" textLength="96" x="27" y="250.4683">descuento : float</text><line style="stroke:#504945;stroke-width:1.5;" x1="8" x2="166" y1="257.0625" y2="257.0625"/><!--MD5=[275f92447fca98134c7383c18f777eb4]
class Articulos--><rect codeLine="48" fill="#282828" height="73.6094" id="Articulos" rx="7.5" ry="7.5" style="stroke:#504945;stroke-width:1.5;" width="116" x="29" y="27.9531"/><ellipse cx="57.5" cy="43.9531" fill="#B8BB26" rx="11" ry="11" style="stroke:#B8BB26;stroke-width:1.0;"/><path d="M57.7031,50.5938 Q57.2344,50.5938 56.7813,50.5 Q56.3281,50.4063 55.9063,50.1719 Q55.5,49.9375 55.1875,49.5781 Q54.875,49.2188 54.6875,48.7969 Q54.5,48.3594 54.4219,47.8906 Q54.3594,47.4219 54.3594,46.9688 L54.3594,41.4375 Q54.3594,40.9844 54.4219,40.5156 Q54.5,40.0469 54.6875,39.625 Q54.875,39.2031 55.1875,38.8438 Q55.5,38.4688 55.9063,38.25 Q56.3281,38.0156 56.7813,37.9219 Q57.2344,37.8281 57.7031,37.8281 Q58.1406,37.8281 58.5781,37.9063 Q59.0156,37.9688 59.4063,38.1719 Q59.7969,38.3594 60.1094,38.6875 Q60.4375,39 60.625,39.3906 Q60.8281,39.7813 60.9219,40.2188 Q61.0313,40.6406 61.0313,41.0938 Q61.0313,41.0938 61.0313,41.0938 Q61.0313,41.0938 61.0313,41.1094 L59.1406,41.1094 Q59.1406,41.0938 59.1406,41.0938 Q59.1406,41.0938 59.1406,41.0938 Q59.1406,40.7813 59.0469,40.4844 Q58.9688,40.1875 58.7813,39.9375 Q58.5938,39.6875 58.2969,39.5781 Q58,39.4531 57.7031,39.4531 Q57.4844,39.4531 57.25,39.5313 Q57.0156,39.5938 56.8438,39.75 Q56.6719,39.8906 56.5469,40.0938 Q56.4375,40.2969 56.375,40.5313 Q56.3125,40.75 56.2813,40.9844 Q56.25,41.2031 56.25,41.4375 L56.25,46.9688 Q56.25,47.2031 56.2813,47.4375 Q56.3125,47.6719 56.375,47.8906 Q56.4375,48.1094 56.5469,48.3125 Q56.6719,48.5156 56.8438,48.6719 Q57.0156,48.8281 57.25,48.8906 Q57.4844,48.9531 57.7031,48.9531 Q58,48.9531 58.2969,48.8438 Q58.5938,48.7188 58.7813,48.4688 Q58.9688,48.2188 59.0469,47.9219 Q59.1406,47.625 59.1406,47.3281 Q59.1406,47.3281 59.1406,47.3281 Q59.1406,47.3281 59.1406,47.3125 L61.0313,47.3125 Q61.0313,47.3281 61.0313,47.3281 Q61.0313,47.3281 61.0313,47.3281 Q61.0313,47.7656 60.9219,48.2031 Q60.8281,48.6406 60.625,49.0313 Q60.4375,49.4219 60.1094,49.7344 Q59.7969,50.0469 59.4063,50.25 Q59.0156,50.4375 58.5781,50.5156 Q58.1406,50.5938 57.7031,50.5938 Z " fill="#EBDBB2"/><text fill="#EBDBB2" font-family="Iosevka Term" font-size="12" lengthAdjust="spacing" textLength="54" x="74.5" y="48.1074">Articulos</text><line style="stroke:#504945;stroke-width:1.5;" x1="30" x2="144" y1="59.9531" y2="59.9531"/><rect fill="none" height="6" style="stroke:#CC241D;stroke-width:1.0;" width="6" x="37" y="67.9531"/><text fill="#EBDBB2" font-family="Iosevka Term" font-size="11" lengthAdjust="spacing" textLength="72" x="49" y="74.1636">precio : float</text><rect fill="none" height="6" style="stroke:#CC241D;stroke-width:1.0;" width="6" x="37" y="80.7578"/><text fill="#EBDBB2" font-family="Iosevka Term" font-size="11" lengthAdjust="spacing" textLength="90" x="49" y="86.9683">nombre : String</text><line style="stroke:#504945;stroke-width:1.5;" x1="30" x2="144" y1="93.5625" y2="93.5625"/><!--MD5=[abd2c9c6ce46269cbe00cfe900c26e5c]
class Clientes--><rect codeLine="53" fill="#282828" height="48" id="Clientes" rx="7.5" ry="7.5" style="stroke:#504945;stroke-width:1.5;" width="82" x="64" y="367.9531"/><ellipse cx="79" cy="383.9531" fill="#B8BB26" rx="11" ry="11" style="stroke:#B8BB26;stroke-width:1.0;"/><path d="M79.2031,390.5938 Q78.7344,390.5938 78.2813,390.5 Q77.8281,390.4063 77.4063,390.1719 Q77,389.9375 76.6875,389.5781 Q76.375,389.2188 76.1875,388.7969 Q76,388.3594 75.9219,387.8906 Q75.8594,387.4219 75.8594,386.9688 L75.8594,381.4375 Q75.8594,380.9844 75.9219,380.5156 Q76,380.0469 76.1875,379.625 Q76.375,379.2031 76.6875,378.8438 Q77,378.4688 77.4063,378.25 Q77.8281,378.0156 78.2813,377.9219 Q78.7344,377.8281 79.2031,377.8281 Q79.6406,377.8281 80.0781,377.9063 Q80.5156,377.9688 80.9063,378.1719 Q81.2969,378.3594 81.6094,378.6875 Q81.9375,379 82.125,379.3906 Q82.3281,379.7813 82.4219,380.2188 Q82.5313,380.6406 82.5313,381.0938 Q82.5313,381.0938 82.5313,381.0938 Q82.5313,381.0938 82.5313,381.1094 L80.6406,381.1094 Q80.6406,381.0938 80.6406,381.0938 Q80.6406,381.0938 80.6406,381.0938 Q80.6406,380.7813 80.5469,380.4844 Q80.4688,380.1875 80.2813,379.9375 Q80.0938,379.6875 79.7969,379.5781 Q79.5,379.4531 79.2031,379.4531 Q78.9844,379.4531 78.75,379.5313 Q78.5156,379.5938 78.3438,379.75 Q78.1719,379.8906 78.0469,380.0938 Q77.9375,380.2969 77.875,380.5313 Q77.8125,380.75 77.7813,380.9844 Q77.75,381.2031 77.75,381.4375 L77.75,386.9688 Q77.75,387.2031 77.7813,387.4375 Q77.8125,387.6719 77.875,387.8906 Q77.9375,388.1094 78.0469,388.3125 Q78.1719,388.5156 78.3438,388.6719 Q78.5156,388.8281 78.75,388.8906 Q78.9844,388.9531 79.2031,388.9531 Q79.5,388.9531 79.7969,388.8438 Q80.0938,388.7188 80.2813,388.4688 Q80.4688,388.2188 80.5469,387.9219 Q80.6406,387.625 80.6406,387.3281 Q80.6406,387.3281 80.6406,387.3281 Q80.6406,387.3281 80.6406,387.3125 L82.5313,387.3125 Q82.5313,387.3281 82.5313,387.3281 Q82.5313,387.3281 82.5313,387.3281 Q82.5313,387.7656 82.4219,388.2031 Q82.3281,388.6406 82.125,389.0313 Q81.9375,389.4219 81.6094,389.7344 Q81.2969,390.0469 80.9063,390.25 Q80.5156,390.4375 80.0781,390.5156 Q79.6406,390.5938 79.2031,390.5938 Z " fill="#EBDBB2"/><text fill="#EBDBB2" font-family="Iosevka Term" font-size="12" lengthAdjust="spacing" textLength="50" x="93" y="388.1074">Clientes</text><line style="stroke:#504945;stroke-width:1.5;" x1="65" x2="145" y1="399.9531" y2="399.9531"/><line style="stroke:#504945;stroke-width:1.5;" x1="65" x2="145" y1="407.9531" y2="407.9531"/><ellipse cx="575" cy="391.9531" fill="#000000" rx="2" ry="2" style="stroke:none;stroke-width:1.0;"/><!--MD5=[d80fcb850d49a87f47401e9bc2e80121]
link Salas to Multiplex--><path codeLine="55" d="M629.51,555.4531 C672.7,555.4531 733.49,555.4531 781.22,555.4531 " fill="none" id="Salas-to-Multiplex" style="stroke:#689D6A;stroke-width:1.0;"/><polygon fill="#689D6A" points="794.31,555.4531,788.31,551.4531,782.31,555.4531,788.31,559.4531,794.31,555.4531" style="stroke:#689D6A;stroke-width:1.0;"/><text fill="#EBDBB2" font-family="Iosevka Term" font-size="13" lengthAdjust="spacing" textLength="63" x="680.5" y="548.52">contienen</text><text fill="#EBDBB2" font-family="Iosevka Term" font-size="13" lengthAdjust="spacing" textLength="23" x="637.555" y="551.626">1..*</text><text fill="#EBDBB2" font-family="Iosevka Term" font-size="13" lengthAdjust="spacing" textLength="8" x="778.304" y="551.626">1</text><!--MD5=[60cb1c99c41142c1f511cd9b216c8b5b]
link Butacas to Salas--><path codeLine="57" d="M379.08,555.4531 C416.01,555.4531 466.68,555.4531 507.23,555.4531 " fill="none" id="Butacas-to-Salas" style="stroke:#689D6A;stroke-width:1.0;"/><polygon fill="#689D6A" points="520.29,555.4531,514.29,551.4531,508.29,555.4531,514.29,559.4531,520.29,555.4531" style="stroke:#689D6A;stroke-width:1.0;"/><text fill="#EBDBB2" font-family="Iosevka Term" font-size="13" lengthAdjust="spacing" textLength="40" x="429.75" y="548.52">tienen</text><text fill="#EBDBB2" font-family="Iosevka Term" font-size="13" lengthAdjust="spacing" textLength="23" x="386.9699" y="551.5926">1..*</text><text fill="#EBDBB2" font-family="Iosevka Term" font-size="13" lengthAdjust="spacing" textLength="8" x="504.4008" y="551.5343">1</text><!--MD5=[13381f6ec66702873f9cfd2555ee77db]
reverse link Peliculas to apoint19--><path d="M575,283.5431 C575,326.6831 575,381.2431 575,389.8031 " fill="none" id="Peliculas-backto-apoint19" style="stroke:#689D6A;stroke-width:1.0;"/><polygon fill="#689D6A" points="575,278.3431,571,287.3431,575,283.3431,579,287.3431,575,278.3431" style="stroke:#689D6A;stroke-width:1.0;"/><text fill="#EBDBB2" font-family="Iosevka Term" font-size="13" lengthAdjust="spacing" textLength="64" x="576" y="321.02">proyectan</text><text fill="#EBDBB2" font-family="Iosevka Term" font-size="13" lengthAdjust="spacing" textLength="23" x="550.4547" y="298.116">1..*</text><!--MD5=[4631342c5ed822766e9b3d5e324ccf8f]
link apoint19 to Salas--><path d="M575,393.9831 C575,403.7931 575,481.1631 575,524.7931 " fill="none" id="apoint19-Salas" style="stroke:#689D6A;stroke-width:1.0;"/><text fill="#EBDBB2" font-family="Iosevka Term" font-size="13" lengthAdjust="spacing" textLength="23" x="549.6281" y="514.0234">1..*</text><!--MD5=[05664114ee232dc3c0402368835c0903]
link apoint19 to Horario--><path d="M577.05,391.9531 C610.47,391.9531 643.9,391.9531 677.32,391.9531 " fill="none" id="apoint19-Horario" style="stroke:#689D6A;stroke-width:1.0;stroke-dasharray:7.0,7.0;"/><!--MD5=[c13e68a28f657963b26dbc23116b6857]
reverse link TipoButaca to Butacas--><path codeLine="61" d="M184.11,555.4531 C215.71,555.4531 247.31,555.4531 278.91,555.4531 " fill="none" id="TipoButaca-backto-Butacas" style="stroke:#689D6A;stroke-width:1.0;"/><polygon fill="#689D6A" points="179.04,555.4531,188.04,559.4531,184.04,555.4531,188.04,551.4531,179.04,555.4531" style="stroke:#689D6A;stroke-width:1.0;"/><text fill="#EBDBB2" font-family="Iosevka Term" font-size="13" lengthAdjust="spacing" textLength="23" x="187.0529" y="551.5536">1..*</text><text fill="#EBDBB2" font-family="Iosevka Term" font-size="13" lengthAdjust="spacing" textLength="23" x="248.0188" y="551.5926">0..*</text><!--MD5=[2d14855d1e8f36d308934a166209353b]
reverse link ClienteRegistrado to Reserva--><path codeLine="63" d="M172.26,228.4531 C218.66,228.4531 273.94,228.4531 310.83,228.4531 " fill="none" id="ClienteRegistrado-backto-Reserva" style="stroke:#689D6A;stroke-width:1.0;"/><polygon fill="#689D6A" points="167.23,228.4531,176.23,232.4531,172.23,228.4531,176.23,224.4531,167.23,228.4531" style="stroke:#689D6A;stroke-width:1.0;"/><text fill="#EBDBB2" font-family="Iosevka Term" font-size="13" lengthAdjust="spacing" textLength="42" x="218" y="221.52">realiza</text><text fill="#EBDBB2" font-family="Iosevka Term" font-size="13" lengthAdjust="spacing" textLength="8" x="174.995" y="224.8527">1</text><text fill="#EBDBB2" font-family="Iosevka Term" font-size="13" lengthAdjust="spacing" textLength="23" x="280.0941" y="224.4282">1..*</text><!--MD5=[c179bd15eaa8ad4a46059e15d6aea74c]
reverse link Reserva to Butacas--><path codeLine="64" d="M350,257.6931 C345.83,316.6831 336.18,452.9331 331.56,518.2531 " fill="none" id="Reserva-backto-Butacas" style="stroke:#689D6A;stroke-width:1.0;"/><polygon fill="#689D6A" points="350.36,252.5631,345.752,261.2675,350.017,257.5513,353.7331,261.8163,350.36,252.5631" style="stroke:#689D6A;stroke-width:1.0;"/><text fill="#EBDBB2" font-family="Iosevka Term" font-size="13" lengthAdjust="spacing" textLength="32" x="344" y="396.52">tiene</text><text fill="#EBDBB2" font-family="Iosevka Term" font-size="13" lengthAdjust="spacing" textLength="23" x="324.1571" y="272.3511">1..*</text><text fill="#EBDBB2" font-family="Iosevka Term" font-size="13" lengthAdjust="spacing" textLength="24" x="305.8785" y="507.4045">1..5</text><!--MD5=[f4ac69a107a53d8d7bad0a672af13d31]
link ReservaInternet to Reserva--><path codeLine="66" d="M535.34,89.0931 C499.58,116.0731 440.1,160.9631 398.62,192.2731 " fill="none" id="ReservaInternet-to-Reserva" style="stroke:#689D6A;stroke-width:1.0;"/><polygon fill="none" points="402.78,197.8931,382.6,204.3531,394.35,186.7231,402.78,197.8931" style="stroke:#689D6A;stroke-width:1.0;"/><!--MD5=[cdb229563e4bb7df6789d3d77168199c]
link ReservaTelefono to Reserva--><path codeLine="67" d="M334.87,89.0931 C337.92,113.7931 342.84,153.5131 346.63,184.0731 " fill="none" id="ReservaTelefono-to-Reserva" style="stroke:#689D6A;stroke-width:1.0;"/><polygon fill="none" points="353.63,183.6531,349.14,204.3531,339.73,185.3731,353.63,183.6531" style="stroke:#689D6A;stroke-width:1.0;"/><!--MD5=[8252c1e7e823fd6d0890da78d001f1b9]
link ClienteRegistrado to Clientes--><path codeLine="69" d="M91.04,265.6931 C93.75,289.9831 97.32,322.0931 100.18,347.7131 " fill="none" id="ClienteRegistrado-to-Clientes" style="stroke:#689D6A;stroke-width:1.0;"/><polygon fill="none" points="107.16,347.1531,102.42,367.8031,93.25,348.7031,107.16,347.1531" style="stroke:#689D6A;stroke-width:1.0;"/><!--MD5=[a0b98b481d0b63db6d80fcae80923548]
reverse link Clientes to Butacas--><path codeLine="70" d="M141.54,419.3031 C178.87,446.2131 237.12,488.2131 278.78,518.2431 " fill="none" id="Clientes-backto-Butacas" style="stroke:#689D6A;stroke-width:1.0;"/><polygon fill="#689D6A" points="137.09,416.0931,142.0661,424.5925,141.1509,419.0101,146.7333,418.095,137.09,416.0931" style="stroke:#689D6A;stroke-width:1.0;"/><text fill="#EBDBB2" font-family="Iosevka Term" font-size="13" lengthAdjust="spacing" textLength="49" x="218" y="472.02">compra</text><text fill="#EBDBB2" font-family="Iosevka Term" font-size="13" lengthAdjust="spacing" textLength="8" x="135.9369" y="435.8885">1</text><text fill="#EBDBB2" font-family="Iosevka Term" font-size="13" lengthAdjust="spacing" textLength="23" x="247.8721" y="509.6151">1..*</text><!--MD5=[927ef5bbfe5cc5259fb3c31ed8236808]
reverse link Articulos to ClienteRegistrado--><path codeLine="72" d="M87,107.2931 C87,133.2531 87,166.4231 87,191.3331 " fill="none" id="Articulos-backto-ClienteRegistrado" style="stroke:#689D6A;stroke-width:1.0;"/><polygon fill="#689D6A" points="87,102.1931,83,111.1931,87,107.1931,91,111.1931,87,102.1931" style="stroke:#689D6A;stroke-width:1.0;"/><text fill="#EBDBB2" font-family="Iosevka Term" font-size="13" lengthAdjust="spacing" textLength="49" x="88" y="145.02">compra</text><text fill="#EBDBB2" font-family="Iosevka Term" font-size="13" lengthAdjust="spacing" textLength="23" x="62.0953" y="121.7134">0..*</text><text fill="#EBDBB2" font-family="Iosevka Term" font-size="13" lengthAdjust="spacing" textLength="23" x="61.9516" y="180.4987">0..*</text><!--MD5=[607304eaf9907d01eda517250dfe001b]
@startuml
title Caso Cinema

skinparam Nodesep 100

!include plantuml-config.txt

class Multiplex {
        - direccion : String
}

class Salas {
        - ocupacion : int
}

class Butacas {
        - fila : int
        - columna : int
}

class Reserva
class ReservaInternet
class ReservaTelefono

enum TipoButaca {
        General
        Preferencial
        Cinebar
        Fumador
}

class Peliculas {
        - director : String
        - duracion
        - idioma : String
        - resumen : String
}

class Horario {
        - fecha : Date
        - hora
}

class ClienteRegistrado {
        - cuentaBancaria : String
        - descuento : float
}

class Articulos {
        - precio : float
        - nombre : String
}

class Clientes

Multiplex "1" *-l- "1..*" Salas : contienen

Salas "1" *-l- "1..*" Butacas : tienen
Peliculas "1..*" <- - "1..*" Salas : proyectan
(Salas,Peliculas) .. Horario

Butacas "0..*" -l> "1..*" TipoButaca

Reserva "1..*" -l> "1" ClienteRegistrado : realiza
Reserva "1..*" <- - "1..5" Butacas : tiene

ReservaInternet - -|> Reserva
ReservaTelefono - -|> Reserva

ClienteRegistrado - -|> Clientes
Clientes "1" <- - "1..*" Butacas : compra

Articulos "0..*" <- - "0..*" ClienteRegistrado : compra
@enduml

@startuml
title Caso Cinema

skinparam Nodesep 100

skinparam groupInheritance 2

skinparam Default {
        FontName Iosevka Term
        FontColor #ebdbb2
}

skinparam BackgroundColor #1d2021
skinparam Shadowing false
skinparam RoundCorner 15

skinparam Class {
        BackgroundColor #282828
        BorderColor #504945
        ArrowColor #689d6a
}

skinparam Stereotype {
        CBackgroundColor #b8bb26
        CBorderColor #b8bb26
        EBackgroundColor #fe8019
        EBorderColor #fe8019
        ABackgroundColor #83a598
        ABorderColor #83a598
}

skinparam Icon {
        PrivateColor #cc241d
        PrivateBackgroundColor #cc241d
        ProtectedColor #d79921
        ProtectedBackgroundColor #d79921
}

class Multiplex {
        - direccion : String
}

class Salas {
        - ocupacion : int
}

class Butacas {
        - fila : int
        - columna : int
}

class Reserva
class ReservaInternet
class ReservaTelefono

enum TipoButaca {
        General
        Preferencial
        Cinebar
        Fumador
}

class Peliculas {
        - director : String
        - duracion
        - idioma : String
        - resumen : String
}

class Horario {
        - fecha : Date
        - hora
}

class ClienteRegistrado {
        - cuentaBancaria : String
        - descuento : float
}

class Articulos {
        - precio : float
        - nombre : String
}

class Clientes

Multiplex "1" *-l- "1..*" Salas : contienen

Salas "1" *-l- "1..*" Butacas : tienen
Peliculas "1..*" <- - "1..*" Salas : proyectan
(Salas,Peliculas) .. Horario

Butacas "0..*" -l> "1..*" TipoButaca

Reserva "1..*" -l> "1" ClienteRegistrado : realiza
Reserva "1..*" <- - "1..5" Butacas : tiene

ReservaInternet - -|> Reserva
ReservaTelefono - -|> Reserva

ClienteRegistrado - -|> Clientes
Clientes "1" <- - "1..*" Butacas : compra

Articulos "0..*" <- - "0..*" ClienteRegistrado : compra
@enduml

PlantUML version 1.2021.16(Wed Dec 08 18:25:22 CET 2021)
(GPL source distribution)
Java Runtime: OpenJDK Runtime Environment
JVM: OpenJDK 64-Bit Server VM
Default Encoding: UTF-8
Language: en
Country: US
--></g></svg>