<?xml version="1.0" encoding="UTF-8" standalone="no"?><svg xmlns="http://www.w3.org/2000/svg" xmlns:xlink="http://www.w3.org/1999/xlink" contentScriptType="application/ecmascript" contentStyleType="text/css" height="681px" preserveAspectRatio="none" style="width:675px;height:681px;background:#1D2021;" version="1.1" viewBox="0 0 675 681" width="675px" zoomAndPan="magnify"><defs/><g><text fill="#EBDBB2" font-family="Iosevka Term" font-size="18" lengthAdjust="spacing" textLength="86" x="288" y="16.708">El Torneo</text><!--MD5=[a421269c88738b222d0d17110ffab68c]
class Torneo--><rect codeLine="5" fill="#282828" height="48" id="Torneo" rx="7.5" ry="7.5" style="stroke:#504945;stroke-width:1.5;" width="76" x="299.5" y="27.9531"/><ellipse cx="314.5" cy="43.9531" fill="#B8BB26" rx="11" ry="11" style="stroke:#B8BB26;stroke-width:1.0;"/><path d="M314.7031,50.5938 Q314.2344,50.5938 313.7813,50.5 Q313.3281,50.4063 312.9063,50.1719 Q312.5,49.9375 312.1875,49.5781 Q311.875,49.2188 311.6875,48.7969 Q311.5,48.3594 311.4219,47.8906 Q311.3594,47.4219 311.3594,46.9688 L311.3594,41.4375 Q311.3594,40.9844 311.4219,40.5156 Q311.5,40.0469 311.6875,39.625 Q311.875,39.2031 312.1875,38.8438 Q312.5,38.4688 312.9063,38.25 Q313.3281,38.0156 313.7813,37.9219 Q314.2344,37.8281 314.7031,37.8281 Q315.1406,37.8281 315.5781,37.9063 Q316.0156,37.9688 316.4063,38.1719 Q316.7969,38.3594 317.1094,38.6875 Q317.4375,39 317.625,39.3906 Q317.8281,39.7813 317.9219,40.2188 Q318.0313,40.6406 318.0313,41.0938 Q318.0313,41.0938 318.0313,41.0938 Q318.0313,41.0938 318.0313,41.1094 L316.1406,41.1094 Q316.1406,41.0938 316.1406,41.0938 Q316.1406,41.0938 316.1406,41.0938 Q316.1406,40.7813 316.0469,40.4844 Q315.9688,40.1875 315.7813,39.9375 Q315.5938,39.6875 315.2969,39.5781 Q315,39.4531 314.7031,39.4531 Q314.4844,39.4531 314.25,39.5313 Q314.0156,39.5938 313.8438,39.75 Q313.6719,39.8906 313.5469,40.0938 Q313.4375,40.2969 313.375,40.5313 Q313.3125,40.75 313.2813,40.9844 Q313.25,41.2031 313.25,41.4375 L313.25,46.9688 Q313.25,47.2031 313.2813,47.4375 Q313.3125,47.6719 313.375,47.8906 Q313.4375,48.1094 313.5469,48.3125 Q313.6719,48.5156 313.8438,48.6719 Q314.0156,48.8281 314.25,48.8906 Q314.4844,48.9531 314.7031,48.9531 Q315,48.9531 315.2969,48.8438 Q315.5938,48.7188 315.7813,48.4688 Q315.9688,48.2188 316.0469,47.9219 Q316.1406,47.625 316.1406,47.3281 Q316.1406,47.3281 316.1406,47.3281 Q316.1406,47.3281 316.1406,47.3125 L318.0313,47.3125 Q318.0313,47.3281 318.0313,47.3281 Q318.0313,47.3281 318.0313,47.3281 Q318.0313,47.7656 317.9219,48.2031 Q317.8281,48.6406 317.625,49.0313 Q317.4375,49.4219 317.1094,49.7344 Q316.7969,50.0469 316.4063,50.25 Q316.0156,50.4375 315.5781,50.5156 Q315.1406,50.5938 314.7031,50.5938 Z " fill="#EBDBB2"/><text fill="#EBDBB2" font-family="Iosevka Term" font-size="12" lengthAdjust="spacing" textLength="44" x="328.5" y="48.1074">Torneo</text><line style="stroke:#504945;stroke-width:1.5;" x1="300.5" x2="374.5" y1="59.9531" y2="59.9531"/><line style="stroke:#504945;stroke-width:1.5;" x1="300.5" x2="374.5" y1="67.9531" y2="67.9531"/><!--MD5=[e570de1d41a3b8125e1c820568fd7a6a]
class Jugador--><rect codeLine="7" fill="#282828" height="73.6094" id="Jugador" rx="7.5" ry="7.5" style="stroke:#504945;stroke-width:1.5;" width="181" x="7" y="443.9531"/><ellipse cx="69.25" cy="459.9531" fill="#B8BB26" rx="11" ry="11" style="stroke:#B8BB26;stroke-width:1.0;"/><path d="M69.4531,466.5938 Q68.9844,466.5938 68.5313,466.5 Q68.0781,466.4063 67.6563,466.1719 Q67.25,465.9375 66.9375,465.5781 Q66.625,465.2188 66.4375,464.7969 Q66.25,464.3594 66.1719,463.8906 Q66.1094,463.4219 66.1094,462.9688 L66.1094,457.4375 Q66.1094,456.9844 66.1719,456.5156 Q66.25,456.0469 66.4375,455.625 Q66.625,455.2031 66.9375,454.8438 Q67.25,454.4688 67.6563,454.25 Q68.0781,454.0156 68.5313,453.9219 Q68.9844,453.8281 69.4531,453.8281 Q69.8906,453.8281 70.3281,453.9063 Q70.7656,453.9688 71.1563,454.1719 Q71.5469,454.3594 71.8594,454.6875 Q72.1875,455 72.375,455.3906 Q72.5781,455.7813 72.6719,456.2188 Q72.7813,456.6406 72.7813,457.0938 Q72.7813,457.0938 72.7813,457.0938 Q72.7813,457.0938 72.7813,457.1094 L70.8906,457.1094 Q70.8906,457.0938 70.8906,457.0938 Q70.8906,457.0938 70.8906,457.0938 Q70.8906,456.7813 70.7969,456.4844 Q70.7188,456.1875 70.5313,455.9375 Q70.3438,455.6875 70.0469,455.5781 Q69.75,455.4531 69.4531,455.4531 Q69.2344,455.4531 69,455.5313 Q68.7656,455.5938 68.5938,455.75 Q68.4219,455.8906 68.2969,456.0938 Q68.1875,456.2969 68.125,456.5313 Q68.0625,456.75 68.0313,456.9844 Q68,457.2031 68,457.4375 L68,462.9688 Q68,463.2031 68.0313,463.4375 Q68.0625,463.6719 68.125,463.8906 Q68.1875,464.1094 68.2969,464.3125 Q68.4219,464.5156 68.5938,464.6719 Q68.7656,464.8281 69,464.8906 Q69.2344,464.9531 69.4531,464.9531 Q69.75,464.9531 70.0469,464.8438 Q70.3438,464.7188 70.5313,464.4688 Q70.7188,464.2188 70.7969,463.9219 Q70.8906,463.625 70.8906,463.3281 Q70.8906,463.3281 70.8906,463.3281 Q70.8906,463.3281 70.8906,463.3125 L72.7813,463.3125 Q72.7813,463.3281 72.7813,463.3281 Q72.7813,463.3281 72.7813,463.3281 Q72.7813,463.7656 72.6719,464.2031 Q72.5781,464.6406 72.375,465.0313 Q72.1875,465.4219 71.8594,465.7344 Q71.5469,466.0469 71.1563,466.25 Q70.7656,466.4375 70.3281,466.5156 Q69.8906,466.5938 69.4531,466.5938 Z " fill="#EBDBB2"/><text fill="#EBDBB2" font-family="Iosevka Term" font-size="12" lengthAdjust="spacing" textLength="48" x="89.75" y="464.1074">Jugador</text><line style="stroke:#504945;stroke-width:1.5;" x1="8" x2="187" y1="475.9531" y2="475.9531"/><rect fill="none" height="6" style="stroke:#CC241D;stroke-width:1.0;" width="6" x="15" y="483.9531"/><text fill="#EBDBB2" font-family="Iosevka Term" font-size="11" lengthAdjust="spacing" textLength="155" x="27" y="490.1636">conoceLasReglas : boolean</text><rect fill="none" height="6" style="stroke:#CC241D;stroke-width:1.0;" width="6" x="15" y="496.7578"/><text fill="#EBDBB2" font-family="Iosevka Term" font-size="11" lengthAdjust="spacing" textLength="123" x="27" y="502.9683">numeroFederado : int</text><line style="stroke:#504945;stroke-width:1.5;" x1="8" x2="187" y1="509.5625" y2="509.5625"/><!--MD5=[8f63dadf5c643e74a34e53c8f0a15d23]
class Persona--><rect codeLine="12" fill="#282828" height="60.8047" id="Persona" rx="7.5" ry="7.5" style="stroke:#504945;stroke-width:1.5;" width="170" x="288.5" y="450.4531"/><ellipse cx="343.25" cy="466.4531" fill="#B8BB26" rx="11" ry="11" style="stroke:#B8BB26;stroke-width:1.0;"/><path d="M343.4531,473.0938 Q342.9844,473.0938 342.5313,473 Q342.0781,472.9063 341.6563,472.6719 Q341.25,472.4375 340.9375,472.0781 Q340.625,471.7188 340.4375,471.2969 Q340.25,470.8594 340.1719,470.3906 Q340.1094,469.9219 340.1094,469.4688 L340.1094,463.9375 Q340.1094,463.4844 340.1719,463.0156 Q340.25,462.5469 340.4375,462.125 Q340.625,461.7031 340.9375,461.3438 Q341.25,460.9688 341.6563,460.75 Q342.0781,460.5156 342.5313,460.4219 Q342.9844,460.3281 343.4531,460.3281 Q343.8906,460.3281 344.3281,460.4063 Q344.7656,460.4688 345.1563,460.6719 Q345.5469,460.8594 345.8594,461.1875 Q346.1875,461.5 346.375,461.8906 Q346.5781,462.2813 346.6719,462.7188 Q346.7813,463.1406 346.7813,463.5938 Q346.7813,463.5938 346.7813,463.5938 Q346.7813,463.5938 346.7813,463.6094 L344.8906,463.6094 Q344.8906,463.5938 344.8906,463.5938 Q344.8906,463.5938 344.8906,463.5938 Q344.8906,463.2813 344.7969,462.9844 Q344.7188,462.6875 344.5313,462.4375 Q344.3438,462.1875 344.0469,462.0781 Q343.75,461.9531 343.4531,461.9531 Q343.2344,461.9531 343,462.0313 Q342.7656,462.0938 342.5938,462.25 Q342.4219,462.3906 342.2969,462.5938 Q342.1875,462.7969 342.125,463.0313 Q342.0625,463.25 342.0313,463.4844 Q342,463.7031 342,463.9375 L342,469.4688 Q342,469.7031 342.0313,469.9375 Q342.0625,470.1719 342.125,470.3906 Q342.1875,470.6094 342.2969,470.8125 Q342.4219,471.0156 342.5938,471.1719 Q342.7656,471.3281 343,471.3906 Q343.2344,471.4531 343.4531,471.4531 Q343.75,471.4531 344.0469,471.3438 Q344.3438,471.2188 344.5313,470.9688 Q344.7188,470.7188 344.7969,470.4219 Q344.8906,470.125 344.8906,469.8281 Q344.8906,469.8281 344.8906,469.8281 Q344.8906,469.8281 344.8906,469.8125 L346.7813,469.8125 Q346.7813,469.8281 346.7813,469.8281 Q346.7813,469.8281 346.7813,469.8281 Q346.7813,470.2656 346.6719,470.7031 Q346.5781,471.1406 346.375,471.5313 Q346.1875,471.9219 345.8594,472.2344 Q345.5469,472.5469 345.1563,472.75 Q344.7656,472.9375 344.3281,473.0156 Q343.8906,473.0938 343.4531,473.0938 Z " fill="#EBDBB2"/><text fill="#EBDBB2" font-family="Iosevka Term" font-size="12" lengthAdjust="spacing" textLength="52" x="363.75" y="470.6074">Persona</text><line style="stroke:#504945;stroke-width:1.5;" x1="289.5" x2="457.5" y1="482.4531" y2="482.4531"/><polygon fill="none" points="299.5,488.4531,303.5,492.4531,299.5,496.4531,295.5,492.4531" style="stroke:#D79921;stroke-width:1.0;"/><text fill="#EBDBB2" font-family="Iosevka Term" font-size="11" lengthAdjust="spacing" textLength="144" x="308.5" y="496.6636">nombreCompleto : String</text><line style="stroke:#504945;stroke-width:1.5;" x1="289.5" x2="457.5" y1="503.2578" y2="503.2578"/><!--MD5=[57ede1e6086d5eb2e952d648682e58ef]
class Fecha--><rect codeLine="16" fill="#282828" height="86.4141" id="Fecha" rx="7.5" ry="7.5" style="stroke:#504945;stroke-width:1.5;" width="77" x="591" y="437.9531"/><ellipse cx="609.15" cy="453.9531" fill="#B8BB26" rx="11" ry="11" style="stroke:#B8BB26;stroke-width:1.0;"/><path d="M609.3531,460.5938 Q608.8844,460.5938 608.4313,460.5 Q607.9781,460.4063 607.5563,460.1719 Q607.15,459.9375 606.8375,459.5781 Q606.525,459.2188 606.3375,458.7969 Q606.15,458.3594 606.0719,457.8906 Q606.0094,457.4219 606.0094,456.9688 L606.0094,451.4375 Q606.0094,450.9844 606.0719,450.5156 Q606.15,450.0469 606.3375,449.625 Q606.525,449.2031 606.8375,448.8438 Q607.15,448.4688 607.5563,448.25 Q607.9781,448.0156 608.4313,447.9219 Q608.8844,447.8281 609.3531,447.8281 Q609.7906,447.8281 610.2281,447.9063 Q610.6656,447.9688 611.0563,448.1719 Q611.4469,448.3594 611.7594,448.6875 Q612.0875,449 612.275,449.3906 Q612.4781,449.7813 612.5719,450.2188 Q612.6813,450.6406 612.6813,451.0938 Q612.6813,451.0938 612.6813,451.0938 Q612.6813,451.0938 612.6813,451.1094 L610.7906,451.1094 Q610.7906,451.0938 610.7906,451.0938 Q610.7906,451.0938 610.7906,451.0938 Q610.7906,450.7813 610.6969,450.4844 Q610.6188,450.1875 610.4313,449.9375 Q610.2438,449.6875 609.9469,449.5781 Q609.65,449.4531 609.3531,449.4531 Q609.1344,449.4531 608.9,449.5313 Q608.6656,449.5938 608.4938,449.75 Q608.3219,449.8906 608.1969,450.0938 Q608.0875,450.2969 608.025,450.5313 Q607.9625,450.75 607.9313,450.9844 Q607.9,451.2031 607.9,451.4375 L607.9,456.9688 Q607.9,457.2031 607.9313,457.4375 Q607.9625,457.6719 608.025,457.8906 Q608.0875,458.1094 608.1969,458.3125 Q608.3219,458.5156 608.4938,458.6719 Q608.6656,458.8281 608.9,458.8906 Q609.1344,458.9531 609.3531,458.9531 Q609.65,458.9531 609.9469,458.8438 Q610.2438,458.7188 610.4313,458.4688 Q610.6188,458.2188 610.6969,457.9219 Q610.7906,457.625 610.7906,457.3281 Q610.7906,457.3281 610.7906,457.3281 Q610.7906,457.3281 610.7906,457.3125 L612.6813,457.3125 Q612.6813,457.3281 612.6813,457.3281 Q612.6813,457.3281 612.6813,457.3281 Q612.6813,457.7656 612.5719,458.2031 Q612.4781,458.6406 612.275,459.0313 Q612.0875,459.4219 611.7594,459.7344 Q611.4469,460.0469 611.0563,460.25 Q610.6656,460.4375 610.2281,460.5156 Q609.7906,460.5938 609.3531,460.5938 Z " fill="#EBDBB2"/><text fill="#EBDBB2" font-family="Iosevka Term" font-size="12" lengthAdjust="spacing" textLength="38" x="623.85" y="458.1074">Fecha</text><line style="stroke:#504945;stroke-width:1.5;" x1="592" x2="667" y1="469.9531" y2="469.9531"/><rect fill="none" height="6" style="stroke:#CC241D;stroke-width:1.0;" width="6" x="599" y="477.9531"/><text fill="#EBDBB2" font-family="Iosevka Term" font-size="11" lengthAdjust="spacing" textLength="43" x="611" y="484.1636">dia : int</text><rect fill="none" height="6" style="stroke:#CC241D;stroke-width:1.0;" width="6" x="599" y="490.7578"/><text fill="#EBDBB2" font-family="Iosevka Term" font-size="11" lengthAdjust="spacing" textLength="51" x="611" y="496.9683">mes : int</text><rect fill="none" height="6" style="stroke:#CC241D;stroke-width:1.0;" width="6" x="599" y="503.5625"/><text fill="#EBDBB2" font-family="Iosevka Term" font-size="11" lengthAdjust="spacing" textLength="50" x="611" y="509.7729">anio : int</text><line style="stroke:#504945;stroke-width:1.5;" x1="592" x2="667" y1="516.3672" y2="516.3672"/><!--MD5=[3bed08a2d8dc2299353a97046cc9cc77]
class Nif--><rect codeLine="22" fill="#282828" height="73.6094" id="Nif" rx="7.5" ry="7.5" style="stroke:#504945;stroke-width:1.5;" width="89" x="457" y="600.9531"/><ellipse cx="490.45" cy="616.9531" fill="#B8BB26" rx="11" ry="11" style="stroke:#B8BB26;stroke-width:1.0;"/><path d="M490.6531,623.5938 Q490.1844,623.5938 489.7313,623.5 Q489.2781,623.4063 488.8563,623.1719 Q488.45,622.9375 488.1375,622.5781 Q487.825,622.2188 487.6375,621.7969 Q487.45,621.3594 487.3719,620.8906 Q487.3094,620.4219 487.3094,619.9688 L487.3094,614.4375 Q487.3094,613.9844 487.3719,613.5156 Q487.45,613.0469 487.6375,612.625 Q487.825,612.2031 488.1375,611.8438 Q488.45,611.4688 488.8563,611.25 Q489.2781,611.0156 489.7313,610.9219 Q490.1844,610.8281 490.6531,610.8281 Q491.0906,610.8281 491.5281,610.9063 Q491.9656,610.9688 492.3563,611.1719 Q492.7469,611.3594 493.0594,611.6875 Q493.3875,612 493.575,612.3906 Q493.7781,612.7813 493.8719,613.2188 Q493.9813,613.6406 493.9813,614.0938 Q493.9813,614.0938 493.9813,614.0938 Q493.9813,614.0938 493.9813,614.1094 L492.0906,614.1094 Q492.0906,614.0938 492.0906,614.0938 Q492.0906,614.0938 492.0906,614.0938 Q492.0906,613.7813 491.9969,613.4844 Q491.9188,613.1875 491.7313,612.9375 Q491.5438,612.6875 491.2469,612.5781 Q490.95,612.4531 490.6531,612.4531 Q490.4344,612.4531 490.2,612.5313 Q489.9656,612.5938 489.7938,612.75 Q489.6219,612.8906 489.4969,613.0938 Q489.3875,613.2969 489.325,613.5313 Q489.2625,613.75 489.2313,613.9844 Q489.2,614.2031 489.2,614.4375 L489.2,619.9688 Q489.2,620.2031 489.2313,620.4375 Q489.2625,620.6719 489.325,620.8906 Q489.3875,621.1094 489.4969,621.3125 Q489.6219,621.5156 489.7938,621.6719 Q489.9656,621.8281 490.2,621.8906 Q490.4344,621.9531 490.6531,621.9531 Q490.95,621.9531 491.2469,621.8438 Q491.5438,621.7188 491.7313,621.4688 Q491.9188,621.2188 491.9969,620.9219 Q492.0906,620.625 492.0906,620.3281 Q492.0906,620.3281 492.0906,620.3281 Q492.0906,620.3281 492.0906,620.3125 L493.9813,620.3125 Q493.9813,620.3281 493.9813,620.3281 Q493.9813,620.3281 493.9813,620.3281 Q493.9813,620.7656 493.8719,621.2031 Q493.7781,621.6406 493.575,622.0313 Q493.3875,622.4219 493.0594,622.7344 Q492.7469,623.0469 492.3563,623.25 Q491.9656,623.4375 491.5281,623.5156 Q491.0906,623.5938 490.6531,623.5938 Z " fill="#EBDBB2"/><text fill="#EBDBB2" font-family="Iosevka Term" font-size="12" lengthAdjust="spacing" textLength="16" x="508.55" y="621.1074">Nif</text><line style="stroke:#504945;stroke-width:1.5;" x1="458" x2="545" y1="632.9531" y2="632.9531"/><rect fill="none" height="6" style="stroke:#CC241D;stroke-width:1.0;" width="6" x="465" y="640.9531"/><text fill="#EBDBB2" font-family="Iosevka Term" font-size="11" lengthAdjust="spacing" textLength="43" x="477" y="647.1636">dni : int</text><rect fill="none" height="6" style="stroke:#CC241D;stroke-width:1.0;" width="6" x="465" y="653.7578"/><text fill="#EBDBB2" font-family="Iosevka Term" font-size="11" lengthAdjust="spacing" textLength="63" x="477" y="659.9683">letra : char</text><line style="stroke:#504945;stroke-width:1.5;" x1="458" x2="545" y1="666.5625" y2="666.5625"/><!--MD5=[cb0e43af56e2ee8ab00b5a0441550978]
class Encuentro--><rect codeLine="27" fill="#282828" height="60.8047" id="Encuentro" rx="7.5" ry="7.5" style="stroke:#504945;stroke-width:1.5;" width="182" x="246.5" y="152.9531"/><ellipse cx="300.75" cy="168.9531" fill="#B8BB26" rx="11" ry="11" style="stroke:#B8BB26;stroke-width:1.0;"/><path d="M300.9531,175.5938 Q300.4844,175.5938 300.0313,175.5 Q299.5781,175.4063 299.1563,175.1719 Q298.75,174.9375 298.4375,174.5781 Q298.125,174.2188 297.9375,173.7969 Q297.75,173.3594 297.6719,172.8906 Q297.6094,172.4219 297.6094,171.9688 L297.6094,166.4375 Q297.6094,165.9844 297.6719,165.5156 Q297.75,165.0469 297.9375,164.625 Q298.125,164.2031 298.4375,163.8438 Q298.75,163.4688 299.1563,163.25 Q299.5781,163.0156 300.0313,162.9219 Q300.4844,162.8281 300.9531,162.8281 Q301.3906,162.8281 301.8281,162.9063 Q302.2656,162.9688 302.6563,163.1719 Q303.0469,163.3594 303.3594,163.6875 Q303.6875,164 303.875,164.3906 Q304.0781,164.7813 304.1719,165.2188 Q304.2813,165.6406 304.2813,166.0938 Q304.2813,166.0938 304.2813,166.0938 Q304.2813,166.0938 304.2813,166.1094 L302.3906,166.1094 Q302.3906,166.0938 302.3906,166.0938 Q302.3906,166.0938 302.3906,166.0938 Q302.3906,165.7813 302.2969,165.4844 Q302.2188,165.1875 302.0313,164.9375 Q301.8438,164.6875 301.5469,164.5781 Q301.25,164.4531 300.9531,164.4531 Q300.7344,164.4531 300.5,164.5313 Q300.2656,164.5938 300.0938,164.75 Q299.9219,164.8906 299.7969,165.0938 Q299.6875,165.2969 299.625,165.5313 Q299.5625,165.75 299.5313,165.9844 Q299.5,166.2031 299.5,166.4375 L299.5,171.9688 Q299.5,172.2031 299.5313,172.4375 Q299.5625,172.6719 299.625,172.8906 Q299.6875,173.1094 299.7969,173.3125 Q299.9219,173.5156 300.0938,173.6719 Q300.2656,173.8281 300.5,173.8906 Q300.7344,173.9531 300.9531,173.9531 Q301.25,173.9531 301.5469,173.8438 Q301.8438,173.7188 302.0313,173.4688 Q302.2188,173.2188 302.2969,172.9219 Q302.3906,172.625 302.3906,172.3281 Q302.3906,172.3281 302.3906,172.3281 Q302.3906,172.3281 302.3906,172.3125 L304.2813,172.3125 Q304.2813,172.3281 304.2813,172.3281 Q304.2813,172.3281 304.2813,172.3281 Q304.2813,172.7656 304.1719,173.2031 Q304.0781,173.6406 303.875,174.0313 Q303.6875,174.4219 303.3594,174.7344 Q303.0469,175.0469 302.6563,175.25 Q302.2656,175.4375 301.8281,175.5156 Q301.3906,175.5938 300.9531,175.5938 Z " fill="#EBDBB2"/><text fill="#EBDBB2" font-family="Iosevka Term" font-size="12" lengthAdjust="spacing" textLength="65" x="321.25" y="173.1074">Encuentro</text><line style="stroke:#504945;stroke-width:1.5;" x1="247.5" x2="427.5" y1="184.9531" y2="184.9531"/><line style="stroke:#504945;stroke-width:1.5;" x1="247.5" x2="427.5" y1="192.9531" y2="192.9531"/><rect fill="#CC241D" height="6" style="stroke:#CC241D;stroke-width:1.0;" width="6" x="254.5" y="200.9531"/><text fill="#EBDBB2" font-family="Iosevka Term" font-size="11" lengthAdjust="spacing" textLength="156" x="266.5" y="207.1636">calcularGanador() : Jugador</text><!--MD5=[6e5516c62a234a9b99c7a2b2b5d0b3a8]
class PuntosPartidas--><rect codeLine="31" fill="#282828" height="86.4141" id="PuntosPartidas" rx="7.5" ry="7.5" style="stroke:#504945;stroke-width:1.5;" width="128" x="350.5" y="290.9531"/><ellipse cx="365.5" cy="306.9531" fill="#B8BB26" rx="11" ry="11" style="stroke:#B8BB26;stroke-width:1.0;"/><path d="M365.7031,313.5938 Q365.2344,313.5938 364.7813,313.5 Q364.3281,313.4063 363.9063,313.1719 Q363.5,312.9375 363.1875,312.5781 Q362.875,312.2188 362.6875,311.7969 Q362.5,311.3594 362.4219,310.8906 Q362.3594,310.4219 362.3594,309.9688 L362.3594,304.4375 Q362.3594,303.9844 362.4219,303.5156 Q362.5,303.0469 362.6875,302.625 Q362.875,302.2031 363.1875,301.8438 Q363.5,301.4688 363.9063,301.25 Q364.3281,301.0156 364.7813,300.9219 Q365.2344,300.8281 365.7031,300.8281 Q366.1406,300.8281 366.5781,300.9063 Q367.0156,300.9688 367.4063,301.1719 Q367.7969,301.3594 368.1094,301.6875 Q368.4375,302 368.625,302.3906 Q368.8281,302.7813 368.9219,303.2188 Q369.0313,303.6406 369.0313,304.0938 Q369.0313,304.0938 369.0313,304.0938 Q369.0313,304.0938 369.0313,304.1094 L367.1406,304.1094 Q367.1406,304.0938 367.1406,304.0938 Q367.1406,304.0938 367.1406,304.0938 Q367.1406,303.7813 367.0469,303.4844 Q366.9688,303.1875 366.7813,302.9375 Q366.5938,302.6875 366.2969,302.5781 Q366,302.4531 365.7031,302.4531 Q365.4844,302.4531 365.25,302.5313 Q365.0156,302.5938 364.8438,302.75 Q364.6719,302.8906 364.5469,303.0938 Q364.4375,303.2969 364.375,303.5313 Q364.3125,303.75 364.2813,303.9844 Q364.25,304.2031 364.25,304.4375 L364.25,309.9688 Q364.25,310.2031 364.2813,310.4375 Q364.3125,310.6719 364.375,310.8906 Q364.4375,311.1094 364.5469,311.3125 Q364.6719,311.5156 364.8438,311.6719 Q365.0156,311.8281 365.25,311.8906 Q365.4844,311.9531 365.7031,311.9531 Q366,311.9531 366.2969,311.8438 Q366.5938,311.7188 366.7813,311.4688 Q366.9688,311.2188 367.0469,310.9219 Q367.1406,310.625 367.1406,310.3281 Q367.1406,310.3281 367.1406,310.3281 Q367.1406,310.3281 367.1406,310.3125 L369.0313,310.3125 Q369.0313,310.3281 369.0313,310.3281 Q369.0313,310.3281 369.0313,310.3281 Q369.0313,310.7656 368.9219,311.2031 Q368.8281,311.6406 368.625,312.0313 Q368.4375,312.4219 368.1094,312.7344 Q367.7969,313.0469 367.4063,313.25 Q367.0156,313.4375 366.5781,313.5156 Q366.1406,313.5938 365.7031,313.5938 Z " fill="#EBDBB2"/><text fill="#EBDBB2" font-family="Iosevka Term" font-size="12" lengthAdjust="spacing" textLength="96" x="379.5" y="311.1074">PuntosPartidas</text><line style="stroke:#504945;stroke-width:1.5;" x1="351.5" x2="477.5" y1="322.9531" y2="322.9531"/><rect fill="none" height="6" style="stroke:#CC241D;stroke-width:1.0;" width="6" x="358.5" y="330.9531"/><text fill="#EBDBB2" font-family="Iosevka Term" font-size="11" lengthAdjust="spacing" textLength="51" x="370.5" y="337.1636">set1 : int</text><rect fill="none" height="6" style="stroke:#CC241D;stroke-width:1.0;" width="6" x="358.5" y="343.7578"/><text fill="#EBDBB2" font-family="Iosevka Term" font-size="11" lengthAdjust="spacing" textLength="51" x="370.5" y="349.9683">set2 : int</text><rect fill="none" height="6" style="stroke:#CC241D;stroke-width:1.0;" width="6" x="358.5" y="356.5625"/><text fill="#EBDBB2" font-family="Iosevka Term" font-size="11" lengthAdjust="spacing" textLength="51" x="370.5" y="362.7729">set3 : int</text><line style="stroke:#504945;stroke-width:1.5;" x1="351.5" x2="477.5" y1="369.3672" y2="369.3672"/><ellipse cx="248.5" cy="333.9531" fill="#000000" rx="2" ry="2" style="stroke:none;stroke-width:1.0;"/><!--MD5=[bdb970fcc7a921637ff54196d5e0510e]
link Persona to Fecha--><path codeLine="39" d="M458.74,480.9531 C501.3,480.9531 550.99,480.9531 585.75,480.9531 " fill="none" id="Persona-to-Fecha" style="stroke:#689D6A;stroke-width:1.0;"/><polygon fill="#689D6A" points="590.77,480.9531,581.77,476.9531,585.77,480.9531,581.77,484.9531,590.77,480.9531" style="stroke:#689D6A;stroke-width:1.0;"/><text fill="#EBDBB2" font-family="Iosevka Term" font-size="13" lengthAdjust="spacing" textLength="31" x="509.25" y="474.02">nace</text><text fill="#EBDBB2" font-family="Iosevka Term" font-size="13" lengthAdjust="spacing" textLength="23" x="466.449" y="477.4354">0..*</text><text fill="#EBDBB2" font-family="Iosevka Term" font-size="13" lengthAdjust="spacing" textLength="8" x="574.8917" y="476.6113">1</text><!--MD5=[e231b9914f5342cfec7e51a91f58b936]
link Persona to Nif--><path codeLine="40" d="M396.88,511.8531 C410.59,529.2331 428.34,551.4831 444.5,570.9531 C451.48,579.3631 459.06,588.2731 466.34,596.7431 " fill="none" id="Persona-to-Nif" style="stroke:#689D6A;stroke-width:1.0;"/><polygon fill="#689D6A" points="469.88,600.8631,467.0599,591.4267,466.626,597.0668,460.9859,596.633,469.88,600.8631" style="stroke:#689D6A;stroke-width:1.0;"/><text fill="#EBDBB2" font-family="Iosevka Term" font-size="13" lengthAdjust="spacing" textLength="76" x="445.5" y="567.02">se identifica</text><text fill="#EBDBB2" font-family="Iosevka Term" font-size="13" lengthAdjust="spacing" textLength="8" x="392.5743" y="531.2713">1</text><text fill="#EBDBB2" font-family="Iosevka Term" font-size="13" lengthAdjust="spacing" textLength="8" x="455.3126" y="589.757">1</text><!--MD5=[1db1cc15750a110febb9aef1cafef4f8]
link Fecha to Nif--><!--MD5=[64a7f6e2f2360fa8223459ce3aa8c50d]
link Jugador to Persona--><path codeLine="43" d="M188.06,480.9531 C214.71,480.9531 241.36,480.9531 268.01,480.9531 " fill="none" id="Jugador-to-Persona" style="stroke:#689D6A;stroke-width:1.0;"/><polygon fill="none" points="268.39,473.9531,288.39,480.9531,268.39,487.9531,268.39,473.9531" style="stroke:#689D6A;stroke-width:1.0;"/><!--MD5=[6c0b2cb77c64685415fc25aa8a2c0292]
link Encuentro to apoint14--><path d="M319.7,214.1431 C295.56,254.4331 254.77,322.5031 249.15,331.8731 " fill="none" id="Encuentro-apoint14" style="stroke:#689D6A;stroke-width:1.0;"/><text fill="#EBDBB2" font-family="Iosevka Term" font-size="13" lengthAdjust="spacing" textLength="35" x="302.5" y="257.02">juega</text><text fill="#EBDBB2" font-family="Iosevka Term" font-size="13" lengthAdjust="spacing" textLength="23" x="290.9316" y="233.761">1..*</text><!--MD5=[2b02fba1b09e2bd6cc7bfcec4998e198]
link apoint14 to Jugador--><path d="M247.54,335.8831 C239.34,343.7531 180.59,400.1631 139.09,440.0131 " fill="none" id="apoint14-to-Jugador" style="stroke:#689D6A;stroke-width:1.0;"/><polygon fill="#689D6A" points="135.14,443.8131,144.4087,440.4827,138.7532,440.357,138.8789,434.7016,135.14,443.8131" style="stroke:#689D6A;stroke-width:1.0;"/><text fill="#EBDBB2" font-family="Iosevka Term" font-size="13" lengthAdjust="spacing" textLength="8" x="133.1321" y="432.9751">2</text><!--MD5=[7cc81f8e119aed98743f4fab426ae9bd]
link apoint14 to PuntosPartidas--><path d="M250.77,333.9531 C283.92,333.9531 317.07,333.9531 350.22,333.9531 " fill="none" id="apoint14-PuntosPartidas" style="stroke:#689D6A;stroke-width:1.0;stroke-dasharray:7.0,7.0;"/><!--MD5=[89a3d05660028f3d034cfea154f9a2d3]
link Torneo to Fecha--><path codeLine="48" d="M375.52,72.5531 C406.56,90.1331 449.83,118.4431 478.5,152.9531 C550.16,239.2031 595.52,365.0731 616.26,432.7331 " fill="none" id="Torneo-to-Fecha" style="stroke:#689D6A;stroke-width:1.0;"/><polygon fill="#689D6A" points="617.83,437.9031,619.0269,428.1273,616.3696,433.1211,611.3758,430.4639,617.83,437.9031" style="stroke:#689D6A;stroke-width:1.0;"/><text fill="#EBDBB2" font-family="Iosevka Term" font-size="13" lengthAdjust="spacing" textLength="61" x="547.5" y="257.02">se realiza</text><text fill="#EBDBB2" font-family="Iosevka Term" font-size="13" lengthAdjust="spacing" textLength="23" x="383.4123" y="71.7184">0..*</text><text fill="#EBDBB2" font-family="Iosevka Term" font-size="13" lengthAdjust="spacing" textLength="8" x="607.3326" y="426.8912">1</text><!--MD5=[02f132bf440355c35f29178d73ba4633]
link Torneo to Encuentro--><path codeLine="49" d="M337.5,76.1031 C337.5,95.9931 337.5,124.9531 337.5,147.6331 " fill="none" id="Torneo-to-Encuentro" style="stroke:#689D6A;stroke-width:1.0;"/><polygon fill="#689D6A" points="337.5,152.6631,341.5,143.6631,337.5,147.6631,333.5,143.6631,337.5,152.6631" style="stroke:#689D6A;stroke-width:1.0;"/><text fill="#EBDBB2" font-family="Iosevka Term" font-size="13" lengthAdjust="spacing" textLength="47" x="338.5" y="119.02">celebra</text><text fill="#EBDBB2" font-family="Iosevka Term" font-size="13" lengthAdjust="spacing" textLength="8" x="328.525" y="95.9009">1</text><text fill="#EBDBB2" font-family="Iosevka Term" font-size="13" lengthAdjust="spacing" textLength="23" x="312.1281" y="141.8665">1..*</text><!--MD5=[48a4273409a7efaae8a4e9f169ffe396]
link Torneo to Jugador--><path codeLine="50" d="M299.48,70.8931 C267.57,87.8031 223.06,116.0531 196.5,152.9531 C132.41,241.9831 109.25,373.0231 101.34,438.9231 " fill="none" id="Torneo-to-Jugador" style="stroke:#689D6A;stroke-width:1.0;"/><polygon fill="#689D6A" points="100.75,443.9431,105.7756,435.473,101.335,438.9775,97.8305,434.5369,100.75,443.9431" style="stroke:#689D6A;stroke-width:1.0;"/><text fill="#EBDBB2" font-family="Iosevka Term" font-size="13" lengthAdjust="spacing" textLength="32" x="149.5" y="257.02">gana</text><text fill="#EBDBB2" font-family="Iosevka Term" font-size="13" lengthAdjust="spacing" textLength="23" x="268.5878" y="69.7939">0..*</text><text fill="#EBDBB2" font-family="Iosevka Term" font-size="13" lengthAdjust="spacing" textLength="8" x="92.6117" y="432.8517">1</text><!--MD5=[f272b63b1216d8d9ecfa988f9c99c134]
@startuml
title El Torneo

!include plantuml-config.txt

class Torneo

class Jugador {
        - conoceLasReglas : boolean
        - numeroFederado : int
}

class Persona {
        # nombreCompleto : String
}

class Fecha {
        - dia : int
        - mes : int
        - anio : int
}

class Nif {
        - dni : int
        - letra : char
}

class Encuentro {
        - calcularGanador() : Jugador
}

class PuntosPartidas {
        - set1 : int
        - set2 : int
        - set3 : int
}

skinparam Nodesep 100

Persona "0..*" -> "1" Fecha : nace
Persona "1" -> "1" Nif : se identifica
Fecha -[hidden]d- Nif

Jugador -|> Persona

Encuentro "1..*" - -> "2" Jugador : juega
(Encuentro, Jugador) .. PuntosPartidas

Torneo "0..*" - -> "1" Fecha : se realiza
Torneo "1" - -> "1..*" Encuentro : celebra
Torneo "0..*" - -> "1" Jugador : gana
@enduml

@startuml
title El Torneo

skinparam groupInheritance 2

skinparam Default {
        FontName Iosevka Term
        FontColor #ebdbb2
}

skinparam BackgroundColor #1d2021
skinparam Shadowing false
skinparam RoundCorner 15

skinparam Class {
        BackgroundColor #282828
        BorderColor #504945
        ArrowColor #689d6a
}

skinparam Stereotype {
        CBackgroundColor #b8bb26
        CBorderColor #b8bb26
        EBackgroundColor #fe8019
        EBorderColor #fe8019
        ABackgroundColor #83a598
        ABorderColor #83a598
}

skinparam Icon {
        PrivateColor #cc241d
        PrivateBackgroundColor #cc241d
        ProtectedColor #d79921
        ProtectedBackgroundColor #d79921
}

class Torneo

class Jugador {
        - conoceLasReglas : boolean
        - numeroFederado : int
}

class Persona {
        # nombreCompleto : String
}

class Fecha {
        - dia : int
        - mes : int
        - anio : int
}

class Nif {
        - dni : int
        - letra : char
}

class Encuentro {
        - calcularGanador() : Jugador
}

class PuntosPartidas {
        - set1 : int
        - set2 : int
        - set3 : int
}

skinparam Nodesep 100

Persona "0..*" -> "1" Fecha : nace
Persona "1" -> "1" Nif : se identifica
Fecha -[hidden]d- Nif

Jugador -|> Persona

Encuentro "1..*" - -> "2" Jugador : juega
(Encuentro, Jugador) .. PuntosPartidas

Torneo "0..*" - -> "1" Fecha : se realiza
Torneo "1" - -> "1..*" Encuentro : celebra
Torneo "0..*" - -> "1" Jugador : gana
@enduml

PlantUML version 1.2021.16(Wed Dec 08 18:25:22 CET 2021)
(GPL source distribution)
Java Runtime: OpenJDK Runtime Environment
JVM: OpenJDK 64-Bit Server VM
Default Encoding: UTF-8
Language: en
Country: US
--></g></svg>