<?xml version="1.0" encoding="UTF-8" standalone="no"?><svg xmlns="http://www.w3.org/2000/svg" xmlns:xlink="http://www.w3.org/1999/xlink" contentScriptType="application/ecmascript" contentStyleType="text/css" height="537px" preserveAspectRatio="none" style="width:588px;height:537px;background:#1D2021;" version="1.1" viewBox="0 0 588 537" width="588px" zoomAndPan="magnify"><defs/><g><text fill="#EBDBB2" font-family="Iosevka Term" font-size="18" lengthAdjust="spacing" textLength="121" x="227.25" y="16.708">El Veterinario</text><!--MD5=[20a748d5ee336a9a91751b0a3d4f0beb]
class Cliente--><rect codeLine="5" fill="#282828" height="112.0234" id="Cliente" rx="7.5" ry="7.5" style="stroke:#504945;stroke-width:1.5;" width="206" x="61" y="27.9531"/><ellipse cx="138.25" cy="43.9531" fill="#B8BB26" rx="11" ry="11" style="stroke:#B8BB26;stroke-width:1.0;"/><path d="M138.4531,50.5938 Q137.9844,50.5938 137.5313,50.5 Q137.0781,50.4063 136.6563,50.1719 Q136.25,49.9375 135.9375,49.5781 Q135.625,49.2188 135.4375,48.7969 Q135.25,48.3594 135.1719,47.8906 Q135.1094,47.4219 135.1094,46.9688 L135.1094,41.4375 Q135.1094,40.9844 135.1719,40.5156 Q135.25,40.0469 135.4375,39.625 Q135.625,39.2031 135.9375,38.8438 Q136.25,38.4688 136.6563,38.25 Q137.0781,38.0156 137.5313,37.9219 Q137.9844,37.8281 138.4531,37.8281 Q138.8906,37.8281 139.3281,37.9063 Q139.7656,37.9688 140.1563,38.1719 Q140.5469,38.3594 140.8594,38.6875 Q141.1875,39 141.375,39.3906 Q141.5781,39.7813 141.6719,40.2188 Q141.7813,40.6406 141.7813,41.0938 Q141.7813,41.0938 141.7813,41.0938 Q141.7813,41.0938 141.7813,41.1094 L139.8906,41.1094 Q139.8906,41.0938 139.8906,41.0938 Q139.8906,41.0938 139.8906,41.0938 Q139.8906,40.7813 139.7969,40.4844 Q139.7188,40.1875 139.5313,39.9375 Q139.3438,39.6875 139.0469,39.5781 Q138.75,39.4531 138.4531,39.4531 Q138.2344,39.4531 138,39.5313 Q137.7656,39.5938 137.5938,39.75 Q137.4219,39.8906 137.2969,40.0938 Q137.1875,40.2969 137.125,40.5313 Q137.0625,40.75 137.0313,40.9844 Q137,41.2031 137,41.4375 L137,46.9688 Q137,47.2031 137.0313,47.4375 Q137.0625,47.6719 137.125,47.8906 Q137.1875,48.1094 137.2969,48.3125 Q137.4219,48.5156 137.5938,48.6719 Q137.7656,48.8281 138,48.8906 Q138.2344,48.9531 138.4531,48.9531 Q138.75,48.9531 139.0469,48.8438 Q139.3438,48.7188 139.5313,48.4688 Q139.7188,48.2188 139.7969,47.9219 Q139.8906,47.625 139.8906,47.3281 Q139.8906,47.3281 139.8906,47.3281 Q139.8906,47.3281 139.8906,47.3125 L141.7813,47.3125 Q141.7813,47.3281 141.7813,47.3281 Q141.7813,47.3281 141.7813,47.3281 Q141.7813,47.7656 141.6719,48.2031 Q141.5781,48.6406 141.375,49.0313 Q141.1875,49.4219 140.8594,49.7344 Q140.5469,50.0469 140.1563,50.25 Q139.7656,50.4375 139.3281,50.5156 Q138.8906,50.5938 138.4531,50.5938 Z " fill="#EBDBB2"/><text fill="#EBDBB2" font-family="Iosevka Term" font-size="12" lengthAdjust="spacing" textLength="43" x="158.75" y="48.1074">Cliente</text><line style="stroke:#504945;stroke-width:1.5;" x1="62" x2="266" y1="59.9531" y2="59.9531"/><rect fill="none" height="6" style="stroke:#CC241D;stroke-width:1.0;" width="6" x="69" y="67.9531"/><text fill="#EBDBB2" font-family="Iosevka Term" font-size="11" lengthAdjust="spacing" textLength="63" x="81" y="74.1636">codigo : int</text><rect fill="none" height="6" style="stroke:#CC241D;stroke-width:1.0;" width="6" x="69" y="80.7578"/><text fill="#EBDBB2" font-family="Iosevka Term" font-size="11" lengthAdjust="spacing" textLength="97" x="81" y="86.9683">apellido1 : String</text><rect fill="none" height="6" style="stroke:#CC241D;stroke-width:1.0;" width="6" x="69" y="93.5625"/><text fill="#EBDBB2" font-family="Iosevka Term" font-size="11" lengthAdjust="spacing" textLength="180" x="81" y="99.7729">numeroCuentaBancaria : String</text><rect fill="none" height="6" style="stroke:#CC241D;stroke-width:1.0;" width="6" x="69" y="106.3672"/><text fill="#EBDBB2" font-family="Iosevka Term" font-size="11" lengthAdjust="spacing" textLength="97" x="81" y="112.5776">direccion : String</text><rect fill="none" height="6" style="stroke:#CC241D;stroke-width:1.0;" width="6" x="69" y="119.1719"/><text fill="#EBDBB2" font-family="Iosevka Term" font-size="11" lengthAdjust="spacing" textLength="92" x="81" y="125.3823">telefono : String</text><line style="stroke:#504945;stroke-width:1.5;" x1="62" x2="266" y1="131.9766" y2="131.9766"/><!--MD5=[8f63dadf5c643e74a34e53c8f0a15d23]
class Persona--><rect codeLine="13" fill="#282828" height="73.6094" id="Persona" rx="7.5" ry="7.5" style="stroke:#504945;stroke-width:1.5;" width="116" x="410" y="46.9531"/><ellipse cx="439.4" cy="62.9531" fill="#B8BB26" rx="11" ry="11" style="stroke:#B8BB26;stroke-width:1.0;"/><path d="M439.6031,69.5938 Q439.1344,69.5938 438.6813,69.5 Q438.2281,69.4063 437.8063,69.1719 Q437.4,68.9375 437.0875,68.5781 Q436.775,68.2188 436.5875,67.7969 Q436.4,67.3594 436.3219,66.8906 Q436.2594,66.4219 436.2594,65.9688 L436.2594,60.4375 Q436.2594,59.9844 436.3219,59.5156 Q436.4,59.0469 436.5875,58.625 Q436.775,58.2031 437.0875,57.8438 Q437.4,57.4688 437.8063,57.25 Q438.2281,57.0156 438.6813,56.9219 Q439.1344,56.8281 439.6031,56.8281 Q440.0406,56.8281 440.4781,56.9063 Q440.9156,56.9688 441.3063,57.1719 Q441.6969,57.3594 442.0094,57.6875 Q442.3375,58 442.525,58.3906 Q442.7281,58.7813 442.8219,59.2188 Q442.9313,59.6406 442.9313,60.0938 Q442.9313,60.0938 442.9313,60.0938 Q442.9313,60.0938 442.9313,60.1094 L441.0406,60.1094 Q441.0406,60.0938 441.0406,60.0938 Q441.0406,60.0938 441.0406,60.0938 Q441.0406,59.7813 440.9469,59.4844 Q440.8688,59.1875 440.6813,58.9375 Q440.4938,58.6875 440.1969,58.5781 Q439.9,58.4531 439.6031,58.4531 Q439.3844,58.4531 439.15,58.5313 Q438.9156,58.5938 438.7438,58.75 Q438.5719,58.8906 438.4469,59.0938 Q438.3375,59.2969 438.275,59.5313 Q438.2125,59.75 438.1813,59.9844 Q438.15,60.2031 438.15,60.4375 L438.15,65.9688 Q438.15,66.2031 438.1813,66.4375 Q438.2125,66.6719 438.275,66.8906 Q438.3375,67.1094 438.4469,67.3125 Q438.5719,67.5156 438.7438,67.6719 Q438.9156,67.8281 439.15,67.8906 Q439.3844,67.9531 439.6031,67.9531 Q439.9,67.9531 440.1969,67.8438 Q440.4938,67.7188 440.6813,67.4688 Q440.8688,67.2188 440.9469,66.9219 Q441.0406,66.625 441.0406,66.3281 Q441.0406,66.3281 441.0406,66.3281 Q441.0406,66.3281 441.0406,66.3125 L442.9313,66.3125 Q442.9313,66.3281 442.9313,66.3281 Q442.9313,66.3281 442.9313,66.3281 Q442.9313,66.7656 442.8219,67.2031 Q442.7281,67.6406 442.525,68.0313 Q442.3375,68.4219 442.0094,68.7344 Q441.6969,69.0469 441.3063,69.25 Q440.9156,69.4375 440.4781,69.5156 Q440.0406,69.5938 439.6031,69.5938 Z " fill="#EBDBB2"/><text fill="#EBDBB2" font-family="Iosevka Term" font-size="12" lengthAdjust="spacing" textLength="52" x="456.6" y="67.1074">Persona</text><line style="stroke:#504945;stroke-width:1.5;" x1="411" x2="525" y1="78.9531" y2="78.9531"/><rect fill="none" height="6" style="stroke:#CC241D;stroke-width:1.0;" width="6" x="418" y="86.9531"/><text fill="#EBDBB2" font-family="Iosevka Term" font-size="11" lengthAdjust="spacing" textLength="90" x="430" y="93.1636">nombre : String</text><rect fill="none" height="6" style="stroke:#CC241D;stroke-width:1.0;" width="6" x="418" y="99.7578"/><text fill="#EBDBB2" font-family="Iosevka Term" font-size="11" lengthAdjust="spacing" textLength="63" x="430" y="105.9683">dni : String</text><line style="stroke:#504945;stroke-width:1.5;" x1="411" x2="525" y1="112.5625" y2="112.5625"/><!--MD5=[e58b328d98718587d2cf25b4c2010115]
class Paciente--><rect codeLine="18" fill="#282828" height="176.0469" id="Paciente" rx="7.5" ry="7.5" style="stroke:#504945;stroke-width:1.5;" width="314" x="7" y="216.9531"/><ellipse cx="132.25" cy="232.9531" fill="#B8BB26" rx="11" ry="11" style="stroke:#B8BB26;stroke-width:1.0;"/><path d="M132.4531,239.5938 Q131.9844,239.5938 131.5313,239.5 Q131.0781,239.4063 130.6563,239.1719 Q130.25,238.9375 129.9375,238.5781 Q129.625,238.2188 129.4375,237.7969 Q129.25,237.3594 129.1719,236.8906 Q129.1094,236.4219 129.1094,235.9688 L129.1094,230.4375 Q129.1094,229.9844 129.1719,229.5156 Q129.25,229.0469 129.4375,228.625 Q129.625,228.2031 129.9375,227.8438 Q130.25,227.4688 130.6563,227.25 Q131.0781,227.0156 131.5313,226.9219 Q131.9844,226.8281 132.4531,226.8281 Q132.8906,226.8281 133.3281,226.9063 Q133.7656,226.9688 134.1563,227.1719 Q134.5469,227.3594 134.8594,227.6875 Q135.1875,228 135.375,228.3906 Q135.5781,228.7813 135.6719,229.2188 Q135.7813,229.6406 135.7813,230.0938 Q135.7813,230.0938 135.7813,230.0938 Q135.7813,230.0938 135.7813,230.1094 L133.8906,230.1094 Q133.8906,230.0938 133.8906,230.0938 Q133.8906,230.0938 133.8906,230.0938 Q133.8906,229.7813 133.7969,229.4844 Q133.7188,229.1875 133.5313,228.9375 Q133.3438,228.6875 133.0469,228.5781 Q132.75,228.4531 132.4531,228.4531 Q132.2344,228.4531 132,228.5313 Q131.7656,228.5938 131.5938,228.75 Q131.4219,228.8906 131.2969,229.0938 Q131.1875,229.2969 131.125,229.5313 Q131.0625,229.75 131.0313,229.9844 Q131,230.2031 131,230.4375 L131,235.9688 Q131,236.2031 131.0313,236.4375 Q131.0625,236.6719 131.125,236.8906 Q131.1875,237.1094 131.2969,237.3125 Q131.4219,237.5156 131.5938,237.6719 Q131.7656,237.8281 132,237.8906 Q132.2344,237.9531 132.4531,237.9531 Q132.75,237.9531 133.0469,237.8438 Q133.3438,237.7188 133.5313,237.4688 Q133.7188,237.2188 133.7969,236.9219 Q133.8906,236.625 133.8906,236.3281 Q133.8906,236.3281 133.8906,236.3281 Q133.8906,236.3281 133.8906,236.3125 L135.7813,236.3125 Q135.7813,236.3281 135.7813,236.3281 Q135.7813,236.3281 135.7813,236.3281 Q135.7813,236.7656 135.6719,237.2031 Q135.5781,237.6406 135.375,238.0313 Q135.1875,238.4219 134.8594,238.7344 Q134.5469,239.0469 134.1563,239.25 Q133.7656,239.4375 133.3281,239.5156 Q132.8906,239.5938 132.4531,239.5938 Z " fill="#EBDBB2"/><text fill="#EBDBB2" font-family="Iosevka Term" font-size="12" lengthAdjust="spacing" textLength="55" x="152.75" y="237.1074">Paciente</text><line style="stroke:#504945;stroke-width:1.5;" x1="8" x2="320" y1="248.9531" y2="248.9531"/><rect fill="none" height="6" style="stroke:#CC241D;stroke-width:1.0;" width="6" x="15" y="256.9531"/><text fill="#EBDBB2" font-family="Iosevka Term" font-size="11" lengthAdjust="spacing" textLength="63" x="27" y="263.1636">codigo : int</text><rect fill="none" height="6" style="stroke:#CC241D;stroke-width:1.0;" width="6" x="15" y="269.7578"/><text fill="#EBDBB2" font-family="Iosevka Term" font-size="11" lengthAdjust="spacing" textLength="73" x="27" y="275.9683">alias : String</text><rect fill="none" height="6" style="stroke:#CC241D;stroke-width:1.0;" width="6" x="15" y="282.5625"/><text fill="#EBDBB2" font-family="Iosevka Term" font-size="11" lengthAdjust="spacing" textLength="90" x="27" y="288.7729">especie : String</text><rect fill="none" height="6" style="stroke:#CC241D;stroke-width:1.0;" width="6" x="15" y="295.3672"/><text fill="#EBDBB2" font-family="Iosevka Term" font-size="11" lengthAdjust="spacing" textLength="70" x="27" y="301.5776">raza : String</text><rect fill="none" height="6" style="stroke:#CC241D;stroke-width:1.0;" width="6" x="15" y="308.1719"/><text fill="#EBDBB2" font-family="Iosevka Term" font-size="11" lengthAdjust="spacing" textLength="98" x="27" y="314.3823">colorPelo : String</text><rect fill="none" height="6" style="stroke:#CC241D;stroke-width:1.0;" width="6" x="15" y="320.9766"/><text fill="#EBDBB2" font-family="Iosevka Term" font-size="11" lengthAdjust="spacing" textLength="132" x="27" y="327.187">fechaNacimiento : Date</text><rect fill="none" height="6" style="stroke:#CC241D;stroke-width:1.0;" width="6" x="15" y="333.7813"/><text fill="#EBDBB2" font-family="Iosevka Term" font-size="11" lengthAdjust="spacing" textLength="193" x="27" y="339.9917">pesoMedioUltimas10Visitas : float</text><rect fill="none" height="6" style="stroke:#CC241D;stroke-width:1.0;" width="6" x="15" y="346.5859"/><text fill="#EBDBB2" font-family="Iosevka Term" font-size="11" lengthAdjust="spacing" textLength="99" x="27" y="352.7964">pesoActual : float</text><line style="stroke:#504945;stroke-width:1.5;" x1="8" x2="320" y1="359.3906" y2="359.3906"/><rect fill="#CC241D" height="6" style="stroke:#CC241D;stroke-width:1.0;" width="6" x="15" y="367.3906"/><text fill="#EBDBB2" font-family="Iosevka Term" font-size="11" lengthAdjust="spacing" textLength="288" x="27" y="373.6011">aniadirVacuna(CalendarioVacunacion calVac) : void</text><rect fill="#CC241D" height="6" style="stroke:#CC241D;stroke-width:1.0;" width="6" x="15" y="380.1953"/><text fill="#EBDBB2" font-family="Iosevka Term" font-size="11" lengthAdjust="spacing" textLength="257" x="27" y="386.4058">aniadirVacuna(HistorialMedico histMed) : void</text><!--MD5=[cb39e74f8d21857537f6556936b579bd]
class Enfermedad--><rect codeLine="31" fill="#282828" height="60.8047" id="Enfermedad" rx="7.5" ry="7.5" style="stroke:#504945;stroke-width:1.5;" width="116" x="460" y="469.9531"/><ellipse cx="478.6" cy="485.9531" fill="#B8BB26" rx="11" ry="11" style="stroke:#B8BB26;stroke-width:1.0;"/><path d="M478.8031,492.5938 Q478.3344,492.5938 477.8813,492.5 Q477.4281,492.4063 477.0063,492.1719 Q476.6,491.9375 476.2875,491.5781 Q475.975,491.2188 475.7875,490.7969 Q475.6,490.3594 475.5219,489.8906 Q475.4594,489.4219 475.4594,488.9688 L475.4594,483.4375 Q475.4594,482.9844 475.5219,482.5156 Q475.6,482.0469 475.7875,481.625 Q475.975,481.2031 476.2875,480.8438 Q476.6,480.4688 477.0063,480.25 Q477.4281,480.0156 477.8813,479.9219 Q478.3344,479.8281 478.8031,479.8281 Q479.2406,479.8281 479.6781,479.9063 Q480.1156,479.9688 480.5063,480.1719 Q480.8969,480.3594 481.2094,480.6875 Q481.5375,481 481.725,481.3906 Q481.9281,481.7813 482.0219,482.2188 Q482.1313,482.6406 482.1313,483.0938 Q482.1313,483.0938 482.1313,483.0938 Q482.1313,483.0938 482.1313,483.1094 L480.2406,483.1094 Q480.2406,483.0938 480.2406,483.0938 Q480.2406,483.0938 480.2406,483.0938 Q480.2406,482.7813 480.1469,482.4844 Q480.0688,482.1875 479.8813,481.9375 Q479.6938,481.6875 479.3969,481.5781 Q479.1,481.4531 478.8031,481.4531 Q478.5844,481.4531 478.35,481.5313 Q478.1156,481.5938 477.9438,481.75 Q477.7719,481.8906 477.6469,482.0938 Q477.5375,482.2969 477.475,482.5313 Q477.4125,482.75 477.3813,482.9844 Q477.35,483.2031 477.35,483.4375 L477.35,488.9688 Q477.35,489.2031 477.3813,489.4375 Q477.4125,489.6719 477.475,489.8906 Q477.5375,490.1094 477.6469,490.3125 Q477.7719,490.5156 477.9438,490.6719 Q478.1156,490.8281 478.35,490.8906 Q478.5844,490.9531 478.8031,490.9531 Q479.1,490.9531 479.3969,490.8438 Q479.6938,490.7188 479.8813,490.4688 Q480.0688,490.2188 480.1469,489.9219 Q480.2406,489.625 480.2406,489.3281 Q480.2406,489.3281 480.2406,489.3281 Q480.2406,489.3281 480.2406,489.3125 L482.1313,489.3125 Q482.1313,489.3281 482.1313,489.3281 Q482.1313,489.3281 482.1313,489.3281 Q482.1313,489.7656 482.0219,490.2031 Q481.9281,490.6406 481.725,491.0313 Q481.5375,491.4219 481.2094,491.7344 Q480.8969,492.0469 480.5063,492.25 Q480.1156,492.4375 479.6781,492.5156 Q479.2406,492.5938 478.8031,492.5938 Z " fill="#EBDBB2"/><text fill="#EBDBB2" font-family="Iosevka Term" font-size="12" lengthAdjust="spacing" textLength="76" x="493.4" y="490.1074">Enfermedad</text><line style="stroke:#504945;stroke-width:1.5;" x1="461" x2="575" y1="501.9531" y2="501.9531"/><rect fill="none" height="6" style="stroke:#CC241D;stroke-width:1.0;" width="6" x="468" y="509.9531"/><text fill="#EBDBB2" font-family="Iosevka Term" font-size="11" lengthAdjust="spacing" textLength="90" x="480" y="516.1636">nombre : String</text><line style="stroke:#504945;stroke-width:1.5;" x1="461" x2="575" y1="522.7578" y2="522.7578"/><!--MD5=[297f129302de2d76334ceb155fa24614]
class CalendarioVacunacion--><rect codeLine="35" fill="#282828" height="60.8047" id="CalendarioVacunacion" rx="7.5" ry="7.5" style="stroke:#504945;stroke-width:1.5;" width="172" x="154" y="469.9531"/><ellipse cx="169" cy="485.9531" fill="#B8BB26" rx="11" ry="11" style="stroke:#B8BB26;stroke-width:1.0;"/><path d="M169.2031,492.5938 Q168.7344,492.5938 168.2813,492.5 Q167.8281,492.4063 167.4063,492.1719 Q167,491.9375 166.6875,491.5781 Q166.375,491.2188 166.1875,490.7969 Q166,490.3594 165.9219,489.8906 Q165.8594,489.4219 165.8594,488.9688 L165.8594,483.4375 Q165.8594,482.9844 165.9219,482.5156 Q166,482.0469 166.1875,481.625 Q166.375,481.2031 166.6875,480.8438 Q167,480.4688 167.4063,480.25 Q167.8281,480.0156 168.2813,479.9219 Q168.7344,479.8281 169.2031,479.8281 Q169.6406,479.8281 170.0781,479.9063 Q170.5156,479.9688 170.9063,480.1719 Q171.2969,480.3594 171.6094,480.6875 Q171.9375,481 172.125,481.3906 Q172.3281,481.7813 172.4219,482.2188 Q172.5313,482.6406 172.5313,483.0938 Q172.5313,483.0938 172.5313,483.0938 Q172.5313,483.0938 172.5313,483.1094 L170.6406,483.1094 Q170.6406,483.0938 170.6406,483.0938 Q170.6406,483.0938 170.6406,483.0938 Q170.6406,482.7813 170.5469,482.4844 Q170.4688,482.1875 170.2813,481.9375 Q170.0938,481.6875 169.7969,481.5781 Q169.5,481.4531 169.2031,481.4531 Q168.9844,481.4531 168.75,481.5313 Q168.5156,481.5938 168.3438,481.75 Q168.1719,481.8906 168.0469,482.0938 Q167.9375,482.2969 167.875,482.5313 Q167.8125,482.75 167.7813,482.9844 Q167.75,483.2031 167.75,483.4375 L167.75,488.9688 Q167.75,489.2031 167.7813,489.4375 Q167.8125,489.6719 167.875,489.8906 Q167.9375,490.1094 168.0469,490.3125 Q168.1719,490.5156 168.3438,490.6719 Q168.5156,490.8281 168.75,490.8906 Q168.9844,490.9531 169.2031,490.9531 Q169.5,490.9531 169.7969,490.8438 Q170.0938,490.7188 170.2813,490.4688 Q170.4688,490.2188 170.5469,489.9219 Q170.6406,489.625 170.6406,489.3281 Q170.6406,489.3281 170.6406,489.3281 Q170.6406,489.3281 170.6406,489.3125 L172.5313,489.3125 Q172.5313,489.3281 172.5313,489.3281 Q172.5313,489.3281 172.5313,489.3281 Q172.5313,489.7656 172.4219,490.2031 Q172.3281,490.6406 172.125,491.0313 Q171.9375,491.4219 171.6094,491.7344 Q171.2969,492.0469 170.9063,492.25 Q170.5156,492.4375 170.0781,492.5156 Q169.6406,492.5938 169.2031,492.5938 Z " fill="#EBDBB2"/><text fill="#EBDBB2" font-family="Iosevka Term" font-size="12" lengthAdjust="spacing" textLength="140" x="183" y="490.1074">CalendarioVacunacion</text><line style="stroke:#504945;stroke-width:1.5;" x1="155" x2="325" y1="501.9531" y2="501.9531"/><rect fill="none" height="6" style="stroke:#CC241D;stroke-width:1.0;" width="6" x="162" y="509.9531"/><text fill="#EBDBB2" font-family="Iosevka Term" font-size="11" lengthAdjust="spacing" textLength="69" x="174" y="516.1636">fecha : Date</text><line style="stroke:#504945;stroke-width:1.5;" x1="155" x2="325" y1="522.7578" y2="522.7578"/><!--MD5=[2af73865d111106b3d027cfb358c1af6]
class HistorialMedico--><rect codeLine="39" fill="#282828" height="60.8047" id="HistorialMedico" rx="7.5" ry="7.5" style="stroke:#504945;stroke-width:1.5;" width="127" x="454.5" y="274.4531"/><ellipse cx="469.5" cy="290.4531" fill="#B8BB26" rx="11" ry="11" style="stroke:#B8BB26;stroke-width:1.0;"/><path d="M469.7031,297.0938 Q469.2344,297.0938 468.7813,297 Q468.3281,296.9063 467.9063,296.6719 Q467.5,296.4375 467.1875,296.0781 Q466.875,295.7188 466.6875,295.2969 Q466.5,294.8594 466.4219,294.3906 Q466.3594,293.9219 466.3594,293.4688 L466.3594,287.9375 Q466.3594,287.4844 466.4219,287.0156 Q466.5,286.5469 466.6875,286.125 Q466.875,285.7031 467.1875,285.3438 Q467.5,284.9688 467.9063,284.75 Q468.3281,284.5156 468.7813,284.4219 Q469.2344,284.3281 469.7031,284.3281 Q470.1406,284.3281 470.5781,284.4063 Q471.0156,284.4688 471.4063,284.6719 Q471.7969,284.8594 472.1094,285.1875 Q472.4375,285.5 472.625,285.8906 Q472.8281,286.2813 472.9219,286.7188 Q473.0313,287.1406 473.0313,287.5938 Q473.0313,287.5938 473.0313,287.5938 Q473.0313,287.5938 473.0313,287.6094 L471.1406,287.6094 Q471.1406,287.5938 471.1406,287.5938 Q471.1406,287.5938 471.1406,287.5938 Q471.1406,287.2813 471.0469,286.9844 Q470.9688,286.6875 470.7813,286.4375 Q470.5938,286.1875 470.2969,286.0781 Q470,285.9531 469.7031,285.9531 Q469.4844,285.9531 469.25,286.0313 Q469.0156,286.0938 468.8438,286.25 Q468.6719,286.3906 468.5469,286.5938 Q468.4375,286.7969 468.375,287.0313 Q468.3125,287.25 468.2813,287.4844 Q468.25,287.7031 468.25,287.9375 L468.25,293.4688 Q468.25,293.7031 468.2813,293.9375 Q468.3125,294.1719 468.375,294.3906 Q468.4375,294.6094 468.5469,294.8125 Q468.6719,295.0156 468.8438,295.1719 Q469.0156,295.3281 469.25,295.3906 Q469.4844,295.4531 469.7031,295.4531 Q470,295.4531 470.2969,295.3438 Q470.5938,295.2188 470.7813,294.9688 Q470.9688,294.7188 471.0469,294.4219 Q471.1406,294.125 471.1406,293.8281 Q471.1406,293.8281 471.1406,293.8281 Q471.1406,293.8281 471.1406,293.8125 L473.0313,293.8125 Q473.0313,293.8281 473.0313,293.8281 Q473.0313,293.8281 473.0313,293.8281 Q473.0313,294.2656 472.9219,294.7031 Q472.8281,295.1406 472.625,295.5313 Q472.4375,295.9219 472.1094,296.2344 Q471.7969,296.5469 471.4063,296.75 Q471.0156,296.9375 470.5781,297.0156 Q470.1406,297.0938 469.7031,297.0938 Z " fill="#EBDBB2"/><text fill="#EBDBB2" font-family="Iosevka Term" font-size="12" lengthAdjust="spacing" textLength="95" x="483.5" y="294.6074">HistorialMedico</text><line style="stroke:#504945;stroke-width:1.5;" x1="455.5" x2="580.5" y1="306.4531" y2="306.4531"/><rect fill="none" height="6" style="stroke:#CC241D;stroke-width:1.0;" width="6" x="462.5" y="314.4531"/><text fill="#EBDBB2" font-family="Iosevka Term" font-size="11" lengthAdjust="spacing" textLength="69" x="474.5" y="320.6636">fecha : Date</text><line style="stroke:#504945;stroke-width:1.5;" x1="455.5" x2="580.5" y1="327.2578" y2="327.2578"/><!--MD5=[eabdabd188f6d7690841c6887a2aff05]
reverse link Cliente to Persona--><path codeLine="45" d="M280.59,83.9531 C324.75,83.9531 373.14,83.9531 409.69,83.9531 " fill="none" id="Cliente-backto-Persona" style="stroke:#689D6A;stroke-width:1.0;"/><polygon fill="#1D2021" points="267.34,83.9531,273.34,87.9531,279.34,83.9531,273.34,79.9531,267.34,83.9531" style="stroke:#689D6A;stroke-width:1.0;"/><text fill="#EBDBB2" font-family="Iosevka Term" font-size="13" lengthAdjust="spacing" textLength="41" x="318" y="77.02">asocia</text><text fill="#EBDBB2" font-family="Iosevka Term" font-size="13" lengthAdjust="spacing" textLength="23" x="275.0558" y="80.5198">1..*</text><text fill="#EBDBB2" font-family="Iosevka Term" font-size="13" lengthAdjust="spacing" textLength="23" x="379.0545" y="80.2283">1..*</text><!--MD5=[3d98effc2bfad62492b39f35a73eb03f]
reverse link Cliente to Paciente--><path codeLine="46" d="M164,145.4531 C164,167.4831 164,192.8531 164,216.7431 " fill="none" id="Cliente-backto-Paciente" style="stroke:#689D6A;stroke-width:1.0;"/><polygon fill="#689D6A" points="164,140.2131,160,149.2131,164,145.2131,168,149.2131,164,140.2131" style="stroke:#689D6A;stroke-width:1.0;"/><text fill="#EBDBB2" font-family="Iosevka Term" font-size="13" lengthAdjust="spacing" textLength="32" x="165" y="183.02">tiene</text><text fill="#EBDBB2" font-family="Iosevka Term" font-size="13" lengthAdjust="spacing" textLength="8" x="155.5125" y="160.0574">1</text><text fill="#EBDBB2" font-family="Iosevka Term" font-size="13" lengthAdjust="spacing" textLength="23" x="140.0477" y="205.8876">1..*</text><!--MD5=[ec1e8c5c80822045d569c968b5c2bca2]
link Paciente to HistorialMedico--><path codeLine="48" d="M321.07,304.9531 C365.81,304.9531 412.27,304.9531 448.82,304.9531 " fill="none" id="Paciente-to-HistorialMedico" style="stroke:#689D6A;stroke-width:1.0;"/><polygon fill="#689D6A" points="454.14,304.9531,445.14,300.9531,449.14,304.9531,445.14,308.9531,454.14,304.9531" style="stroke:#689D6A;stroke-width:1.0;"/><text fill="#EBDBB2" font-family="Iosevka Term" font-size="13" lengthAdjust="spacing" textLength="32" x="371.75" y="298.02">tiene</text><text fill="#EBDBB2" font-family="Iosevka Term" font-size="13" lengthAdjust="spacing" textLength="8" x="328.8718" y="301.6588">1</text><text fill="#EBDBB2" font-family="Iosevka Term" font-size="13" lengthAdjust="spacing" textLength="23" x="423.3685" y="301.2635">0..*</text><!--MD5=[b6ade73db18e2ad27a4b903c5fc68e1b]
link Paciente to CalendarioVacunacion--><path codeLine="49" d="M198.22,393.0831 C208.21,418.5231 218.56,444.8631 226.46,464.9731 " fill="none" id="Paciente-to-CalendarioVacunacion" style="stroke:#689D6A;stroke-width:1.0;"/><polygon fill="#689D6A" points="228.31,469.6831,228.744,459.8438,226.4826,465.029,221.2974,462.7676,228.31,469.6831" style="stroke:#689D6A;stroke-width:1.0;"/><text fill="#EBDBB2" font-family="Iosevka Term" font-size="13" lengthAdjust="spacing" textLength="32" x="217" y="436.02">tiene</text><text fill="#EBDBB2" font-family="Iosevka Term" font-size="13" lengthAdjust="spacing" textLength="8" x="192.7226" y="413.0729">1</text><text fill="#EBDBB2" font-family="Iosevka Term" font-size="13" lengthAdjust="spacing" textLength="23" x="200.5271" y="458.8907">0..*</text><!--MD5=[aa5ae8218ea490a788e07a7fe2e824a5]
link HistorialMedico to CalendarioVacunacion--><!--MD5=[2598e2d2f482524fc2b85a671299c786]
link HistorialMedico to Enfermedad--><path codeLine="52" d="M518,335.7631 C518,370.5231 518,427.8931 518,464.6531 " fill="none" id="HistorialMedico-to-Enfermedad" style="stroke:#689D6A;stroke-width:1.0;"/><polygon fill="#689D6A" points="518,469.9231,522,460.9231,518,464.9231,514,460.9231,518,469.9231" style="stroke:#689D6A;stroke-width:1.0;"/><text fill="#EBDBB2" font-family="Iosevka Term" font-size="13" lengthAdjust="spacing" textLength="32" x="519" y="436.02">tiene</text><text fill="#EBDBB2" font-family="Iosevka Term" font-size="13" lengthAdjust="spacing" textLength="23" x="492.7359" y="355.4046">0..*</text><text fill="#EBDBB2" font-family="Iosevka Term" font-size="13" lengthAdjust="spacing" textLength="8" x="509.125" y="458.7068">1</text><!--MD5=[936c402027ad2e4a7246bacc88fec879]
link CalendarioVacunacion to Enfermedad--><path codeLine="53" d="M326.06,500.4531 C367.57,500.4531 416.48,500.4531 454.55,500.4531 " fill="none" id="CalendarioVacunacion-to-Enfermedad" style="stroke:#689D6A;stroke-width:1.0;"/><polygon fill="#689D6A" points="459.61,500.4531,450.61,496.4531,454.61,500.4531,450.61,504.4531,459.61,500.4531" style="stroke:#689D6A;stroke-width:1.0;"/><text fill="#EBDBB2" font-family="Iosevka Term" font-size="13" lengthAdjust="spacing" textLength="32" x="377" y="493.52">tiene</text><text fill="#EBDBB2" font-family="Iosevka Term" font-size="13" lengthAdjust="spacing" textLength="23" x="334.1392" y="496.9125">0..*</text><text fill="#EBDBB2" font-family="Iosevka Term" font-size="13" lengthAdjust="spacing" textLength="8" x="444.0062" y="496.626">1</text><!--MD5=[9d6768e9d2415ae4018f9374ae9dc79e]
@startuml
title El Veterinario

!include plantuml-config.txt

class Cliente {
        - codigo : int
        - apellido1 : String
        - numeroCuentaBancaria : String
        - direccion : String
        - telefono : String
}

class Persona {
        - nombre : String
        - dni : String
}

class Paciente {
        - codigo : int
        - alias : String
        - especie : String
        - raza : String
        - colorPelo : String
        - fechaNacimiento : Date
        - pesoMedioUltimas10Visitas : float
        - pesoActual : float
        - aniadirVacuna(CalendarioVacunacion calVac) : void
        - aniadirVacuna(HistorialMedico histMed) : void
}

class Enfermedad {
        - nombre : String
}

class CalendarioVacunacion {
        - fecha : Date
}

class HistorialMedico {
        - fecha : Date
}

skinparam Nodesep 100

Cliente "1..*" o- "1..*" Persona : asocia
Cliente "1" <- - "1..*" Paciente : tiene

Paciente "1" -> "0..*" HistorialMedico : tiene
Paciente "1" -> "0..*" CalendarioVacunacion : tiene
HistorialMedico -[hidden]d- CalendarioVacunacion

Enfermedad "1" <-l- "0..*" HistorialMedico : tiene
Enfermedad "1" <-l- "0..*" CalendarioVacunacion : tiene
@enduml

@startuml
title El Veterinario

skinparam groupInheritance 2

skinparam Default {
        FontName Iosevka Term
        FontColor #ebdbb2
}

skinparam BackgroundColor #1d2021
skinparam Shadowing false
skinparam RoundCorner 15

skinparam Class {
        BackgroundColor #282828
        BorderColor #504945
        ArrowColor #689d6a
}

skinparam Stereotype {
        CBackgroundColor #b8bb26
        CBorderColor #b8bb26
        EBackgroundColor #fe8019
        EBorderColor #fe8019
        ABackgroundColor #83a598
        ABorderColor #83a598
}

skinparam Icon {
        PrivateColor #cc241d
        PrivateBackgroundColor #cc241d
        ProtectedColor #d79921
        ProtectedBackgroundColor #d79921
}

class Cliente {
        - codigo : int
        - apellido1 : String
        - numeroCuentaBancaria : String
        - direccion : String
        - telefono : String
}

class Persona {
        - nombre : String
        - dni : String
}

class Paciente {
        - codigo : int
        - alias : String
        - especie : String
        - raza : String
        - colorPelo : String
        - fechaNacimiento : Date
        - pesoMedioUltimas10Visitas : float
        - pesoActual : float
        - aniadirVacuna(CalendarioVacunacion calVac) : void
        - aniadirVacuna(HistorialMedico histMed) : void
}

class Enfermedad {
        - nombre : String
}

class CalendarioVacunacion {
        - fecha : Date
}

class HistorialMedico {
        - fecha : Date
}

skinparam Nodesep 100

Cliente "1..*" o- "1..*" Persona : asocia
Cliente "1" <- - "1..*" Paciente : tiene

Paciente "1" -> "0..*" HistorialMedico : tiene
Paciente "1" -> "0..*" CalendarioVacunacion : tiene
HistorialMedico -[hidden]d- CalendarioVacunacion

Enfermedad "1" <-l- "0..*" HistorialMedico : tiene
Enfermedad "1" <-l- "0..*" CalendarioVacunacion : tiene
@enduml

PlantUML version 1.2021.16(Wed Dec 08 18:25:22 CET 2021)
(GPL source distribution)
Java Runtime: OpenJDK Runtime Environment
JVM: OpenJDK 64-Bit Server VM
Default Encoding: UTF-8
Language: en
Country: US
--></g></svg>