<?xml version="1.0" encoding="UTF-8" standalone="no"?><svg xmlns="http://www.w3.org/2000/svg" xmlns:xlink="http://www.w3.org/1999/xlink" contentScriptType="application/ecmascript" contentStyleType="text/css" height="272px" preserveAspectRatio="none" style="width:813px;height:272px;background:#1D2021;" version="1.1" viewBox="0 0 813 272" width="813px" zoomAndPan="magnify"><defs/><g><text fill="#EBDBB2" font-family="Iosevka Term" font-size="18" lengthAdjust="spacing" x="341.75" y="16.708">La Asociacion</text><!--MD5=[8f63dadf5c643e74a34e53c8f0a15d23]
class Persona--><rect codeLine="5" fill="#282828" height="73.6094" id="Persona" rx="7.5" ry="7.5" style="stroke:#504945;stroke-width:1.5;" width="170" x="320" y="27.9531"/><ellipse cx="374.75" cy="43.9531" fill="#B8BB26" rx="11" ry="11" style="stroke:#B8BB26;stroke-width:1.0;"/><path d="M374.9531,50.5938 Q374.4844,50.5938 374.0313,50.5 Q373.5781,50.4063 373.1563,50.1719 Q372.75,49.9375 372.4375,49.5781 Q372.125,49.2188 371.9375,48.7969 Q371.75,48.3594 371.6719,47.8906 Q371.6094,47.4219 371.6094,46.9688 L371.6094,41.4375 Q371.6094,40.9844 371.6719,40.5156 Q371.75,40.0469 371.9375,39.625 Q372.125,39.2031 372.4375,38.8438 Q372.75,38.4688 373.1563,38.25 Q373.5781,38.0156 374.0313,37.9219 Q374.4844,37.8281 374.9531,37.8281 Q375.3906,37.8281 375.8281,37.9063 Q376.2656,37.9688 376.6563,38.1719 Q377.0469,38.3594 377.3594,38.6875 Q377.6875,39 377.875,39.3906 Q378.0781,39.7813 378.1719,40.2188 Q378.2813,40.6406 378.2813,41.0938 Q378.2813,41.0938 378.2813,41.0938 Q378.2813,41.0938 378.2813,41.1094 L376.3906,41.1094 Q376.3906,41.0938 376.3906,41.0938 Q376.3906,41.0938 376.3906,41.0938 Q376.3906,40.7813 376.2969,40.4844 Q376.2188,40.1875 376.0313,39.9375 Q375.8438,39.6875 375.5469,39.5781 Q375.25,39.4531 374.9531,39.4531 Q374.7344,39.4531 374.5,39.5313 Q374.2656,39.5938 374.0938,39.75 Q373.9219,39.8906 373.7969,40.0938 Q373.6875,40.2969 373.625,40.5313 Q373.5625,40.75 373.5313,40.9844 Q373.5,41.2031 373.5,41.4375 L373.5,46.9688 Q373.5,47.2031 373.5313,47.4375 Q373.5625,47.6719 373.625,47.8906 Q373.6875,48.1094 373.7969,48.3125 Q373.9219,48.5156 374.0938,48.6719 Q374.2656,48.8281 374.5,48.8906 Q374.7344,48.9531 374.9531,48.9531 Q375.25,48.9531 375.5469,48.8438 Q375.8438,48.7188 376.0313,48.4688 Q376.2188,48.2188 376.2969,47.9219 Q376.3906,47.625 376.3906,47.3281 Q376.3906,47.3281 376.3906,47.3281 Q376.3906,47.3281 376.3906,47.3125 L378.2813,47.3125 Q378.2813,47.3281 378.2813,47.3281 Q378.2813,47.3281 378.2813,47.3281 Q378.2813,47.7656 378.1719,48.2031 Q378.0781,48.6406 377.875,49.0313 Q377.6875,49.4219 377.3594,49.7344 Q377.0469,50.0469 376.6563,50.25 Q376.2656,50.4375 375.8281,50.5156 Q375.3906,50.5938 374.9531,50.5938 Z " fill="#EBDBB2"/><text fill="#EBDBB2" font-family="Iosevka Term" font-size="12" lengthAdjust="spacing" x="395.25" y="48.1074">Persona</text><line style="stroke:#504945;stroke-width:1.5;" x1="321" x2="489" y1="59.9531" y2="59.9531"/><polygon fill="none" points="331,65.9531,335,69.9531,331,73.9531,327,69.9531" style="stroke:#D79921;stroke-width:1.0;"/><text fill="#EBDBB2" font-family="Iosevka Term" font-size="11" lengthAdjust="spacing" x="340" y="74.1636">nombreCompleto : String</text><line style="stroke:#504945;stroke-width:1.5;" x1="321" x2="489" y1="80.7578" y2="80.7578"/><polygon fill="#D79921" points="331,86.7578,335,90.7578,331,94.7578,327,90.7578" style="stroke:#D79921;stroke-width:1.0;"/><text fill="#EBDBB2" font-family="Iosevka Term" font-size="11" lengthAdjust="spacing" x="340" y="94.9683">darAlta() : void</text><!--MD5=[79a4feebc1a980c2e9fa70ad7d4bc6be]
class Socio--><rect codeLine="10" fill="#282828" height="60.8047" id="Socio" rx="7.5" ry="7.5" style="stroke:#504945;stroke-width:1.5;" width="140" x="40" y="191.4531"/><ellipse cx="88.75" cy="207.4531" fill="#B8BB26" rx="11" ry="11" style="stroke:#B8BB26;stroke-width:1.0;"/><path d="M88.9531,214.0938 Q88.4844,214.0938 88.0313,214 Q87.5781,213.9063 87.1563,213.6719 Q86.75,213.4375 86.4375,213.0781 Q86.125,212.7188 85.9375,212.2969 Q85.75,211.8594 85.6719,211.3906 Q85.6094,210.9219 85.6094,210.4688 L85.6094,204.9375 Q85.6094,204.4844 85.6719,204.0156 Q85.75,203.5469 85.9375,203.125 Q86.125,202.7031 86.4375,202.3438 Q86.75,201.9688 87.1563,201.75 Q87.5781,201.5156 88.0313,201.4219 Q88.4844,201.3281 88.9531,201.3281 Q89.3906,201.3281 89.8281,201.4063 Q90.2656,201.4688 90.6563,201.6719 Q91.0469,201.8594 91.3594,202.1875 Q91.6875,202.5 91.875,202.8906 Q92.0781,203.2813 92.1719,203.7188 Q92.2813,204.1406 92.2813,204.5938 Q92.2813,204.5938 92.2813,204.5938 Q92.2813,204.5938 92.2813,204.6094 L90.3906,204.6094 Q90.3906,204.5938 90.3906,204.5938 Q90.3906,204.5938 90.3906,204.5938 Q90.3906,204.2813 90.2969,203.9844 Q90.2188,203.6875 90.0313,203.4375 Q89.8438,203.1875 89.5469,203.0781 Q89.25,202.9531 88.9531,202.9531 Q88.7344,202.9531 88.5,203.0313 Q88.2656,203.0938 88.0938,203.25 Q87.9219,203.3906 87.7969,203.5938 Q87.6875,203.7969 87.625,204.0313 Q87.5625,204.25 87.5313,204.4844 Q87.5,204.7031 87.5,204.9375 L87.5,210.4688 Q87.5,210.7031 87.5313,210.9375 Q87.5625,211.1719 87.625,211.3906 Q87.6875,211.6094 87.7969,211.8125 Q87.9219,212.0156 88.0938,212.1719 Q88.2656,212.3281 88.5,212.3906 Q88.7344,212.4531 88.9531,212.4531 Q89.25,212.4531 89.5469,212.3438 Q89.8438,212.2188 90.0313,211.9688 Q90.2188,211.7188 90.2969,211.4219 Q90.3906,211.125 90.3906,210.8281 Q90.3906,210.8281 90.3906,210.8281 Q90.3906,210.8281 90.3906,210.8125 L92.2813,210.8125 Q92.2813,210.8281 92.2813,210.8281 Q92.2813,210.8281 92.2813,210.8281 Q92.2813,211.2656 92.1719,211.7031 Q92.0781,212.1406 91.875,212.5313 Q91.6875,212.9219 91.3594,213.2344 Q91.0469,213.5469 90.6563,213.75 Q90.2656,213.9375 89.8281,214.0156 Q89.3906,214.0938 88.9531,214.0938 Z " fill="#EBDBB2"/><text fill="#EBDBB2" font-family="Iosevka Term" font-size="12" lengthAdjust="spacing" x="109.25" y="211.6074">Socio</text><line style="stroke:#504945;stroke-width:1.5;" x1="41" x2="179" y1="223.4531" y2="223.4531"/><rect fill="none" height="6" style="stroke:#CC241D;stroke-width:1.0;" width="6" x="48" y="231.4531"/><text fill="#EBDBB2" font-family="Iosevka Term" font-size="11" lengthAdjust="spacing" x="60" y="237.6636">codigoAsociado : int</text><line style="stroke:#504945;stroke-width:1.5;" x1="41" x2="179" y1="244.2578" y2="244.2578"/><!--MD5=[57ede1e6086d5eb2e952d648682e58ef]
class Fecha--><rect codeLine="14" fill="#282828" height="86.4141" id="Fecha" rx="7.5" ry="7.5" style="stroke:#504945;stroke-width:1.5;" width="77" x="414.5" y="178.9531"/><ellipse cx="432.65" cy="194.9531" fill="#B8BB26" rx="11" ry="11" style="stroke:#B8BB26;stroke-width:1.0;"/><path d="M432.8531,201.5938 Q432.3844,201.5938 431.9313,201.5 Q431.4781,201.4063 431.0563,201.1719 Q430.65,200.9375 430.3375,200.5781 Q430.025,200.2188 429.8375,199.7969 Q429.65,199.3594 429.5719,198.8906 Q429.5094,198.4219 429.5094,197.9688 L429.5094,192.4375 Q429.5094,191.9844 429.5719,191.5156 Q429.65,191.0469 429.8375,190.625 Q430.025,190.2031 430.3375,189.8438 Q430.65,189.4688 431.0563,189.25 Q431.4781,189.0156 431.9313,188.9219 Q432.3844,188.8281 432.8531,188.8281 Q433.2906,188.8281 433.7281,188.9063 Q434.1656,188.9688 434.5563,189.1719 Q434.9469,189.3594 435.2594,189.6875 Q435.5875,190 435.775,190.3906 Q435.9781,190.7813 436.0719,191.2188 Q436.1813,191.6406 436.1813,192.0938 Q436.1813,192.0938 436.1813,192.0938 Q436.1813,192.0938 436.1813,192.1094 L434.2906,192.1094 Q434.2906,192.0938 434.2906,192.0938 Q434.2906,192.0938 434.2906,192.0938 Q434.2906,191.7813 434.1969,191.4844 Q434.1188,191.1875 433.9313,190.9375 Q433.7438,190.6875 433.4469,190.5781 Q433.15,190.4531 432.8531,190.4531 Q432.6344,190.4531 432.4,190.5313 Q432.1656,190.5938 431.9938,190.75 Q431.8219,190.8906 431.6969,191.0938 Q431.5875,191.2969 431.525,191.5313 Q431.4625,191.75 431.4313,191.9844 Q431.4,192.2031 431.4,192.4375 L431.4,197.9688 Q431.4,198.2031 431.4313,198.4375 Q431.4625,198.6719 431.525,198.8906 Q431.5875,199.1094 431.6969,199.3125 Q431.8219,199.5156 431.9938,199.6719 Q432.1656,199.8281 432.4,199.8906 Q432.6344,199.9531 432.8531,199.9531 Q433.15,199.9531 433.4469,199.8438 Q433.7438,199.7188 433.9313,199.4688 Q434.1188,199.2188 434.1969,198.9219 Q434.2906,198.625 434.2906,198.3281 Q434.2906,198.3281 434.2906,198.3281 Q434.2906,198.3281 434.2906,198.3125 L436.1813,198.3125 Q436.1813,198.3281 436.1813,198.3281 Q436.1813,198.3281 436.1813,198.3281 Q436.1813,198.7656 436.0719,199.2031 Q435.9781,199.6406 435.775,200.0313 Q435.5875,200.4219 435.2594,200.7344 Q434.9469,201.0469 434.5563,201.25 Q434.1656,201.4375 433.7281,201.5156 Q433.2906,201.5938 432.8531,201.5938 Z " fill="#EBDBB2"/><text fill="#EBDBB2" font-family="Iosevka Term" font-size="12" lengthAdjust="spacing" x="447.35" y="199.1074">Fecha</text><line style="stroke:#504945;stroke-width:1.5;" x1="415.5" x2="490.5" y1="210.9531" y2="210.9531"/><rect fill="none" height="6" style="stroke:#CC241D;stroke-width:1.0;" width="6" x="422.5" y="218.9531"/><text fill="#EBDBB2" font-family="Iosevka Term" font-size="11" lengthAdjust="spacing" x="434.5" y="225.1636">dia : int</text><rect fill="none" height="6" style="stroke:#CC241D;stroke-width:1.0;" width="6" x="422.5" y="231.7578"/><text fill="#EBDBB2" font-family="Iosevka Term" font-size="11" lengthAdjust="spacing" x="434.5" y="237.9683">mes : int</text><rect fill="none" height="6" style="stroke:#CC241D;stroke-width:1.0;" width="6" x="422.5" y="244.5625"/><text fill="#EBDBB2" font-family="Iosevka Term" font-size="11" lengthAdjust="spacing" x="434.5" y="250.7729">anio : int</text><line style="stroke:#504945;stroke-width:1.5;" x1="415.5" x2="490.5" y1="257.3672" y2="257.3672"/><!--MD5=[3bed08a2d8dc2299353a97046cc9cc77]
class Nif--><rect codeLine="20" fill="#282828" height="73.6094" id="Nif" rx="7.5" ry="7.5" style="stroke:#504945;stroke-width:1.5;" width="89" x="717.5" y="27.9531"/><ellipse cx="750.95" cy="43.9531" fill="#B8BB26" rx="11" ry="11" style="stroke:#B8BB26;stroke-width:1.0;"/><path d="M751.1531,50.5938 Q750.6844,50.5938 750.2313,50.5 Q749.7781,50.4063 749.3563,50.1719 Q748.95,49.9375 748.6375,49.5781 Q748.325,49.2188 748.1375,48.7969 Q747.95,48.3594 747.8719,47.8906 Q747.8094,47.4219 747.8094,46.9688 L747.8094,41.4375 Q747.8094,40.9844 747.8719,40.5156 Q747.95,40.0469 748.1375,39.625 Q748.325,39.2031 748.6375,38.8438 Q748.95,38.4688 749.3563,38.25 Q749.7781,38.0156 750.2313,37.9219 Q750.6844,37.8281 751.1531,37.8281 Q751.5906,37.8281 752.0281,37.9063 Q752.4656,37.9688 752.8563,38.1719 Q753.2469,38.3594 753.5594,38.6875 Q753.8875,39 754.075,39.3906 Q754.2781,39.7813 754.3719,40.2188 Q754.4813,40.6406 754.4813,41.0938 Q754.4813,41.0938 754.4813,41.0938 Q754.4813,41.0938 754.4813,41.1094 L752.5906,41.1094 Q752.5906,41.0938 752.5906,41.0938 Q752.5906,41.0938 752.5906,41.0938 Q752.5906,40.7813 752.4969,40.4844 Q752.4188,40.1875 752.2313,39.9375 Q752.0438,39.6875 751.7469,39.5781 Q751.45,39.4531 751.1531,39.4531 Q750.9344,39.4531 750.7,39.5313 Q750.4656,39.5938 750.2938,39.75 Q750.1219,39.8906 749.9969,40.0938 Q749.8875,40.2969 749.825,40.5313 Q749.7625,40.75 749.7313,40.9844 Q749.7,41.2031 749.7,41.4375 L749.7,46.9688 Q749.7,47.2031 749.7313,47.4375 Q749.7625,47.6719 749.825,47.8906 Q749.8875,48.1094 749.9969,48.3125 Q750.1219,48.5156 750.2938,48.6719 Q750.4656,48.8281 750.7,48.8906 Q750.9344,48.9531 751.1531,48.9531 Q751.45,48.9531 751.7469,48.8438 Q752.0438,48.7188 752.2313,48.4688 Q752.4188,48.2188 752.4969,47.9219 Q752.5906,47.625 752.5906,47.3281 Q752.5906,47.3281 752.5906,47.3281 Q752.5906,47.3281 752.5906,47.3125 L754.4813,47.3125 Q754.4813,47.3281 754.4813,47.3281 Q754.4813,47.3281 754.4813,47.3281 Q754.4813,47.7656 754.3719,48.2031 Q754.2781,48.6406 754.075,49.0313 Q753.8875,49.4219 753.5594,49.7344 Q753.2469,50.0469 752.8563,50.25 Q752.4656,50.4375 752.0281,50.5156 Q751.5906,50.5938 751.1531,50.5938 Z " fill="#EBDBB2"/><text fill="#EBDBB2" font-family="Iosevka Term" font-size="12" lengthAdjust="spacing" x="769.05" y="48.1074">Nif</text><line style="stroke:#504945;stroke-width:1.5;" x1="718.5" x2="805.5" y1="59.9531" y2="59.9531"/><rect fill="none" height="6" style="stroke:#CC241D;stroke-width:1.0;" width="6" x="725.5" y="67.9531"/><text fill="#EBDBB2" font-family="Iosevka Term" font-size="11" lengthAdjust="spacing" x="737.5" y="74.1636">dni : int</text><rect fill="none" height="6" style="stroke:#CC241D;stroke-width:1.0;" width="6" x="725.5" y="80.7578"/><text fill="#EBDBB2" font-family="Iosevka Term" font-size="11" lengthAdjust="spacing" x="737.5" y="86.9683">letra : char</text><line style="stroke:#504945;stroke-width:1.5;" x1="718.5" x2="805.5" y1="93.5625" y2="93.5625"/><!--MD5=[9d4c5aec3783677dd1dd778b0366a41d]
class Asociacion--><rect codeLine="25" fill="#282828" height="60.8047" id="Asociacion" rx="7.5" ry="7.5" style="stroke:#504945;stroke-width:1.5;" width="116" x="7" y="34.4531"/><ellipse cx="29.65" cy="50.4531" fill="#B8BB26" rx="11" ry="11" style="stroke:#B8BB26;stroke-width:1.0;"/><path d="M29.8531,57.0938 Q29.3844,57.0938 28.9313,57 Q28.4781,56.9063 28.0563,56.6719 Q27.65,56.4375 27.3375,56.0781 Q27.025,55.7188 26.8375,55.2969 Q26.65,54.8594 26.5719,54.3906 Q26.5094,53.9219 26.5094,53.4688 L26.5094,47.9375 Q26.5094,47.4844 26.5719,47.0156 Q26.65,46.5469 26.8375,46.125 Q27.025,45.7031 27.3375,45.3438 Q27.65,44.9688 28.0563,44.75 Q28.4781,44.5156 28.9313,44.4219 Q29.3844,44.3281 29.8531,44.3281 Q30.2906,44.3281 30.7281,44.4063 Q31.1656,44.4688 31.5563,44.6719 Q31.9469,44.8594 32.2594,45.1875 Q32.5875,45.5 32.775,45.8906 Q32.9781,46.2813 33.0719,46.7188 Q33.1813,47.1406 33.1813,47.5938 Q33.1813,47.5938 33.1813,47.5938 Q33.1813,47.5938 33.1813,47.6094 L31.2906,47.6094 Q31.2906,47.5938 31.2906,47.5938 Q31.2906,47.5938 31.2906,47.5938 Q31.2906,47.2813 31.1969,46.9844 Q31.1188,46.6875 30.9313,46.4375 Q30.7438,46.1875 30.4469,46.0781 Q30.15,45.9531 29.8531,45.9531 Q29.6344,45.9531 29.4,46.0313 Q29.1656,46.0938 28.9938,46.25 Q28.8219,46.3906 28.6969,46.5938 Q28.5875,46.7969 28.525,47.0313 Q28.4625,47.25 28.4313,47.4844 Q28.4,47.7031 28.4,47.9375 L28.4,53.4688 Q28.4,53.7031 28.4313,53.9375 Q28.4625,54.1719 28.525,54.3906 Q28.5875,54.6094 28.6969,54.8125 Q28.8219,55.0156 28.9938,55.1719 Q29.1656,55.3281 29.4,55.3906 Q29.6344,55.4531 29.8531,55.4531 Q30.15,55.4531 30.4469,55.3438 Q30.7438,55.2188 30.9313,54.9688 Q31.1188,54.7188 31.1969,54.4219 Q31.2906,54.125 31.2906,53.8281 Q31.2906,53.8281 31.2906,53.8281 Q31.2906,53.8281 31.2906,53.8125 L33.1813,53.8125 Q33.1813,53.8281 33.1813,53.8281 Q33.1813,53.8281 33.1813,53.8281 Q33.1813,54.2656 33.0719,54.7031 Q32.9781,55.1406 32.775,55.5313 Q32.5875,55.9219 32.2594,56.2344 Q31.9469,56.5469 31.5563,56.75 Q31.1656,56.9375 30.7281,57.0156 Q30.2906,57.0938 29.8531,57.0938 Z " fill="#EBDBB2"/><text fill="#EBDBB2" font-family="Iosevka Term" font-size="12" lengthAdjust="spacing" x="45.35" y="54.6074">Asociacion</text><line style="stroke:#504945;stroke-width:1.5;" x1="8" x2="122" y1="66.4531" y2="66.4531"/><rect fill="none" height="6" style="stroke:#CC241D;stroke-width:1.0;" width="6" x="15" y="74.4531"/><text fill="#EBDBB2" font-family="Iosevka Term" font-size="11" lengthAdjust="spacing" x="27" y="80.6636">nombre : String</text><line style="stroke:#504945;stroke-width:1.5;" x1="8" x2="122" y1="87.2578" y2="87.2578"/><!--MD5=[341af55675001a35418dd0410ada9357]
reverse link Asociacion to Socio--><path codeLine="31" d="M77.25,108.1431 C84.89,134.4731 94.54,167.7231 101.39,191.2831 " fill="none" id="Asociacion-backto-Socio" style="stroke:#689D6A;stroke-width:1.0;"/><polygon fill="#689D6A" points="73.57,95.4731,71.3982,102.3494,76.9102,106.9989,79.082,100.1226,73.57,95.4731" style="stroke:#689D6A;stroke-width:1.0;"/><text fill="#EBDBB2" font-family="Iosevka Term" font-size="13" lengthAdjust="spacing" x="66.5126" y="115.4155">1</text><text fill="#EBDBB2" font-family="Iosevka Term" font-size="13" lengthAdjust="spacing" x="74.2423" y="180.5113">1..*</text><!--MD5=[fa5d5b043823ce701b5c42ea0a174532]
reverse link Persona to Socio--><path codeLine="32" d="M318.36,111.4731 C269.36,137.2231 209.49,168.6831 166.52,191.2531 " fill="none" id="Persona-backto-Socio" style="stroke:#689D6A;stroke-width:1.0;"/><polygon fill="none" points="315.25,105.2031,336.21,102.0931,321.76,117.5931,315.25,105.2031" style="stroke:#689D6A;stroke-width:1.0;"/><!--MD5=[e231b9914f5342cfec7e51a91f58b936]
link Persona to Nif--><path codeLine="33" d="M490.06,64.9531 C559.32,64.9531 654.74,64.9531 712.18,64.9531 " fill="none" id="Persona-to-Nif" style="stroke:#689D6A;stroke-width:1.0;"/><polygon fill="#689D6A" points="717.28,64.9531,708.28,60.9531,712.28,64.9531,708.28,68.9531,717.28,64.9531" style="stroke:#689D6A;stroke-width:1.0;"/><text fill="#EBDBB2" font-family="Iosevka Term" font-size="13" lengthAdjust="spacing" x="565.75" y="58.02">se identifica</text><text fill="#EBDBB2" font-family="Iosevka Term" font-size="13" lengthAdjust="spacing" x="497.9919" y="61.3754">1</text><text fill="#EBDBB2" font-family="Iosevka Term" font-size="13" lengthAdjust="spacing" x="701.5152" y="60.8664">1</text><!--MD5=[4641e953d58abda51b925c545d9f1e2c]
link Socio to Fecha--><path codeLine="34" d="M180.24,221.9531 C248.92,221.9531 351.36,221.9531 409.17,221.9531 " fill="none" id="Socio-to-Fecha" style="stroke:#689D6A;stroke-width:1.0;"/><polygon fill="#689D6A" points="414.28,221.9531,405.28,217.9531,409.28,221.9531,405.28,225.9531,414.28,221.9531" style="stroke:#689D6A;stroke-width:1.0;"/><text fill="#EBDBB2" font-family="Iosevka Term" font-size="13" lengthAdjust="spacing" x="255.75" y="215.02">se da de alta</text><text fill="#EBDBB2" font-family="Iosevka Term" font-size="13" lengthAdjust="spacing" x="188.0308" y="218.3208">0..*</text><text fill="#EBDBB2" font-family="Iosevka Term" font-size="13" lengthAdjust="spacing" x="398.4035" y="217.6113">1</text><!--MD5=[bdb970fcc7a921637ff54196d5e0510e]
link Persona to Fecha--><path codeLine="35" d="M416.25,102.2931 C422.88,123.6831 431.32,150.9531 438.45,173.9631 " fill="none" id="Persona-to-Fecha" style="stroke:#689D6A;stroke-width:1.0;"/><polygon fill="#689D6A" points="439.95,178.8031,441.1202,169.024,438.4766,174.0252,433.4754,171.3815,439.95,178.8031" style="stroke:#689D6A;stroke-width:1.0;"/><text fill="#EBDBB2" font-family="Iosevka Term" font-size="13" lengthAdjust="spacing" x="431" y="145.02">nace</text><text fill="#EBDBB2" font-family="Iosevka Term" font-size="13" lengthAdjust="spacing" x="393.2102" y="121.5481">0..*</text><text fill="#EBDBB2" font-family="Iosevka Term" font-size="13" lengthAdjust="spacing" x="429.2327" y="167.7753">1</text><!--MD5=[636c2225d91bdd5fdbc221480047ddcd]
@startuml
title La Asociacion

!include plantuml-config.txt

class Persona {
        # nombreCompleto : String
        # darAlta() : void
}

class Socio {
        - codigoAsociado : int
}

class Fecha {
        - dia : int
        - mes : int
        - anio : int
}

class Nif {
        - dni : int
        - letra : char
}

class Asociacion {
        - nombre : String
}

skinparam Nodesep 150

Asociacion "1" *- - "1..*" Socio
Persona <|- - Socio
Persona "1" -r-> "1" Nif : se identifica
Socio "0..*" -r-> "1" Fecha : se da de alta
Persona "0..*" - -> "1" Fecha : nace
@enduml

@startuml
title La Asociacion

skinparam groupInheritance 2

skinparam Default {
        FontName Iosevka Term
        FontColor #ebdbb2
}

skinparam BackgroundColor #1d2021
skinparam Shadowing false
skinparam RoundCorner 15

skinparam Class {
        BackgroundColor #282828
        BorderColor #504945
        ArrowColor #689d6a
}

skinparam Stereotype {
        CBackgroundColor #b8bb26
        CBorderColor #b8bb26
        EBackgroundColor #fe8019
        EBorderColor #fe8019
        ABackgroundColor #83a598
        ABorderColor #83a598
}

skinparam Icon {
        PrivateColor #cc241d
        PrivateBackgroundColor #cc241d
        ProtectedColor #d79921
        ProtectedBackgroundColor #d79921
}

class Persona {
        # nombreCompleto : String
        # darAlta() : void
}

class Socio {
        - codigoAsociado : int
}

class Fecha {
        - dia : int
        - mes : int
        - anio : int
}

class Nif {
        - dni : int
        - letra : char
}

class Asociacion {
        - nombre : String
}

skinparam Nodesep 150

Asociacion "1" *- - "1..*" Socio
Persona <|- - Socio
Persona "1" -r-> "1" Nif : se identifica
Socio "0..*" -r-> "1" Fecha : se da de alta
Persona "0..*" - -> "1" Fecha : nace
@enduml

PlantUML version 1.2022.1(Tue Feb 01 19:19:58 CET 2022)
(GPL source distribution)
Java Runtime: OpenJDK Runtime Environment
JVM: OpenJDK 64-Bit Server VM
Default Encoding: UTF-8
Language: en
Country: US
--></g></svg>