<?xml version="1.0" encoding="UTF-8" standalone="no"?><svg xmlns="http://www.w3.org/2000/svg" xmlns:xlink="http://www.w3.org/1999/xlink" contentScriptType="application/ecmascript" contentStyleType="text/css" height="588px" preserveAspectRatio="none" style="width:960px;height:588px;background:#1D2021;" version="1.1" viewBox="0 0 960 588" width="960px" zoomAndPan="magnify"><defs/><g><text fill="#EBDBB2" font-family="Iosevka Term" font-size="18" lengthAdjust="spacing" x="375.25" y="16.708">Maquina Expendedora</text><!--MD5=[c967f4a67cf9571b09fdfa64855e7eb8]
class MaquinaExpendedora--><rect codeLine="5" fill="#282828" height="73.6094" id="MaquinaExpendedora" rx="7.5" ry="7.5" style="stroke:#504945;stroke-width:1.5;" width="186" x="467.5" y="27.9531"/><ellipse cx="490.6" cy="43.9531" fill="#B8BB26" rx="11" ry="11" style="stroke:#B8BB26;stroke-width:1.0;"/><path d="M490.8031,50.5938 Q490.3344,50.5938 489.8813,50.5 Q489.4281,50.4063 489.0063,50.1719 Q488.6,49.9375 488.2875,49.5781 Q487.975,49.2188 487.7875,48.7969 Q487.6,48.3594 487.5219,47.8906 Q487.4594,47.4219 487.4594,46.9688 L487.4594,41.4375 Q487.4594,40.9844 487.5219,40.5156 Q487.6,40.0469 487.7875,39.625 Q487.975,39.2031 488.2875,38.8438 Q488.6,38.4688 489.0063,38.25 Q489.4281,38.0156 489.8813,37.9219 Q490.3344,37.8281 490.8031,37.8281 Q491.2406,37.8281 491.6781,37.9063 Q492.1156,37.9688 492.5063,38.1719 Q492.8969,38.3594 493.2094,38.6875 Q493.5375,39 493.725,39.3906 Q493.9281,39.7813 494.0219,40.2188 Q494.1313,40.6406 494.1313,41.0938 Q494.1313,41.0938 494.1313,41.0938 Q494.1313,41.0938 494.1313,41.1094 L492.2406,41.1094 Q492.2406,41.0938 492.2406,41.0938 Q492.2406,41.0938 492.2406,41.0938 Q492.2406,40.7813 492.1469,40.4844 Q492.0688,40.1875 491.8813,39.9375 Q491.6938,39.6875 491.3969,39.5781 Q491.1,39.4531 490.8031,39.4531 Q490.5844,39.4531 490.35,39.5313 Q490.1156,39.5938 489.9438,39.75 Q489.7719,39.8906 489.6469,40.0938 Q489.5375,40.2969 489.475,40.5313 Q489.4125,40.75 489.3813,40.9844 Q489.35,41.2031 489.35,41.4375 L489.35,46.9688 Q489.35,47.2031 489.3813,47.4375 Q489.4125,47.6719 489.475,47.8906 Q489.5375,48.1094 489.6469,48.3125 Q489.7719,48.5156 489.9438,48.6719 Q490.1156,48.8281 490.35,48.8906 Q490.5844,48.9531 490.8031,48.9531 Q491.1,48.9531 491.3969,48.8438 Q491.6938,48.7188 491.8813,48.4688 Q492.0688,48.2188 492.1469,47.9219 Q492.2406,47.625 492.2406,47.3281 Q492.2406,47.3281 492.2406,47.3281 Q492.2406,47.3281 492.2406,47.3125 L494.1313,47.3125 Q494.1313,47.3281 494.1313,47.3281 Q494.1313,47.3281 494.1313,47.3281 Q494.1313,47.7656 494.0219,48.2031 Q493.9281,48.6406 493.725,49.0313 Q493.5375,49.4219 493.2094,49.7344 Q492.8969,50.0469 492.5063,50.25 Q492.1156,50.4375 491.6781,50.5156 Q491.2406,50.5938 490.8031,50.5938 Z " fill="#EBDBB2"/><text fill="#EBDBB2" font-family="Iosevka Term" font-size="12" lengthAdjust="spacing" x="506.4" y="48.1074">MaquinaExpendedora</text><line style="stroke:#504945;stroke-width:1.5;" x1="468.5" x2="652.5" y1="59.9531" y2="59.9531"/><rect fill="none" height="6" style="stroke:#CC241D;stroke-width:1.0;" width="6" x="475.5" y="67.9531"/><text fill="#EBDBB2" font-family="Iosevka Term" font-size="11" lengthAdjust="spacing" x="487.5" y="74.1636">recaudado : float</text><line style="stroke:#504945;stroke-width:1.5;" x1="468.5" x2="652.5" y1="80.7578" y2="80.7578"/><rect fill="#CC241D" height="6" style="stroke:#CC241D;stroke-width:1.0;" width="6" x="475.5" y="88.7578"/><text fill="#EBDBB2" font-family="Iosevka Term" font-size="11" lengthAdjust="spacing" x="487.5" y="94.9683">pedir(Producto p) : Producto</text><!--MD5=[e08ef14289e56909525bb38662047afb]
class Contenedor--><rect codeLine="10" fill="#282828" height="99.2188" id="Contenedor" rx="7.5" ry="7.5" style="stroke:#504945;stroke-width:1.5;" width="253" x="7" y="178.9531"/><ellipse cx="92.25" cy="194.9531" fill="#B8BB26" rx="11" ry="11" style="stroke:#B8BB26;stroke-width:1.0;"/><path d="M92.4531,201.5938 Q91.9844,201.5938 91.5313,201.5 Q91.0781,201.4063 90.6563,201.1719 Q90.25,200.9375 89.9375,200.5781 Q89.625,200.2188 89.4375,199.7969 Q89.25,199.3594 89.1719,198.8906 Q89.1094,198.4219 89.1094,197.9688 L89.1094,192.4375 Q89.1094,191.9844 89.1719,191.5156 Q89.25,191.0469 89.4375,190.625 Q89.625,190.2031 89.9375,189.8438 Q90.25,189.4688 90.6563,189.25 Q91.0781,189.0156 91.5313,188.9219 Q91.9844,188.8281 92.4531,188.8281 Q92.8906,188.8281 93.3281,188.9063 Q93.7656,188.9688 94.1563,189.1719 Q94.5469,189.3594 94.8594,189.6875 Q95.1875,190 95.375,190.3906 Q95.5781,190.7813 95.6719,191.2188 Q95.7813,191.6406 95.7813,192.0938 Q95.7813,192.0938 95.7813,192.0938 Q95.7813,192.0938 95.7813,192.1094 L93.8906,192.1094 Q93.8906,192.0938 93.8906,192.0938 Q93.8906,192.0938 93.8906,192.0938 Q93.8906,191.7813 93.7969,191.4844 Q93.7188,191.1875 93.5313,190.9375 Q93.3438,190.6875 93.0469,190.5781 Q92.75,190.4531 92.4531,190.4531 Q92.2344,190.4531 92,190.5313 Q91.7656,190.5938 91.5938,190.75 Q91.4219,190.8906 91.2969,191.0938 Q91.1875,191.2969 91.125,191.5313 Q91.0625,191.75 91.0313,191.9844 Q91,192.2031 91,192.4375 L91,197.9688 Q91,198.2031 91.0313,198.4375 Q91.0625,198.6719 91.125,198.8906 Q91.1875,199.1094 91.2969,199.3125 Q91.4219,199.5156 91.5938,199.6719 Q91.7656,199.8281 92,199.8906 Q92.2344,199.9531 92.4531,199.9531 Q92.75,199.9531 93.0469,199.8438 Q93.3438,199.7188 93.5313,199.4688 Q93.7188,199.2188 93.7969,198.9219 Q93.8906,198.625 93.8906,198.3281 Q93.8906,198.3281 93.8906,198.3281 Q93.8906,198.3281 93.8906,198.3125 L95.7813,198.3125 Q95.7813,198.3281 95.7813,198.3281 Q95.7813,198.3281 95.7813,198.3281 Q95.7813,198.7656 95.6719,199.2031 Q95.5781,199.6406 95.375,200.0313 Q95.1875,200.4219 94.8594,200.7344 Q94.5469,201.0469 94.1563,201.25 Q93.7656,201.4375 93.3281,201.5156 Q92.8906,201.5938 92.4531,201.5938 Z " fill="#EBDBB2"/><text fill="#EBDBB2" font-family="Iosevka Term" font-size="12" lengthAdjust="spacing" x="112.75" y="199.1074">Contenedor</text><line style="stroke:#504945;stroke-width:1.5;" x1="8" x2="259" y1="210.9531" y2="210.9531"/><line style="stroke:#504945;stroke-width:1.5;" x1="8" x2="259" y1="218.9531" y2="218.9531"/><rect fill="#CC241D" height="6" style="stroke:#CC241D;stroke-width:1.0;" width="6" x="15" y="226.9531"/><text fill="#EBDBB2" font-family="Iosevka Term" font-size="11" lengthAdjust="spacing" x="27" y="233.1636">recargar(Producto p, int cantidad) : void</text><rect fill="#CC241D" height="6" style="stroke:#CC241D;stroke-width:1.0;" width="6" x="15" y="239.7578"/><text fill="#EBDBB2" font-family="Iosevka Term" font-size="11" lengthAdjust="spacing" x="27" y="245.9683">estaVacio() : boolean</text><rect fill="#CC241D" height="6" style="stroke:#CC241D;stroke-width:1.0;" width="6" x="15" y="252.5625"/><text fill="#EBDBB2" font-family="Iosevka Term" font-size="11" lengthAdjust="spacing" x="27" y="258.7729">dispensar(Producto p) : Producto</text><rect fill="#CC241D" height="6" style="stroke:#CC241D;stroke-width:1.0;" width="6" x="15" y="265.3672"/><text fill="#EBDBB2" font-family="Iosevka Term" font-size="11" lengthAdjust="spacing" x="27" y="271.5776">mostrarPrecio(Producto p) : float</text><!--MD5=[9884e166d189446fe4825863c8acf943]
class Producto--><rect codeLine="17" fill="#282828" height="73.6094" id="Producto" rx="7.5" ry="7.5" style="stroke:#504945;stroke-width:1.5;" width="116" x="75.5" y="385.9531"/><ellipse cx="102.65" cy="401.9531" fill="#B8BB26" rx="11" ry="11" style="stroke:#B8BB26;stroke-width:1.0;"/><path d="M102.8531,408.5938 Q102.3844,408.5938 101.9313,408.5 Q101.4781,408.4063 101.0563,408.1719 Q100.65,407.9375 100.3375,407.5781 Q100.025,407.2188 99.8375,406.7969 Q99.65,406.3594 99.5719,405.8906 Q99.5094,405.4219 99.5094,404.9688 L99.5094,399.4375 Q99.5094,398.9844 99.5719,398.5156 Q99.65,398.0469 99.8375,397.625 Q100.025,397.2031 100.3375,396.8438 Q100.65,396.4688 101.0563,396.25 Q101.4781,396.0156 101.9313,395.9219 Q102.3844,395.8281 102.8531,395.8281 Q103.2906,395.8281 103.7281,395.9063 Q104.1656,395.9688 104.5563,396.1719 Q104.9469,396.3594 105.2594,396.6875 Q105.5875,397 105.775,397.3906 Q105.9781,397.7813 106.0719,398.2188 Q106.1813,398.6406 106.1813,399.0938 Q106.1813,399.0938 106.1813,399.0938 Q106.1813,399.0938 106.1813,399.1094 L104.2906,399.1094 Q104.2906,399.0938 104.2906,399.0938 Q104.2906,399.0938 104.2906,399.0938 Q104.2906,398.7813 104.1969,398.4844 Q104.1188,398.1875 103.9313,397.9375 Q103.7438,397.6875 103.4469,397.5781 Q103.15,397.4531 102.8531,397.4531 Q102.6344,397.4531 102.4,397.5313 Q102.1656,397.5938 101.9938,397.75 Q101.8219,397.8906 101.6969,398.0938 Q101.5875,398.2969 101.525,398.5313 Q101.4625,398.75 101.4313,398.9844 Q101.4,399.2031 101.4,399.4375 L101.4,404.9688 Q101.4,405.2031 101.4313,405.4375 Q101.4625,405.6719 101.525,405.8906 Q101.5875,406.1094 101.6969,406.3125 Q101.8219,406.5156 101.9938,406.6719 Q102.1656,406.8281 102.4,406.8906 Q102.6344,406.9531 102.8531,406.9531 Q103.15,406.9531 103.4469,406.8438 Q103.7438,406.7188 103.9313,406.4688 Q104.1188,406.2188 104.1969,405.9219 Q104.2906,405.625 104.2906,405.3281 Q104.2906,405.3281 104.2906,405.3281 Q104.2906,405.3281 104.2906,405.3125 L106.1813,405.3125 Q106.1813,405.3281 106.1813,405.3281 Q106.1813,405.3281 106.1813,405.3281 Q106.1813,405.7656 106.0719,406.2031 Q105.9781,406.6406 105.775,407.0313 Q105.5875,407.4219 105.2594,407.7344 Q104.9469,408.0469 104.5563,408.25 Q104.1656,408.4375 103.7281,408.5156 Q103.2906,408.5938 102.8531,408.5938 Z " fill="#EBDBB2"/><text fill="#EBDBB2" font-family="Iosevka Term" font-size="12" lengthAdjust="spacing" x="119.35" y="406.1074">Producto</text><line style="stroke:#504945;stroke-width:1.5;" x1="76.5" x2="190.5" y1="417.9531" y2="417.9531"/><rect fill="none" height="6" style="stroke:#CC241D;stroke-width:1.0;" width="6" x="83.5" y="425.9531"/><text fill="#EBDBB2" font-family="Iosevka Term" font-size="11" lengthAdjust="spacing" x="95.5" y="432.1636">nombre : String</text><rect fill="none" height="6" style="stroke:#CC241D;stroke-width:1.0;" width="6" x="83.5" y="438.7578"/><text fill="#EBDBB2" font-family="Iosevka Term" font-size="11" lengthAdjust="spacing" x="95.5" y="444.9683">precio : float</text><line style="stroke:#504945;stroke-width:1.5;" x1="76.5" x2="190.5" y1="451.5625" y2="451.5625"/><!--MD5=[292033ffe4750640675b59034298e578]
class Display--><rect codeLine="22" fill="#282828" height="60.8047" id="Display" rx="7.5" ry="7.5" style="stroke:#504945;stroke-width:1.5;" width="160" x="360.5" y="197.9531"/><ellipse cx="414.25" cy="213.9531" fill="#B8BB26" rx="11" ry="11" style="stroke:#B8BB26;stroke-width:1.0;"/><path d="M414.4531,220.5938 Q413.9844,220.5938 413.5313,220.5 Q413.0781,220.4063 412.6563,220.1719 Q412.25,219.9375 411.9375,219.5781 Q411.625,219.2188 411.4375,218.7969 Q411.25,218.3594 411.1719,217.8906 Q411.1094,217.4219 411.1094,216.9688 L411.1094,211.4375 Q411.1094,210.9844 411.1719,210.5156 Q411.25,210.0469 411.4375,209.625 Q411.625,209.2031 411.9375,208.8438 Q412.25,208.4688 412.6563,208.25 Q413.0781,208.0156 413.5313,207.9219 Q413.9844,207.8281 414.4531,207.8281 Q414.8906,207.8281 415.3281,207.9063 Q415.7656,207.9688 416.1563,208.1719 Q416.5469,208.3594 416.8594,208.6875 Q417.1875,209 417.375,209.3906 Q417.5781,209.7813 417.6719,210.2188 Q417.7813,210.6406 417.7813,211.0938 Q417.7813,211.0938 417.7813,211.0938 Q417.7813,211.0938 417.7813,211.1094 L415.8906,211.1094 Q415.8906,211.0938 415.8906,211.0938 Q415.8906,211.0938 415.8906,211.0938 Q415.8906,210.7813 415.7969,210.4844 Q415.7188,210.1875 415.5313,209.9375 Q415.3438,209.6875 415.0469,209.5781 Q414.75,209.4531 414.4531,209.4531 Q414.2344,209.4531 414,209.5313 Q413.7656,209.5938 413.5938,209.75 Q413.4219,209.8906 413.2969,210.0938 Q413.1875,210.2969 413.125,210.5313 Q413.0625,210.75 413.0313,210.9844 Q413,211.2031 413,211.4375 L413,216.9688 Q413,217.2031 413.0313,217.4375 Q413.0625,217.6719 413.125,217.8906 Q413.1875,218.1094 413.2969,218.3125 Q413.4219,218.5156 413.5938,218.6719 Q413.7656,218.8281 414,218.8906 Q414.2344,218.9531 414.4531,218.9531 Q414.75,218.9531 415.0469,218.8438 Q415.3438,218.7188 415.5313,218.4688 Q415.7188,218.2188 415.7969,217.9219 Q415.8906,217.625 415.8906,217.3281 Q415.8906,217.3281 415.8906,217.3281 Q415.8906,217.3281 415.8906,217.3125 L417.7813,217.3125 Q417.7813,217.3281 417.7813,217.3281 Q417.7813,217.3281 417.7813,217.3281 Q417.7813,217.7656 417.6719,218.2031 Q417.5781,218.6406 417.375,219.0313 Q417.1875,219.4219 416.8594,219.7344 Q416.5469,220.0469 416.1563,220.25 Q415.7656,220.4375 415.3281,220.5156 Q414.8906,220.5938 414.4531,220.5938 Z " fill="#EBDBB2"/><text fill="#EBDBB2" font-family="Iosevka Term" font-size="12" lengthAdjust="spacing" x="434.75" y="218.1074">Display</text><line style="stroke:#504945;stroke-width:1.5;" x1="361.5" x2="519.5" y1="229.9531" y2="229.9531"/><line style="stroke:#504945;stroke-width:1.5;" x1="361.5" x2="519.5" y1="237.9531" y2="237.9531"/><rect fill="#CC241D" height="6" style="stroke:#CC241D;stroke-width:1.0;" width="6" x="368.5" y="245.9531"/><text fill="#EBDBB2" font-family="Iosevka Term" font-size="11" lengthAdjust="spacing" x="380.5" y="252.1636">mostrar(String s) : void</text><!--MD5=[b2b224e876b723bde36af294211d87d8]
class Caja--><rect codeLine="26" fill="#282828" height="86.4141" id="Caja" rx="7.5" ry="7.5" style="stroke:#504945;stroke-width:1.5;" width="121" x="621" y="185.4531"/><ellipse cx="663.9" cy="201.4531" fill="#B8BB26" rx="11" ry="11" style="stroke:#B8BB26;stroke-width:1.0;"/><path d="M664.1031,208.0938 Q663.6344,208.0938 663.1813,208 Q662.7281,207.9063 662.3063,207.6719 Q661.9,207.4375 661.5875,207.0781 Q661.275,206.7188 661.0875,206.2969 Q660.9,205.8594 660.8219,205.3906 Q660.7594,204.9219 660.7594,204.4688 L660.7594,198.9375 Q660.7594,198.4844 660.8219,198.0156 Q660.9,197.5469 661.0875,197.125 Q661.275,196.7031 661.5875,196.3438 Q661.9,195.9688 662.3063,195.75 Q662.7281,195.5156 663.1813,195.4219 Q663.6344,195.3281 664.1031,195.3281 Q664.5406,195.3281 664.9781,195.4063 Q665.4156,195.4688 665.8063,195.6719 Q666.1969,195.8594 666.5094,196.1875 Q666.8375,196.5 667.025,196.8906 Q667.2281,197.2813 667.3219,197.7188 Q667.4313,198.1406 667.4313,198.5938 Q667.4313,198.5938 667.4313,198.5938 Q667.4313,198.5938 667.4313,198.6094 L665.5406,198.6094 Q665.5406,198.5938 665.5406,198.5938 Q665.5406,198.5938 665.5406,198.5938 Q665.5406,198.2813 665.4469,197.9844 Q665.3688,197.6875 665.1813,197.4375 Q664.9938,197.1875 664.6969,197.0781 Q664.4,196.9531 664.1031,196.9531 Q663.8844,196.9531 663.65,197.0313 Q663.4156,197.0938 663.2438,197.25 Q663.0719,197.3906 662.9469,197.5938 Q662.8375,197.7969 662.775,198.0313 Q662.7125,198.25 662.6813,198.4844 Q662.65,198.7031 662.65,198.9375 L662.65,204.4688 Q662.65,204.7031 662.6813,204.9375 Q662.7125,205.1719 662.775,205.3906 Q662.8375,205.6094 662.9469,205.8125 Q663.0719,206.0156 663.2438,206.1719 Q663.4156,206.3281 663.65,206.3906 Q663.8844,206.4531 664.1031,206.4531 Q664.4,206.4531 664.6969,206.3438 Q664.9938,206.2188 665.1813,205.9688 Q665.3688,205.7188 665.4469,205.4219 Q665.5406,205.125 665.5406,204.8281 Q665.5406,204.8281 665.5406,204.8281 Q665.5406,204.8281 665.5406,204.8125 L667.4313,204.8125 Q667.4313,204.8281 667.4313,204.8281 Q667.4313,204.8281 667.4313,204.8281 Q667.4313,205.2656 667.3219,205.7031 Q667.2281,206.1406 667.025,206.5313 Q666.8375,206.9219 666.5094,207.2344 Q666.1969,207.5469 665.8063,207.75 Q665.4156,207.9375 664.9781,208.0156 Q664.5406,208.0938 664.1031,208.0938 Z " fill="#EBDBB2"/><text fill="#EBDBB2" font-family="Iosevka Term" font-size="12" lengthAdjust="spacing" x="684.1" y="205.6074">Caja</text><line style="stroke:#504945;stroke-width:1.5;" x1="622" x2="741" y1="217.4531" y2="217.4531"/><rect fill="none" height="6" style="stroke:#CC241D;stroke-width:1.0;" width="6" x="629" y="225.4531"/><text fill="#EBDBB2" font-family="Iosevka Term" font-size="11" lengthAdjust="spacing" x="641" y="231.6636">saldo : float</text><line style="stroke:#504945;stroke-width:1.5;" x1="622" x2="741" y1="238.2578" y2="238.2578"/><rect fill="#CC241D" height="6" style="stroke:#CC241D;stroke-width:1.0;" width="6" x="629" y="246.2578"/><text fill="#EBDBB2" font-family="Iosevka Term" font-size="11" lengthAdjust="spacing" x="641" y="252.4683">recopilar() : float</text><rect fill="#CC241D" height="6" style="stroke:#CC241D;stroke-width:1.0;" width="6" x="629" y="259.0625"/><text fill="#EBDBB2" font-family="Iosevka Term" font-size="11" lengthAdjust="spacing" x="641" y="265.2729">devolver() : float</text><!--MD5=[1800d6414be6fe0e15b7f9468051ecae]
class Boton--><rect codeLine="32" fill="#282828" height="60.8047" id="Boton" rx="7.5" ry="7.5" style="stroke:#504945;stroke-width:1.5;" width="105" x="737" y="520.9531"/><ellipse cx="768.2" cy="536.9531" fill="#B8BB26" rx="11" ry="11" style="stroke:#B8BB26;stroke-width:1.0;"/><path d="M768.4031,543.5938 Q767.9344,543.5938 767.4813,543.5 Q767.0281,543.4063 766.6063,543.1719 Q766.2,542.9375 765.8875,542.5781 Q765.575,542.2188 765.3875,541.7969 Q765.2,541.3594 765.1219,540.8906 Q765.0594,540.4219 765.0594,539.9688 L765.0594,534.4375 Q765.0594,533.9844 765.1219,533.5156 Q765.2,533.0469 765.3875,532.625 Q765.575,532.2031 765.8875,531.8438 Q766.2,531.4688 766.6063,531.25 Q767.0281,531.0156 767.4813,530.9219 Q767.9344,530.8281 768.4031,530.8281 Q768.8406,530.8281 769.2781,530.9063 Q769.7156,530.9688 770.1063,531.1719 Q770.4969,531.3594 770.8094,531.6875 Q771.1375,532 771.325,532.3906 Q771.5281,532.7813 771.6219,533.2188 Q771.7313,533.6406 771.7313,534.0938 Q771.7313,534.0938 771.7313,534.0938 Q771.7313,534.0938 771.7313,534.1094 L769.8406,534.1094 Q769.8406,534.0938 769.8406,534.0938 Q769.8406,534.0938 769.8406,534.0938 Q769.8406,533.7813 769.7469,533.4844 Q769.6688,533.1875 769.4813,532.9375 Q769.2938,532.6875 768.9969,532.5781 Q768.7,532.4531 768.4031,532.4531 Q768.1844,532.4531 767.95,532.5313 Q767.7156,532.5938 767.5438,532.75 Q767.3719,532.8906 767.2469,533.0938 Q767.1375,533.2969 767.075,533.5313 Q767.0125,533.75 766.9813,533.9844 Q766.95,534.2031 766.95,534.4375 L766.95,539.9688 Q766.95,540.2031 766.9813,540.4375 Q767.0125,540.6719 767.075,540.8906 Q767.1375,541.1094 767.2469,541.3125 Q767.3719,541.5156 767.5438,541.6719 Q767.7156,541.8281 767.95,541.8906 Q768.1844,541.9531 768.4031,541.9531 Q768.7,541.9531 768.9969,541.8438 Q769.2938,541.7188 769.4813,541.4688 Q769.6688,541.2188 769.7469,540.9219 Q769.8406,540.625 769.8406,540.3281 Q769.8406,540.3281 769.8406,540.3281 Q769.8406,540.3281 769.8406,540.3125 L771.7313,540.3125 Q771.7313,540.3281 771.7313,540.3281 Q771.7313,540.3281 771.7313,540.3281 Q771.7313,540.7656 771.6219,541.2031 Q771.5281,541.6406 771.325,542.0313 Q771.1375,542.4219 770.8094,542.7344 Q770.4969,543.0469 770.1063,543.25 Q769.7156,543.4375 769.2781,543.5156 Q768.8406,543.5938 768.4031,543.5938 Z " fill="#EBDBB2"/><text fill="#EBDBB2" font-family="Iosevka Term" font-size="12" lengthAdjust="spacing" x="785.8" y="541.1074">Boton</text><line style="stroke:#504945;stroke-width:1.5;" x1="738" x2="841" y1="552.9531" y2="552.9531"/><line style="stroke:#504945;stroke-width:1.5;" x1="738" x2="841" y1="560.9531" y2="560.9531"/><rect fill="#CC241D" height="6" style="stroke:#CC241D;stroke-width:1.0;" width="6" x="745" y="568.9531"/><text fill="#EBDBB2" font-family="Iosevka Term" font-size="11" lengthAdjust="spacing" x="757" y="575.1636">pulsar() : void</text><!--MD5=[62b6e8ecf4d3cbd83479065b1809bcf4]
class BotonDevolucion--><rect codeLine="36" fill="#282828" height="48" id="BotonDevolucion" rx="7.5" ry="7.5" style="stroke:#504945;stroke-width:1.5;" width="137" x="611" y="398.9531"/><ellipse cx="626" cy="414.9531" fill="#B8BB26" rx="11" ry="11" style="stroke:#B8BB26;stroke-width:1.0;"/><path d="M626.2031,421.5938 Q625.7344,421.5938 625.2813,421.5 Q624.8281,421.4063 624.4063,421.1719 Q624,420.9375 623.6875,420.5781 Q623.375,420.2188 623.1875,419.7969 Q623,419.3594 622.9219,418.8906 Q622.8594,418.4219 622.8594,417.9688 L622.8594,412.4375 Q622.8594,411.9844 622.9219,411.5156 Q623,411.0469 623.1875,410.625 Q623.375,410.2031 623.6875,409.8438 Q624,409.4688 624.4063,409.25 Q624.8281,409.0156 625.2813,408.9219 Q625.7344,408.8281 626.2031,408.8281 Q626.6406,408.8281 627.0781,408.9063 Q627.5156,408.9688 627.9063,409.1719 Q628.2969,409.3594 628.6094,409.6875 Q628.9375,410 629.125,410.3906 Q629.3281,410.7813 629.4219,411.2188 Q629.5313,411.6406 629.5313,412.0938 Q629.5313,412.0938 629.5313,412.0938 Q629.5313,412.0938 629.5313,412.1094 L627.6406,412.1094 Q627.6406,412.0938 627.6406,412.0938 Q627.6406,412.0938 627.6406,412.0938 Q627.6406,411.7813 627.5469,411.4844 Q627.4688,411.1875 627.2813,410.9375 Q627.0938,410.6875 626.7969,410.5781 Q626.5,410.4531 626.2031,410.4531 Q625.9844,410.4531 625.75,410.5313 Q625.5156,410.5938 625.3438,410.75 Q625.1719,410.8906 625.0469,411.0938 Q624.9375,411.2969 624.875,411.5313 Q624.8125,411.75 624.7813,411.9844 Q624.75,412.2031 624.75,412.4375 L624.75,417.9688 Q624.75,418.2031 624.7813,418.4375 Q624.8125,418.6719 624.875,418.8906 Q624.9375,419.1094 625.0469,419.3125 Q625.1719,419.5156 625.3438,419.6719 Q625.5156,419.8281 625.75,419.8906 Q625.9844,419.9531 626.2031,419.9531 Q626.5,419.9531 626.7969,419.8438 Q627.0938,419.7188 627.2813,419.4688 Q627.4688,419.2188 627.5469,418.9219 Q627.6406,418.625 627.6406,418.3281 Q627.6406,418.3281 627.6406,418.3281 Q627.6406,418.3281 627.6406,418.3125 L629.5313,418.3125 Q629.5313,418.3281 629.5313,418.3281 Q629.5313,418.3281 629.5313,418.3281 Q629.5313,418.7656 629.4219,419.2031 Q629.3281,419.6406 629.125,420.0313 Q628.9375,420.4219 628.6094,420.7344 Q628.2969,421.0469 627.9063,421.25 Q627.5156,421.4375 627.0781,421.5156 Q626.6406,421.5938 626.2031,421.5938 Z " fill="#EBDBB2"/><text fill="#EBDBB2" font-family="Iosevka Term" font-size="12" lengthAdjust="spacing" x="640" y="419.1074">BotonDevolucion</text><line style="stroke:#504945;stroke-width:1.5;" x1="612" x2="747" y1="430.9531" y2="430.9531"/><line style="stroke:#504945;stroke-width:1.5;" x1="612" x2="747" y1="438.9531" y2="438.9531"/><!--MD5=[48f9a555c038e4e0b9f1031344acda07]
class BotonBebida--><rect codeLine="37" fill="#282828" height="48" id="BotonBebida" rx="7.5" ry="7.5" style="stroke:#504945;stroke-width:1.5;" width="112" x="841.5" y="307.9531"/><ellipse cx="856.5" cy="323.9531" fill="#B8BB26" rx="11" ry="11" style="stroke:#B8BB26;stroke-width:1.0;"/><path d="M856.7031,330.5938 Q856.2344,330.5938 855.7813,330.5 Q855.3281,330.4063 854.9063,330.1719 Q854.5,329.9375 854.1875,329.5781 Q853.875,329.2188 853.6875,328.7969 Q853.5,328.3594 853.4219,327.8906 Q853.3594,327.4219 853.3594,326.9688 L853.3594,321.4375 Q853.3594,320.9844 853.4219,320.5156 Q853.5,320.0469 853.6875,319.625 Q853.875,319.2031 854.1875,318.8438 Q854.5,318.4688 854.9063,318.25 Q855.3281,318.0156 855.7813,317.9219 Q856.2344,317.8281 856.7031,317.8281 Q857.1406,317.8281 857.5781,317.9063 Q858.0156,317.9688 858.4063,318.1719 Q858.7969,318.3594 859.1094,318.6875 Q859.4375,319 859.625,319.3906 Q859.8281,319.7813 859.9219,320.2188 Q860.0313,320.6406 860.0313,321.0938 Q860.0313,321.0938 860.0313,321.0938 Q860.0313,321.0938 860.0313,321.1094 L858.1406,321.1094 Q858.1406,321.0938 858.1406,321.0938 Q858.1406,321.0938 858.1406,321.0938 Q858.1406,320.7813 858.0469,320.4844 Q857.9688,320.1875 857.7813,319.9375 Q857.5938,319.6875 857.2969,319.5781 Q857,319.4531 856.7031,319.4531 Q856.4844,319.4531 856.25,319.5313 Q856.0156,319.5938 855.8438,319.75 Q855.6719,319.8906 855.5469,320.0938 Q855.4375,320.2969 855.375,320.5313 Q855.3125,320.75 855.2813,320.9844 Q855.25,321.2031 855.25,321.4375 L855.25,326.9688 Q855.25,327.2031 855.2813,327.4375 Q855.3125,327.6719 855.375,327.8906 Q855.4375,328.1094 855.5469,328.3125 Q855.6719,328.5156 855.8438,328.6719 Q856.0156,328.8281 856.25,328.8906 Q856.4844,328.9531 856.7031,328.9531 Q857,328.9531 857.2969,328.8438 Q857.5938,328.7188 857.7813,328.4688 Q857.9688,328.2188 858.0469,327.9219 Q858.1406,327.625 858.1406,327.3281 Q858.1406,327.3281 858.1406,327.3281 Q858.1406,327.3281 858.1406,327.3125 L860.0313,327.3125 Q860.0313,327.3281 860.0313,327.3281 Q860.0313,327.3281 860.0313,327.3281 Q860.0313,327.7656 859.9219,328.2031 Q859.8281,328.6406 859.625,329.0313 Q859.4375,329.4219 859.1094,329.7344 Q858.7969,330.0469 858.4063,330.25 Q858.0156,330.4375 857.5781,330.5156 Q857.1406,330.5938 856.7031,330.5938 Z " fill="#EBDBB2"/><text fill="#EBDBB2" font-family="Iosevka Term" font-size="12" lengthAdjust="spacing" x="870.5" y="328.1074">BotonBebida</text><line style="stroke:#504945;stroke-width:1.5;" x1="842.5" x2="952.5" y1="339.9531" y2="339.9531"/><line style="stroke:#504945;stroke-width:1.5;" x1="842.5" x2="952.5" y1="347.9531" y2="347.9531"/><!--MD5=[49cb09a3b636c83ca7b973b199c9094b]
link MaquinaExpendedora to Contenedor--><path codeLine="41" d="M467.32,101.1931 C408.01,123.6231 330.31,153.0131 264.79,177.7931 " fill="none" id="MaquinaExpendedora-to-Contenedor" style="stroke:#689D6A;stroke-width:1.0;"/><polygon fill="#689D6A" points="260.09,179.5731,269.923,180.1321,264.7669,177.805,267.094,172.649,260.09,179.5731" style="stroke:#689D6A;stroke-width:1.0;"/><text fill="#EBDBB2" font-family="Iosevka Term" font-size="13" lengthAdjust="spacing" x="386.5" y="145.02">tiene</text><text fill="#EBDBB2" font-family="Iosevka Term" font-size="13" lengthAdjust="spacing" x="451.576" y="100.5711">1</text><text fill="#EBDBB2" font-family="Iosevka Term" font-size="13" lengthAdjust="spacing" x="268.0478" y="173.2017">1</text><!--MD5=[984acbc470d6dce5f229148cf169be36]
link MaquinaExpendedora to Display--><path codeLine="42" d="M490.02,102.1031 C478.76,110.5631 468.28,120.5131 460.5,131.9531 C448.49,149.6231 443.46,173.0731 441.45,192.3031 " fill="none" id="MaquinaExpendedora-to-Display" style="stroke:#689D6A;stroke-width:1.0;"/><polygon fill="#689D6A" points="440.96,197.6131,445.7651,189.016,441.4165,192.634,437.7985,188.2855,440.96,197.6131" style="stroke:#689D6A;stroke-width:1.0;"/><text fill="#EBDBB2" font-family="Iosevka Term" font-size="13" lengthAdjust="spacing" x="461.5" y="145.02">muestra</text><text fill="#EBDBB2" font-family="Iosevka Term" font-size="13" lengthAdjust="spacing" x="469.6842" y="121.6085">1</text><text fill="#EBDBB2" font-family="Iosevka Term" font-size="13" lengthAdjust="spacing" x="432.2299" y="186.8062">1</text><!--MD5=[2576e694f3c054561fe9e04cd8e6a1c9]
link MaquinaExpendedora to Caja--><path codeLine="43" d="M587.65,102.1931 C605.11,125.4931 627.95,155.9831 646.73,181.0431 " fill="none" id="MaquinaExpendedora-to-Caja" style="stroke:#689D6A;stroke-width:1.0;"/><polygon fill="#689D6A" points="649.94,185.3331,647.7564,175.7294,646.9468,181.328,641.3482,180.5184,649.94,185.3331" style="stroke:#689D6A;stroke-width:1.0;"/><text fill="#EBDBB2" font-family="Iosevka Term" font-size="13" lengthAdjust="spacing" x="622.5" y="145.02">tiene</text><text fill="#EBDBB2" font-family="Iosevka Term" font-size="13" lengthAdjust="spacing" x="583.4842" y="121.7134">1</text><text fill="#EBDBB2" font-family="Iosevka Term" font-size="13" lengthAdjust="spacing" x="636.2726" y="174.31">1</text><!--MD5=[d36af4765b81df6b9cdb56f92f91e597]
link MaquinaExpendedora to BotonBebida--><path codeLine="44" d="M653.78,98.8231 C698.62,117.6531 751.24,144.4631 791.5,178.9531 C833.07,214.5631 866.2,269.9731 883.75,303.1431 " fill="none" id="MaquinaExpendedora-to-BotonBebida" style="stroke:#689D6A;stroke-width:1.0;"/><polygon fill="#689D6A" points="886.23,307.8731,885.5819,298.0456,883.903,303.4476,878.501,301.7688,886.23,307.8731" style="stroke:#689D6A;stroke-width:1.0;"/><text fill="#EBDBB2" font-family="Iosevka Term" font-size="13" lengthAdjust="spacing" x="661.532" y="98.0122">1</text><text fill="#EBDBB2" font-family="Iosevka Term" font-size="13" lengthAdjust="spacing" x="874.3171" y="296.8647">1</text><!--MD5=[427d52c15a4460f62ae5d8ad316b3742]
reverse link Contenedor to Producto--><path codeLine="46" d="M133.5,291.0431 C133.5,322.3031 133.5,359.2131 133.5,385.8531 " fill="none" id="Contenedor-backto-Producto" style="stroke:#689D6A;stroke-width:1.0;"/><polygon fill="#689D6A" points="133.5,278.0331,129.5,284.0331,133.5,290.0331,137.5,284.0331,133.5,278.0331" style="stroke:#689D6A;stroke-width:1.0;"/><text fill="#EBDBB2" font-family="Iosevka Term" font-size="13" lengthAdjust="spacing" x="134.5" y="336.52">contiene</text><text fill="#EBDBB2" font-family="Iosevka Term" font-size="13" lengthAdjust="spacing" x="124.9375" y="298.1209">1</text><text fill="#EBDBB2" font-family="Iosevka Term" font-size="13" lengthAdjust="spacing" x="108.4516" y="375.0223">0..*</text><!--MD5=[89fc970914c33ed81f4fb93bf02eb475]
link Caja to BotonDevolucion--><path codeLine="48" d="M681.06,271.6931 C680.68,308.6331 680.13,361.2431 679.8,393.4131 " fill="none" id="Caja-to-BotonDevolucion" style="stroke:#689D6A;stroke-width:1.0;"/><polygon fill="#689D6A" points="679.74,398.7831,683.8426,389.8294,679.7971,393.7835,675.8431,389.738,679.74,398.7831" style="stroke:#689D6A;stroke-width:1.0;"/><text fill="#EBDBB2" font-family="Iosevka Term" font-size="13" lengthAdjust="spacing" x="672.3524" y="291.8243">1</text><text fill="#EBDBB2" font-family="Iosevka Term" font-size="13" lengthAdjust="spacing" x="670.7765" y="387.7516">1</text><!--MD5=[6b56fac9087de9b14b63503f0e01207d]
link BotonDevolucion to Boton--><path codeLine="50" d="M699.68,447.1531 C713.87,463.4731 733.32,485.8431 750.49,505.5931 " fill="none" id="BotonDevolucion-to-Boton" style="stroke:#689D6A;stroke-width:1.0;"/><polygon fill="none" points="755.79,501.0131,763.63,520.7031,745.22,510.2031,755.79,501.0131" style="stroke:#689D6A;stroke-width:1.0;"/><!--MD5=[1d6b71a879cbd0f70c7fb3128dc3499c]
link BotonBebida to Boton--><path codeLine="51" d="M885.94,356.2331 C868.66,391.0331 835.7,457.4031 813.17,502.7831 " fill="none" id="BotonBebida-to-Boton" style="stroke:#689D6A;stroke-width:1.0;"/><polygon fill="none" points="819.4,505.9831,804.23,520.7831,806.86,499.7631,819.4,505.9831" style="stroke:#689D6A;stroke-width:1.0;"/><!--MD5=[41f273cf14f14b51a2ad103f74ed629a]
@startuml
title Maquina Expendedora

!include plantuml-config.txt

class MaquinaExpendedora {
        - recaudado : float
        - pedir(Producto p) : Producto
}

class Contenedor {
        - recargar(Producto p, int cantidad) : void
        - estaVacio() : boolean
        - dispensar(Producto p) : Producto
        - mostrarPrecio(Producto p) : float
}

class Producto {
        - nombre : String
        - precio : float
}

class Display {
        - mostrar(String s) : void
}

class Caja {
        - saldo : float
        - recopilar() : float
        - devolver() : float
}

class Boton {
        - pulsar() : void
}

class BotonDevolucion
class BotonBebida

skinparam Nodesep 100

MaquinaExpendedora "1" - -> "1" Contenedor : tiene
MaquinaExpendedora "1" - -> "1" Display : muestra
MaquinaExpendedora "1" - -> "1" Caja : tiene
MaquinaExpendedora "1" - -> "1" BotonBebida 

Contenedor "1" *- - "0..*" Producto : contiene

Caja "1" - -> "1" BotonDevolucion

BotonDevolucion - -|> Boton
BotonBebida - -|> Boton
@enduml

@startuml
title Maquina Expendedora

skinparam groupInheritance 2

skinparam Default {
        FontName Iosevka Term
        FontColor #ebdbb2
}

skinparam BackgroundColor #1d2021
skinparam Shadowing false
skinparam RoundCorner 15

skinparam Class {
        BackgroundColor #282828
        BorderColor #504945
        ArrowColor #689d6a
}

skinparam Stereotype {
        CBackgroundColor #b8bb26
        CBorderColor #b8bb26
        EBackgroundColor #fe8019
        EBorderColor #fe8019
        ABackgroundColor #83a598
        ABorderColor #83a598
}

skinparam Icon {
        PrivateColor #cc241d
        PrivateBackgroundColor #cc241d
        ProtectedColor #d79921
        ProtectedBackgroundColor #d79921
}

class MaquinaExpendedora {
        - recaudado : float
        - pedir(Producto p) : Producto
}

class Contenedor {
        - recargar(Producto p, int cantidad) : void
        - estaVacio() : boolean
        - dispensar(Producto p) : Producto
        - mostrarPrecio(Producto p) : float
}

class Producto {
        - nombre : String
        - precio : float
}

class Display {
        - mostrar(String s) : void
}

class Caja {
        - saldo : float
        - recopilar() : float
        - devolver() : float
}

class Boton {
        - pulsar() : void
}

class BotonDevolucion
class BotonBebida

skinparam Nodesep 100

MaquinaExpendedora "1" - -> "1" Contenedor : tiene
MaquinaExpendedora "1" - -> "1" Display : muestra
MaquinaExpendedora "1" - -> "1" Caja : tiene
MaquinaExpendedora "1" - -> "1" BotonBebida 

Contenedor "1" *- - "0..*" Producto : contiene

Caja "1" - -> "1" BotonDevolucion

BotonDevolucion - -|> Boton
BotonBebida - -|> Boton
@enduml

PlantUML version 1.2021.16(Wed Dec 08 18:25:22 CET 2021)
(GPL source distribution)
Java Runtime: OpenJDK Runtime Environment
JVM: OpenJDK 64-Bit Server VM
Default Encoding: UTF-8
Language: en
Country: US
--></g></svg>