<?xml version="1.0" encoding="UTF-8" standalone="no"?><svg xmlns="http://www.w3.org/2000/svg" xmlns:xlink="http://www.w3.org/1999/xlink" contentScriptType="application/ecmascript" contentStyleType="text/css" height="744px" preserveAspectRatio="none" style="width:803px;height:744px;background:#1D2021;" version="1.1" viewBox="0 0 803 744" width="803px" zoomAndPan="magnify"><defs/><g><text fill="#EBDBB2" font-family="Iosevka Term" font-size="18" lengthAdjust="spacing" textLength="241" x="274.5" y="16.708">Matricula en la Universidad</text><!--MD5=[8f63dadf5c643e74a34e53c8f0a15d23]
class Persona--><rect codeLine="5" fill="#282828" height="112.0234" id="Persona" rx="7.5" ry="7.5" style="stroke:#504945;stroke-width:1.5;" width="138" x="9" y="169.9531"/><ellipse cx="48.3" cy="185.9531" fill="#B8BB26" rx="11" ry="11" style="stroke:#B8BB26;stroke-width:1.0;"/><path d="M48.5031,192.5938 Q48.0344,192.5938 47.5813,192.5 Q47.1281,192.4063 46.7063,192.1719 Q46.3,191.9375 45.9875,191.5781 Q45.675,191.2188 45.4875,190.7969 Q45.3,190.3594 45.2219,189.8906 Q45.1594,189.4219 45.1594,188.9688 L45.1594,183.4375 Q45.1594,182.9844 45.2219,182.5156 Q45.3,182.0469 45.4875,181.625 Q45.675,181.2031 45.9875,180.8438 Q46.3,180.4688 46.7063,180.25 Q47.1281,180.0156 47.5813,179.9219 Q48.0344,179.8281 48.5031,179.8281 Q48.9406,179.8281 49.3781,179.9063 Q49.8156,179.9688 50.2063,180.1719 Q50.5969,180.3594 50.9094,180.6875 Q51.2375,181 51.425,181.3906 Q51.6281,181.7813 51.7219,182.2188 Q51.8313,182.6406 51.8313,183.0938 Q51.8313,183.0938 51.8313,183.0938 Q51.8313,183.0938 51.8313,183.1094 L49.9406,183.1094 Q49.9406,183.0938 49.9406,183.0938 Q49.9406,183.0938 49.9406,183.0938 Q49.9406,182.7813 49.8469,182.4844 Q49.7688,182.1875 49.5813,181.9375 Q49.3938,181.6875 49.0969,181.5781 Q48.8,181.4531 48.5031,181.4531 Q48.2844,181.4531 48.05,181.5313 Q47.8156,181.5938 47.6438,181.75 Q47.4719,181.8906 47.3469,182.0938 Q47.2375,182.2969 47.175,182.5313 Q47.1125,182.75 47.0813,182.9844 Q47.05,183.2031 47.05,183.4375 L47.05,188.9688 Q47.05,189.2031 47.0813,189.4375 Q47.1125,189.6719 47.175,189.8906 Q47.2375,190.1094 47.3469,190.3125 Q47.4719,190.5156 47.6438,190.6719 Q47.8156,190.8281 48.05,190.8906 Q48.2844,190.9531 48.5031,190.9531 Q48.8,190.9531 49.0969,190.8438 Q49.3938,190.7188 49.5813,190.4688 Q49.7688,190.2188 49.8469,189.9219 Q49.9406,189.625 49.9406,189.3281 Q49.9406,189.3281 49.9406,189.3281 Q49.9406,189.3281 49.9406,189.3125 L51.8313,189.3125 Q51.8313,189.3281 51.8313,189.3281 Q51.8313,189.3281 51.8313,189.3281 Q51.8313,189.7656 51.7219,190.2031 Q51.6281,190.6406 51.425,191.0313 Q51.2375,191.4219 50.9094,191.7344 Q50.5969,192.0469 50.2063,192.25 Q49.8156,192.4375 49.3781,192.5156 Q48.9406,192.5938 48.5031,192.5938 Z " fill="#EBDBB2"/><text fill="#EBDBB2" font-family="Iosevka Term" font-size="12" lengthAdjust="spacing" textLength="52" x="67.7" y="190.1074">Persona</text><line style="stroke:#504945;stroke-width:1.5;" x1="10" x2="146" y1="201.9531" y2="201.9531"/><polygon fill="none" points="20,207.9531,24,211.9531,20,215.9531,16,211.9531" style="stroke:#D79921;stroke-width:1.0;"/><text fill="#EBDBB2" font-family="Iosevka Term" font-size="11" lengthAdjust="spacing" textLength="63" x="29" y="216.1636">dni : String</text><polygon fill="none" points="20,220.7578,24,224.7578,20,228.7578,16,224.7578" style="stroke:#D79921;stroke-width:1.0;"/><text fill="#EBDBB2" font-family="Iosevka Term" font-size="11" lengthAdjust="spacing" textLength="83" x="29" y="228.9683">nombre : Strig</text><polygon fill="none" points="20,233.5625,24,237.5625,20,241.5625,16,237.5625" style="stroke:#D79921;stroke-width:1.0;"/><text fill="#EBDBB2" font-family="Iosevka Term" font-size="11" lengthAdjust="spacing" textLength="97" x="29" y="241.7729">direccion : String</text><polygon fill="none" points="20,246.3672,24,250.3672,20,254.3672,16,250.3672" style="stroke:#D79921;stroke-width:1.0;"/><text fill="#EBDBB2" font-family="Iosevka Term" font-size="11" lengthAdjust="spacing" textLength="108" x="29" y="254.5776">estadoCivil : String</text><line style="stroke:#504945;stroke-width:1.5;" x1="10" x2="146" y1="261.1719" y2="261.1719"/><rect fill="#CC241D" height="6" style="stroke:#CC241D;stroke-width:1.0;" width="6" x="17" y="269.1719"/><text fill="#EBDBB2" font-family="Iosevka Term" font-size="11" lengthAdjust="spacing" textLength="112" x="29" y="275.3823">darseDeAlta() : void</text><polygon fill="none" points="143.6028,281.9766,163.3583,289.6395,154.2677,300.2866" style="stroke:#689D6A;stroke-width:1.0;"/><line style="stroke:#689D6A;stroke-width:1.0;" x1="158.813" x2="167" y1="294.9631" y2="301.9531"/><polygon fill="none" points="147,251.5025,168.1863,251.8797,163.3269,265.0093" style="stroke:#689D6A;stroke-width:1.0;"/><line style="stroke:#689D6A;stroke-width:1.0;" x1="165.7566" x2="167.32" y1="258.4445" y2="259.0231"/><!--MD5=[9196e7f5424c8ba52e10312e1fe81956]
class Estudiante--><rect codeLine="13" fill="#282828" height="99.2188" id="Estudiante" rx="7.5" ry="7.5" style="stroke:#504945;stroke-width:1.5;" width="326" x="267" y="176.4531"/><ellipse cx="391.75" cy="192.4531" fill="#B8BB26" rx="11" ry="11" style="stroke:#B8BB26;stroke-width:1.0;"/><path d="M391.9531,199.0938 Q391.4844,199.0938 391.0313,199 Q390.5781,198.9063 390.1563,198.6719 Q389.75,198.4375 389.4375,198.0781 Q389.125,197.7188 388.9375,197.2969 Q388.75,196.8594 388.6719,196.3906 Q388.6094,195.9219 388.6094,195.4688 L388.6094,189.9375 Q388.6094,189.4844 388.6719,189.0156 Q388.75,188.5469 388.9375,188.125 Q389.125,187.7031 389.4375,187.3438 Q389.75,186.9688 390.1563,186.75 Q390.5781,186.5156 391.0313,186.4219 Q391.4844,186.3281 391.9531,186.3281 Q392.3906,186.3281 392.8281,186.4063 Q393.2656,186.4688 393.6563,186.6719 Q394.0469,186.8594 394.3594,187.1875 Q394.6875,187.5 394.875,187.8906 Q395.0781,188.2813 395.1719,188.7188 Q395.2813,189.1406 395.2813,189.5938 Q395.2813,189.5938 395.2813,189.5938 Q395.2813,189.5938 395.2813,189.6094 L393.3906,189.6094 Q393.3906,189.5938 393.3906,189.5938 Q393.3906,189.5938 393.3906,189.5938 Q393.3906,189.2813 393.2969,188.9844 Q393.2188,188.6875 393.0313,188.4375 Q392.8438,188.1875 392.5469,188.0781 Q392.25,187.9531 391.9531,187.9531 Q391.7344,187.9531 391.5,188.0313 Q391.2656,188.0938 391.0938,188.25 Q390.9219,188.3906 390.7969,188.5938 Q390.6875,188.7969 390.625,189.0313 Q390.5625,189.25 390.5313,189.4844 Q390.5,189.7031 390.5,189.9375 L390.5,195.4688 Q390.5,195.7031 390.5313,195.9375 Q390.5625,196.1719 390.625,196.3906 Q390.6875,196.6094 390.7969,196.8125 Q390.9219,197.0156 391.0938,197.1719 Q391.2656,197.3281 391.5,197.3906 Q391.7344,197.4531 391.9531,197.4531 Q392.25,197.4531 392.5469,197.3438 Q392.8438,197.2188 393.0313,196.9688 Q393.2188,196.7188 393.2969,196.4219 Q393.3906,196.125 393.3906,195.8281 Q393.3906,195.8281 393.3906,195.8281 Q393.3906,195.8281 393.3906,195.8125 L395.2813,195.8125 Q395.2813,195.8281 395.2813,195.8281 Q395.2813,195.8281 395.2813,195.8281 Q395.2813,196.2656 395.1719,196.7031 Q395.0781,197.1406 394.875,197.5313 Q394.6875,197.9219 394.3594,198.2344 Q394.0469,198.5469 393.6563,198.75 Q393.2656,198.9375 392.8281,199.0156 Q392.3906,199.0938 391.9531,199.0938 Z " fill="#EBDBB2"/><text fill="#EBDBB2" font-family="Iosevka Term" font-size="12" lengthAdjust="spacing" textLength="68" x="412.25" y="196.6074">Estudiante</text><line style="stroke:#504945;stroke-width:1.5;" x1="268" x2="592" y1="208.4531" y2="208.4531"/><line style="stroke:#504945;stroke-width:1.5;" x1="268" x2="592" y1="216.4531" y2="216.4531"/><rect fill="#CC241D" height="6" style="stroke:#CC241D;stroke-width:1.0;" width="6" x="275" y="224.4531"/><text fill="#EBDBB2" font-family="Iosevka Term" font-size="11" lengthAdjust="spacing" textLength="188" x="287" y="230.6636">listarAsignaturas() : Asignatura *</text><rect fill="#CC241D" height="6" style="stroke:#CC241D;stroke-width:1.0;" width="6" x="275" y="237.2578"/><text fill="#EBDBB2" font-family="Iosevka Term" font-size="11" lengthAdjust="spacing" textLength="118" x="287" y="243.4683">listarNotas() : Nota *</text><rect fill="#CC241D" height="6" style="stroke:#CC241D;stroke-width:1.0;" width="6" x="275" y="250.0625"/><text fill="#EBDBB2" font-family="Iosevka Term" font-size="11" lengthAdjust="spacing" textLength="173" x="287" y="256.2729">matricular(Asignatura a) : void</text><rect fill="#CC241D" height="6" style="stroke:#CC241D;stroke-width:1.0;" width="6" x="275" y="262.8672"/><text fill="#EBDBB2" font-family="Iosevka Term" font-size="11" lengthAdjust="spacing" textLength="300" x="287" y="269.0776">examinar(Asignatura a, float pts, float ptsMax) : void</text><!--MD5=[b461fef6a7ba6f6fc6681ac8d845c93a]
class Asignatura--><rect codeLine="20" fill="#282828" height="99.2188" id="Asignatura" rx="7.5" ry="7.5" style="stroke:#504945;stroke-width:1.5;" width="212" x="313" y="513.9531"/><ellipse cx="380.75" cy="529.9531" fill="#B8BB26" rx="11" ry="11" style="stroke:#B8BB26;stroke-width:1.0;"/><path d="M380.9531,536.5938 Q380.4844,536.5938 380.0313,536.5 Q379.5781,536.4063 379.1563,536.1719 Q378.75,535.9375 378.4375,535.5781 Q378.125,535.2188 377.9375,534.7969 Q377.75,534.3594 377.6719,533.8906 Q377.6094,533.4219 377.6094,532.9688 L377.6094,527.4375 Q377.6094,526.9844 377.6719,526.5156 Q377.75,526.0469 377.9375,525.625 Q378.125,525.2031 378.4375,524.8438 Q378.75,524.4688 379.1563,524.25 Q379.5781,524.0156 380.0313,523.9219 Q380.4844,523.8281 380.9531,523.8281 Q381.3906,523.8281 381.8281,523.9063 Q382.2656,523.9688 382.6563,524.1719 Q383.0469,524.3594 383.3594,524.6875 Q383.6875,525 383.875,525.3906 Q384.0781,525.7813 384.1719,526.2188 Q384.2813,526.6406 384.2813,527.0938 Q384.2813,527.0938 384.2813,527.0938 Q384.2813,527.0938 384.2813,527.1094 L382.3906,527.1094 Q382.3906,527.0938 382.3906,527.0938 Q382.3906,527.0938 382.3906,527.0938 Q382.3906,526.7813 382.2969,526.4844 Q382.2188,526.1875 382.0313,525.9375 Q381.8438,525.6875 381.5469,525.5781 Q381.25,525.4531 380.9531,525.4531 Q380.7344,525.4531 380.5,525.5313 Q380.2656,525.5938 380.0938,525.75 Q379.9219,525.8906 379.7969,526.0938 Q379.6875,526.2969 379.625,526.5313 Q379.5625,526.75 379.5313,526.9844 Q379.5,527.2031 379.5,527.4375 L379.5,532.9688 Q379.5,533.2031 379.5313,533.4375 Q379.5625,533.6719 379.625,533.8906 Q379.6875,534.1094 379.7969,534.3125 Q379.9219,534.5156 380.0938,534.6719 Q380.2656,534.8281 380.5,534.8906 Q380.7344,534.9531 380.9531,534.9531 Q381.25,534.9531 381.5469,534.8438 Q381.8438,534.7188 382.0313,534.4688 Q382.2188,534.2188 382.2969,533.9219 Q382.3906,533.625 382.3906,533.3281 Q382.3906,533.3281 382.3906,533.3281 Q382.3906,533.3281 382.3906,533.3125 L384.2813,533.3125 Q384.2813,533.3281 384.2813,533.3281 Q384.2813,533.3281 384.2813,533.3281 Q384.2813,533.7656 384.1719,534.2031 Q384.0781,534.6406 383.875,535.0313 Q383.6875,535.4219 383.3594,535.7344 Q383.0469,536.0469 382.6563,536.25 Q382.2656,536.4375 381.8281,536.5156 Q381.3906,536.5938 380.9531,536.5938 Z " fill="#EBDBB2"/><text fill="#EBDBB2" font-family="Iosevka Term" font-size="12" lengthAdjust="spacing" textLength="68" x="401.25" y="534.1074">Asignatura</text><line style="stroke:#504945;stroke-width:1.5;" x1="314" x2="524" y1="545.9531" y2="545.9531"/><rect fill="none" height="6" style="stroke:#CC241D;stroke-width:1.0;" width="6" x="321" y="553.9531"/><text fill="#EBDBB2" font-family="Iosevka Term" font-size="11" lengthAdjust="spacing" textLength="63" x="333" y="560.1636">codigo : int</text><rect fill="none" height="6" style="stroke:#CC241D;stroke-width:1.0;" width="6" x="321" y="566.7578"/><text fill="#EBDBB2" font-family="Iosevka Term" font-size="11" lengthAdjust="spacing" textLength="90" x="333" y="572.9683">nombre : String</text><line style="stroke:#504945;stroke-width:1.5;" x1="314" x2="524" y1="579.5625" y2="579.5625"/><rect fill="#CC241D" height="6" style="stroke:#CC241D;stroke-width:1.0;" width="6" x="321" y="587.5625"/><text fill="#EBDBB2" font-family="Iosevka Term" font-size="11" lengthAdjust="spacing" textLength="186" x="333" y="593.7729">listarEstudiantes() : Estudiante *</text><rect fill="#CC241D" height="6" style="stroke:#CC241D;stroke-width:1.0;" width="6" x="321" y="600.3672"/><text fill="#EBDBB2" font-family="Iosevka Term" font-size="11" lengthAdjust="spacing" textLength="118" x="333" y="606.5776">listarNotas() : Nota *</text><!--MD5=[32b187216a6f3311c71a31eef342b5f6]
class Nota--><rect codeLine="27" fill="#282828" height="73.6094" id="Nota" rx="7.5" ry="7.5" style="stroke:#504945;stroke-width:1.5;" width="168" x="628" y="378.9531"/><ellipse cx="692.75" cy="394.9531" fill="#B8BB26" rx="11" ry="11" style="stroke:#B8BB26;stroke-width:1.0;"/><path d="M692.9531,401.5938 Q692.4844,401.5938 692.0313,401.5 Q691.5781,401.4063 691.1563,401.1719 Q690.75,400.9375 690.4375,400.5781 Q690.125,400.2188 689.9375,399.7969 Q689.75,399.3594 689.6719,398.8906 Q689.6094,398.4219 689.6094,397.9688 L689.6094,392.4375 Q689.6094,391.9844 689.6719,391.5156 Q689.75,391.0469 689.9375,390.625 Q690.125,390.2031 690.4375,389.8438 Q690.75,389.4688 691.1563,389.25 Q691.5781,389.0156 692.0313,388.9219 Q692.4844,388.8281 692.9531,388.8281 Q693.3906,388.8281 693.8281,388.9063 Q694.2656,388.9688 694.6563,389.1719 Q695.0469,389.3594 695.3594,389.6875 Q695.6875,390 695.875,390.3906 Q696.0781,390.7813 696.1719,391.2188 Q696.2813,391.6406 696.2813,392.0938 Q696.2813,392.0938 696.2813,392.0938 Q696.2813,392.0938 696.2813,392.1094 L694.3906,392.1094 Q694.3906,392.0938 694.3906,392.0938 Q694.3906,392.0938 694.3906,392.0938 Q694.3906,391.7813 694.2969,391.4844 Q694.2188,391.1875 694.0313,390.9375 Q693.8438,390.6875 693.5469,390.5781 Q693.25,390.4531 692.9531,390.4531 Q692.7344,390.4531 692.5,390.5313 Q692.2656,390.5938 692.0938,390.75 Q691.9219,390.8906 691.7969,391.0938 Q691.6875,391.2969 691.625,391.5313 Q691.5625,391.75 691.5313,391.9844 Q691.5,392.2031 691.5,392.4375 L691.5,397.9688 Q691.5,398.2031 691.5313,398.4375 Q691.5625,398.6719 691.625,398.8906 Q691.6875,399.1094 691.7969,399.3125 Q691.9219,399.5156 692.0938,399.6719 Q692.2656,399.8281 692.5,399.8906 Q692.7344,399.9531 692.9531,399.9531 Q693.25,399.9531 693.5469,399.8438 Q693.8438,399.7188 694.0313,399.4688 Q694.2188,399.2188 694.2969,398.9219 Q694.3906,398.625 694.3906,398.3281 Q694.3906,398.3281 694.3906,398.3281 Q694.3906,398.3281 694.3906,398.3125 L696.2813,398.3125 Q696.2813,398.3281 696.2813,398.3281 Q696.2813,398.3281 696.2813,398.3281 Q696.2813,398.7656 696.1719,399.2031 Q696.0781,399.6406 695.875,400.0313 Q695.6875,400.4219 695.3594,400.7344 Q695.0469,401.0469 694.6563,401.25 Q694.2656,401.4375 693.8281,401.5156 Q693.3906,401.5938 692.9531,401.5938 Z " fill="#EBDBB2"/><text fill="#EBDBB2" font-family="Iosevka Term" font-size="12" lengthAdjust="spacing" textLength="30" x="713.25" y="399.1074">Nota</text><line style="stroke:#504945;stroke-width:1.5;" x1="629" x2="795" y1="410.9531" y2="410.9531"/><rect fill="none" height="6" style="stroke:#CC241D;stroke-width:1.0;" width="6" x="636" y="418.9531"/><text fill="#EBDBB2" font-family="Iosevka Term" font-size="11" lengthAdjust="spacing" textLength="99" x="648" y="425.1636">puntuacion : float</text><rect fill="none" height="6" style="stroke:#CC241D;stroke-width:1.0;" width="6" x="636" y="431.7578"/><text fill="#EBDBB2" font-family="Iosevka Term" font-size="11" lengthAdjust="spacing" textLength="142" x="648" y="437.9683">puntuacionMaxima : float</text><line style="stroke:#504945;stroke-width:1.5;" x1="629" x2="795" y1="444.5625" y2="444.5625"/><!--MD5=[ffd766d2ce6418bf3685451d577290a3]
class Becario--><rect codeLine="32" fill="#282828" height="60.8047" id="Becario" rx="7.5" ry="7.5" style="stroke:#504945;stroke-width:1.5;" width="89" x="385.5" y="27.9531"/><ellipse cx="405" cy="43.9531" fill="#B8BB26" rx="11" ry="11" style="stroke:#B8BB26;stroke-width:1.0;"/><path d="M405.2031,50.5938 Q404.7344,50.5938 404.2813,50.5 Q403.8281,50.4063 403.4063,50.1719 Q403,49.9375 402.6875,49.5781 Q402.375,49.2188 402.1875,48.7969 Q402,48.3594 401.9219,47.8906 Q401.8594,47.4219 401.8594,46.9688 L401.8594,41.4375 Q401.8594,40.9844 401.9219,40.5156 Q402,40.0469 402.1875,39.625 Q402.375,39.2031 402.6875,38.8438 Q403,38.4688 403.4063,38.25 Q403.8281,38.0156 404.2813,37.9219 Q404.7344,37.8281 405.2031,37.8281 Q405.6406,37.8281 406.0781,37.9063 Q406.5156,37.9688 406.9063,38.1719 Q407.2969,38.3594 407.6094,38.6875 Q407.9375,39 408.125,39.3906 Q408.3281,39.7813 408.4219,40.2188 Q408.5313,40.6406 408.5313,41.0938 Q408.5313,41.0938 408.5313,41.0938 Q408.5313,41.0938 408.5313,41.1094 L406.6406,41.1094 Q406.6406,41.0938 406.6406,41.0938 Q406.6406,41.0938 406.6406,41.0938 Q406.6406,40.7813 406.5469,40.4844 Q406.4688,40.1875 406.2813,39.9375 Q406.0938,39.6875 405.7969,39.5781 Q405.5,39.4531 405.2031,39.4531 Q404.9844,39.4531 404.75,39.5313 Q404.5156,39.5938 404.3438,39.75 Q404.1719,39.8906 404.0469,40.0938 Q403.9375,40.2969 403.875,40.5313 Q403.8125,40.75 403.7813,40.9844 Q403.75,41.2031 403.75,41.4375 L403.75,46.9688 Q403.75,47.2031 403.7813,47.4375 Q403.8125,47.6719 403.875,47.8906 Q403.9375,48.1094 404.0469,48.3125 Q404.1719,48.5156 404.3438,48.6719 Q404.5156,48.8281 404.75,48.8906 Q404.9844,48.9531 405.2031,48.9531 Q405.5,48.9531 405.7969,48.8438 Q406.0938,48.7188 406.2813,48.4688 Q406.4688,48.2188 406.5469,47.9219 Q406.6406,47.625 406.6406,47.3281 Q406.6406,47.3281 406.6406,47.3281 Q406.6406,47.3281 406.6406,47.3125 L408.5313,47.3125 Q408.5313,47.3281 408.5313,47.3281 Q408.5313,47.3281 408.5313,47.3281 Q408.5313,47.7656 408.4219,48.2031 Q408.3281,48.6406 408.125,49.0313 Q407.9375,49.4219 407.6094,49.7344 Q407.2969,50.0469 406.9063,50.25 Q406.5156,50.4375 406.0781,50.5156 Q405.6406,50.5938 405.2031,50.5938 Z " fill="#EBDBB2"/><text fill="#EBDBB2" font-family="Iosevka Term" font-size="12" lengthAdjust="spacing" textLength="47" x="420" y="48.1074">Becario</text><line style="stroke:#504945;stroke-width:1.5;" x1="386.5" x2="473.5" y1="59.9531" y2="59.9531"/><rect fill="none" height="6" style="stroke:#CC241D;stroke-width:1.0;" width="6" x="393.5" y="67.9531"/><text fill="#EBDBB2" font-family="Iosevka Term" font-size="11" lengthAdjust="spacing" textLength="63" x="405.5" y="74.1636">codigo : int</text><line style="stroke:#504945;stroke-width:1.5;" x1="386.5" x2="473.5" y1="80.7578" y2="80.7578"/><!--MD5=[6f0827b53b9efc00d4d563e4c81da5fd]
class Beca--><rect codeLine="36" fill="#282828" height="60.8047" id="Beca" rx="7.5" ry="7.5" style="stroke:#504945;stroke-width:1.5;" width="135" x="109.5" y="27.9531"/><ellipse cx="157.25" cy="43.9531" fill="#B8BB26" rx="11" ry="11" style="stroke:#B8BB26;stroke-width:1.0;"/><path d="M157.4531,50.5938 Q156.9844,50.5938 156.5313,50.5 Q156.0781,50.4063 155.6563,50.1719 Q155.25,49.9375 154.9375,49.5781 Q154.625,49.2188 154.4375,48.7969 Q154.25,48.3594 154.1719,47.8906 Q154.1094,47.4219 154.1094,46.9688 L154.1094,41.4375 Q154.1094,40.9844 154.1719,40.5156 Q154.25,40.0469 154.4375,39.625 Q154.625,39.2031 154.9375,38.8438 Q155.25,38.4688 155.6563,38.25 Q156.0781,38.0156 156.5313,37.9219 Q156.9844,37.8281 157.4531,37.8281 Q157.8906,37.8281 158.3281,37.9063 Q158.7656,37.9688 159.1563,38.1719 Q159.5469,38.3594 159.8594,38.6875 Q160.1875,39 160.375,39.3906 Q160.5781,39.7813 160.6719,40.2188 Q160.7813,40.6406 160.7813,41.0938 Q160.7813,41.0938 160.7813,41.0938 Q160.7813,41.0938 160.7813,41.1094 L158.8906,41.1094 Q158.8906,41.0938 158.8906,41.0938 Q158.8906,41.0938 158.8906,41.0938 Q158.8906,40.7813 158.7969,40.4844 Q158.7188,40.1875 158.5313,39.9375 Q158.3438,39.6875 158.0469,39.5781 Q157.75,39.4531 157.4531,39.4531 Q157.2344,39.4531 157,39.5313 Q156.7656,39.5938 156.5938,39.75 Q156.4219,39.8906 156.2969,40.0938 Q156.1875,40.2969 156.125,40.5313 Q156.0625,40.75 156.0313,40.9844 Q156,41.2031 156,41.4375 L156,46.9688 Q156,47.2031 156.0313,47.4375 Q156.0625,47.6719 156.125,47.8906 Q156.1875,48.1094 156.2969,48.3125 Q156.4219,48.5156 156.5938,48.6719 Q156.7656,48.8281 157,48.8906 Q157.2344,48.9531 157.4531,48.9531 Q157.75,48.9531 158.0469,48.8438 Q158.3438,48.7188 158.5313,48.4688 Q158.7188,48.2188 158.7969,47.9219 Q158.8906,47.625 158.8906,47.3281 Q158.8906,47.3281 158.8906,47.3281 Q158.8906,47.3281 158.8906,47.3125 L160.7813,47.3125 Q160.7813,47.3281 160.7813,47.3281 Q160.7813,47.3281 160.7813,47.3281 Q160.7813,47.7656 160.6719,48.2031 Q160.5781,48.6406 160.375,49.0313 Q160.1875,49.4219 159.8594,49.7344 Q159.5469,50.0469 159.1563,50.25 Q158.7656,50.4375 158.3281,50.5156 Q157.8906,50.5938 157.4531,50.5938 Z " fill="#EBDBB2"/><text fill="#EBDBB2" font-family="Iosevka Term" font-size="12" lengthAdjust="spacing" textLength="31" x="177.75" y="48.1074">Beca</text><line style="stroke:#504945;stroke-width:1.5;" x1="110.5" x2="243.5" y1="59.9531" y2="59.9531"/><rect fill="none" height="6" style="stroke:#CC241D;stroke-width:1.0;" width="6" x="117.5" y="67.9531"/><text fill="#EBDBB2" font-family="Iosevka Term" font-size="11" lengthAdjust="spacing" textLength="109" x="129.5" y="74.1636">importeBeca : float</text><line style="stroke:#504945;stroke-width:1.5;" x1="110.5" x2="243.5" y1="80.7578" y2="80.7578"/><!--MD5=[ba2b4c83d307e647b8c7e3d62f712e68]
class Matricula--><rect codeLine="40" fill="#282828" height="48" id="Matricula" rx="7.5" ry="7.5" style="stroke:#504945;stroke-width:1.5;" width="89" x="229.5" y="391.9531"/><ellipse cx="244.5" cy="407.9531" fill="#B8BB26" rx="11" ry="11" style="stroke:#B8BB26;stroke-width:1.0;"/><path d="M244.7031,414.5938 Q244.2344,414.5938 243.7813,414.5 Q243.3281,414.4063 242.9063,414.1719 Q242.5,413.9375 242.1875,413.5781 Q241.875,413.2188 241.6875,412.7969 Q241.5,412.3594 241.4219,411.8906 Q241.3594,411.4219 241.3594,410.9688 L241.3594,405.4375 Q241.3594,404.9844 241.4219,404.5156 Q241.5,404.0469 241.6875,403.625 Q241.875,403.2031 242.1875,402.8438 Q242.5,402.4688 242.9063,402.25 Q243.3281,402.0156 243.7813,401.9219 Q244.2344,401.8281 244.7031,401.8281 Q245.1406,401.8281 245.5781,401.9063 Q246.0156,401.9688 246.4063,402.1719 Q246.7969,402.3594 247.1094,402.6875 Q247.4375,403 247.625,403.3906 Q247.8281,403.7813 247.9219,404.2188 Q248.0313,404.6406 248.0313,405.0938 Q248.0313,405.0938 248.0313,405.0938 Q248.0313,405.0938 248.0313,405.1094 L246.1406,405.1094 Q246.1406,405.0938 246.1406,405.0938 Q246.1406,405.0938 246.1406,405.0938 Q246.1406,404.7813 246.0469,404.4844 Q245.9688,404.1875 245.7813,403.9375 Q245.5938,403.6875 245.2969,403.5781 Q245,403.4531 244.7031,403.4531 Q244.4844,403.4531 244.25,403.5313 Q244.0156,403.5938 243.8438,403.75 Q243.6719,403.8906 243.5469,404.0938 Q243.4375,404.2969 243.375,404.5313 Q243.3125,404.75 243.2813,404.9844 Q243.25,405.2031 243.25,405.4375 L243.25,410.9688 Q243.25,411.2031 243.2813,411.4375 Q243.3125,411.6719 243.375,411.8906 Q243.4375,412.1094 243.5469,412.3125 Q243.6719,412.5156 243.8438,412.6719 Q244.0156,412.8281 244.25,412.8906 Q244.4844,412.9531 244.7031,412.9531 Q245,412.9531 245.2969,412.8438 Q245.5938,412.7188 245.7813,412.4688 Q245.9688,412.2188 246.0469,411.9219 Q246.1406,411.625 246.1406,411.3281 Q246.1406,411.3281 246.1406,411.3281 Q246.1406,411.3281 246.1406,411.3125 L248.0313,411.3125 Q248.0313,411.3281 248.0313,411.3281 Q248.0313,411.3281 248.0313,411.3281 Q248.0313,411.7656 247.9219,412.2031 Q247.8281,412.6406 247.625,413.0313 Q247.4375,413.4219 247.1094,413.7344 Q246.7969,414.0469 246.4063,414.25 Q246.0156,414.4375 245.5781,414.5156 Q245.1406,414.5938 244.7031,414.5938 Z " fill="#EBDBB2"/><text fill="#EBDBB2" font-family="Iosevka Term" font-size="12" lengthAdjust="spacing" textLength="57" x="258.5" y="412.1074">Matricula</text><line style="stroke:#504945;stroke-width:1.5;" x1="230.5" x2="317.5" y1="423.9531" y2="423.9531"/><line style="stroke:#504945;stroke-width:1.5;" x1="230.5" x2="317.5" y1="431.9531" y2="431.9531"/><!--MD5=[dd3b13c530c963ada90a48d1c3f4bdb3]
class Profesor--><rect codeLine="42" fill="#282828" height="48" id="Profesor" rx="7.5" ry="7.5" style="stroke:#504945;stroke-width:1.5;" width="85" x="117.5" y="689.9531"/><ellipse cx="132.5" cy="705.9531" fill="#B8BB26" rx="11" ry="11" style="stroke:#B8BB26;stroke-width:1.0;"/><path d="M132.7031,712.5938 Q132.2344,712.5938 131.7813,712.5 Q131.3281,712.4063 130.9063,712.1719 Q130.5,711.9375 130.1875,711.5781 Q129.875,711.2188 129.6875,710.7969 Q129.5,710.3594 129.4219,709.8906 Q129.3594,709.4219 129.3594,708.9688 L129.3594,703.4375 Q129.3594,702.9844 129.4219,702.5156 Q129.5,702.0469 129.6875,701.625 Q129.875,701.2031 130.1875,700.8438 Q130.5,700.4688 130.9063,700.25 Q131.3281,700.0156 131.7813,699.9219 Q132.2344,699.8281 132.7031,699.8281 Q133.1406,699.8281 133.5781,699.9063 Q134.0156,699.9688 134.4063,700.1719 Q134.7969,700.3594 135.1094,700.6875 Q135.4375,701 135.625,701.3906 Q135.8281,701.7813 135.9219,702.2188 Q136.0313,702.6406 136.0313,703.0938 Q136.0313,703.0938 136.0313,703.0938 Q136.0313,703.0938 136.0313,703.1094 L134.1406,703.1094 Q134.1406,703.0938 134.1406,703.0938 Q134.1406,703.0938 134.1406,703.0938 Q134.1406,702.7813 134.0469,702.4844 Q133.9688,702.1875 133.7813,701.9375 Q133.5938,701.6875 133.2969,701.5781 Q133,701.4531 132.7031,701.4531 Q132.4844,701.4531 132.25,701.5313 Q132.0156,701.5938 131.8438,701.75 Q131.6719,701.8906 131.5469,702.0938 Q131.4375,702.2969 131.375,702.5313 Q131.3125,702.75 131.2813,702.9844 Q131.25,703.2031 131.25,703.4375 L131.25,708.9688 Q131.25,709.2031 131.2813,709.4375 Q131.3125,709.6719 131.375,709.8906 Q131.4375,710.1094 131.5469,710.3125 Q131.6719,710.5156 131.8438,710.6719 Q132.0156,710.8281 132.25,710.8906 Q132.4844,710.9531 132.7031,710.9531 Q133,710.9531 133.2969,710.8438 Q133.5938,710.7188 133.7813,710.4688 Q133.9688,710.2188 134.0469,709.9219 Q134.1406,709.625 134.1406,709.3281 Q134.1406,709.3281 134.1406,709.3281 Q134.1406,709.3281 134.1406,709.3125 L136.0313,709.3125 Q136.0313,709.3281 136.0313,709.3281 Q136.0313,709.3281 136.0313,709.3281 Q136.0313,709.7656 135.9219,710.2031 Q135.8281,710.6406 135.625,711.0313 Q135.4375,711.4219 135.1094,711.7344 Q134.7969,712.0469 134.4063,712.25 Q134.0156,712.4375 133.5781,712.5156 Q133.1406,712.5938 132.7031,712.5938 Z " fill="#EBDBB2"/><text fill="#EBDBB2" font-family="Iosevka Term" font-size="12" lengthAdjust="spacing" textLength="53" x="146.5" y="710.1074">Profesor</text><line style="stroke:#504945;stroke-width:1.5;" x1="118.5" x2="201.5" y1="721.9531" y2="721.9531"/><line style="stroke:#504945;stroke-width:1.5;" x1="118.5" x2="201.5" y1="729.9531" y2="729.9531"/><!--MD5=[aa9ebb045d22ec940c587c7180c59f8b]
class Curso--><rect codeLine="43" fill="#282828" height="48" id="Curso" rx="7.5" ry="7.5" style="stroke:#504945;stroke-width:1.5;" width="68" x="385" y="689.9531"/><ellipse cx="400" cy="705.9531" fill="#B8BB26" rx="11" ry="11" style="stroke:#B8BB26;stroke-width:1.0;"/><path d="M400.2031,712.5938 Q399.7344,712.5938 399.2813,712.5 Q398.8281,712.4063 398.4063,712.1719 Q398,711.9375 397.6875,711.5781 Q397.375,711.2188 397.1875,710.7969 Q397,710.3594 396.9219,709.8906 Q396.8594,709.4219 396.8594,708.9688 L396.8594,703.4375 Q396.8594,702.9844 396.9219,702.5156 Q397,702.0469 397.1875,701.625 Q397.375,701.2031 397.6875,700.8438 Q398,700.4688 398.4063,700.25 Q398.8281,700.0156 399.2813,699.9219 Q399.7344,699.8281 400.2031,699.8281 Q400.6406,699.8281 401.0781,699.9063 Q401.5156,699.9688 401.9063,700.1719 Q402.2969,700.3594 402.6094,700.6875 Q402.9375,701 403.125,701.3906 Q403.3281,701.7813 403.4219,702.2188 Q403.5313,702.6406 403.5313,703.0938 Q403.5313,703.0938 403.5313,703.0938 Q403.5313,703.0938 403.5313,703.1094 L401.6406,703.1094 Q401.6406,703.0938 401.6406,703.0938 Q401.6406,703.0938 401.6406,703.0938 Q401.6406,702.7813 401.5469,702.4844 Q401.4688,702.1875 401.2813,701.9375 Q401.0938,701.6875 400.7969,701.5781 Q400.5,701.4531 400.2031,701.4531 Q399.9844,701.4531 399.75,701.5313 Q399.5156,701.5938 399.3438,701.75 Q399.1719,701.8906 399.0469,702.0938 Q398.9375,702.2969 398.875,702.5313 Q398.8125,702.75 398.7813,702.9844 Q398.75,703.2031 398.75,703.4375 L398.75,708.9688 Q398.75,709.2031 398.7813,709.4375 Q398.8125,709.6719 398.875,709.8906 Q398.9375,710.1094 399.0469,710.3125 Q399.1719,710.5156 399.3438,710.6719 Q399.5156,710.8281 399.75,710.8906 Q399.9844,710.9531 400.2031,710.9531 Q400.5,710.9531 400.7969,710.8438 Q401.0938,710.7188 401.2813,710.4688 Q401.4688,710.2188 401.5469,709.9219 Q401.6406,709.625 401.6406,709.3281 Q401.6406,709.3281 401.6406,709.3281 Q401.6406,709.3281 401.6406,709.3125 L403.5313,709.3125 Q403.5313,709.3281 403.5313,709.3281 Q403.5313,709.3281 403.5313,709.3281 Q403.5313,709.7656 403.4219,710.2031 Q403.3281,710.6406 403.125,711.0313 Q402.9375,711.4219 402.6094,711.7344 Q402.2969,712.0469 401.9063,712.25 Q401.5156,712.4375 401.0781,712.5156 Q400.6406,712.5938 400.2031,712.5938 Z " fill="#EBDBB2"/><text fill="#EBDBB2" font-family="Iosevka Term" font-size="12" lengthAdjust="spacing" textLength="36" x="414" y="710.1074">Curso</text><line style="stroke:#504945;stroke-width:1.5;" x1="386" x2="452" y1="721.9531" y2="721.9531"/><line style="stroke:#504945;stroke-width:1.5;" x1="386" x2="452" y1="729.9531" y2="729.9531"/><ellipse cx="421" cy="415.9531" fill="#000000" rx="2" ry="2" style="stroke:none;stroke-width:1.0;"/><ellipse cx="526" cy="415.9531" fill="#000000" rx="2" ry="2" style="stroke:none;stroke-width:1.0;"/><!--MD5=[78477f461b16805ec7ce90df3096a495]
reverse link Persona to Estudiante--><path codeLine="47" d="M167.32,259.0231 C197.59,262.3931 232.5,263.8431 266.75,263.3631 " fill="none" id="Persona-backto-Estudiante" style="stroke:#689D6A;stroke-width:1.0;"/><!--MD5=[7e5e1d89350361ba3d0d9bd5cc597e0c]
link Becario to Estudiante--><path codeLine="49" d="M430,89.0431 C430,107.7331 430,132.7131 430,156.1531 " fill="none" id="Becario-to-Estudiante" style="stroke:#689D6A;stroke-width:1.0;"/><polygon fill="none" points="437,156.1531,430,176.1531,423,156.1531,437,156.1531" style="stroke:#689D6A;stroke-width:1.0;"/><!--MD5=[77cc52540d7f4eea2e2d4c7a1ced23a8]
reverse link Estudiante to apoint15--><path d="M392.59,280.0731 C383.35,296.0231 374.75,314.0531 370,331.9531 C359.76,370.5331 411.74,408.5231 419.93,414.2231 " fill="none" id="Estudiante-backto-apoint15" style="stroke:#689D6A;stroke-width:1.0;"/><polygon fill="#689D6A" points="395.21,275.6331,387.1858,281.3439,392.6649,279.9369,394.0719,285.416,395.21,275.6331" style="stroke:#689D6A;stroke-width:1.0;"/><text fill="#EBDBB2" font-family="Iosevka Term" font-size="13" lengthAdjust="spacing" textLength="60" x="371" y="345.02">matricula</text><text fill="#EBDBB2" font-family="Iosevka Term" font-size="13" lengthAdjust="spacing" textLength="23" x="365.7005" y="295.7349">0..*</text><!--MD5=[9632e06187f6315616ff03c9454dbabd]
link apoint15 to Asignatura--><path d="M420.98,418.2131 C420.87,426.2431 420.25,471.1631 419.74,508.7731 " fill="none" id="apoint15-to-Asignatura" style="stroke:#689D6A;stroke-width:1.0;"/><polygon fill="#689D6A" points="419.67,513.7931,423.7982,504.8512,419.7414,508.7936,415.799,504.7369,419.67,513.7931" style="stroke:#689D6A;stroke-width:1.0;"/><text fill="#EBDBB2" font-family="Iosevka Term" font-size="13" lengthAdjust="spacing" textLength="23" x="395.147" y="502.8159">1..*</text><!--MD5=[271922158e098baec5ef805850c40ff5]
reverse link Estudiante to apoint21--><path d="M457.35,280.5031 C483.9,332.5031 520.87,404.9131 525.51,414.0031 " fill="none" id="Estudiante-backto-apoint21" style="stroke:#689D6A;stroke-width:1.0;"/><polygon fill="#689D6A" points="454.97,275.8531,455.5054,285.6874,457.2461,280.305,462.6284,282.0457,454.97,275.8531" style="stroke:#689D6A;stroke-width:1.0;"/><text fill="#EBDBB2" font-family="Iosevka Term" font-size="13" lengthAdjust="spacing" textLength="55" x="493" y="345.02">examina</text><text fill="#EBDBB2" font-family="Iosevka Term" font-size="13" lengthAdjust="spacing" textLength="23" x="433.78" y="295.6274">0..*</text><!--MD5=[b8dd1a25e59af3274d3106ac2bc25226]
link apoint21 to Asignatura--><path d="M525.32,417.8831 C520.1,424.9831 485.97,471.3931 457.76,509.7431 " fill="none" id="apoint21-to-Asignatura" style="stroke:#689D6A;stroke-width:1.0;"/><polygon fill="#689D6A" points="454.7,513.9031,463.2614,509.0346,457.6679,509.8793,456.8232,504.2859,454.7,513.9031" style="stroke:#689D6A;stroke-width:1.0;"/><text fill="#EBDBB2" font-family="Iosevka Term" font-size="13" lengthAdjust="spacing" textLength="23" x="435.1031" y="502.9413">1..*</text><!--MD5=[825736b97410e95c6505463511ac24f7]
link Matricula to apoint15--><path d="M318.5,415.9531 C352,415.9531 385.5,415.9531 419,415.9531 " fill="none" id="Matricula-apoint15" style="stroke:#689D6A;stroke-width:1.0;stroke-dasharray:7.0,7.0;"/><!--MD5=[080233c25c13a1dc8e3c92bbc7264e17]
link apoint21 to Nota--><path d="M528.18,415.9531 C561.45,415.9531 594.72,415.9531 627.99,415.9531 " fill="none" id="apoint21-Nota" style="stroke:#689D6A;stroke-width:1.0;stroke-dasharray:7.0,7.0;"/><!--MD5=[245649ed7e48762b19a5dc879decc823]
link apoint15 to apoint21--><!--MD5=[b058eb18565fa41b8f5f0bf7b06390f9]
reverse link Beca to Becario--><path codeLine="55" d="M249.8,58.4531 C293.5,58.4531 347.69,58.4531 385.17,58.4531 " fill="none" id="Beca-backto-Becario" style="stroke:#689D6A;stroke-width:1.0;"/><polygon fill="#689D6A" points="244.8,58.4531,253.8,62.4531,249.8,58.4531,253.8,54.4531,244.8,58.4531" style="stroke:#689D6A;stroke-width:1.0;"/><text fill="#EBDBB2" font-family="Iosevka Term" font-size="13" lengthAdjust="spacing" textLength="39" x="295.5" y="51.52">recibe</text><text fill="#EBDBB2" font-family="Iosevka Term" font-size="13" lengthAdjust="spacing" textLength="8" x="252.6531" y="54.7177">1</text><text fill="#EBDBB2" font-family="Iosevka Term" font-size="13" lengthAdjust="spacing" textLength="23" x="354.6007" y="54.5343">0..*</text><!--MD5=[c350c257aa407744662cf80c319b213a]
link Asignatura to Profesor--><path codeLine="57" d="M334.19,613.0731 C291.13,637.7731 240.55,666.7631 205.02,687.1431 " fill="none" id="Asignatura-to-Profesor" style="stroke:#689D6A;stroke-width:1.0;"/><polygon fill="#689D6A" points="200.33,689.8331,210.128,688.8339,204.6695,687.3494,206.154,681.8908,200.33,689.8331" style="stroke:#689D6A;stroke-width:1.0;"/><text fill="#EBDBB2" font-family="Iosevka Term" font-size="13" lengthAdjust="spacing" textLength="50" x="283" y="656.02">imparte</text><text fill="#EBDBB2" font-family="Iosevka Term" font-size="13" lengthAdjust="spacing" textLength="23" x="297.6464" y="633.1665">1..*</text><text fill="#EBDBB2" font-family="Iosevka Term" font-size="13" lengthAdjust="spacing" textLength="8" x="201.6396" y="678.8144">1</text><!--MD5=[854db1adf864bce446a41f9f8b6a4789]
link Asignatura to Curso--><path codeLine="58" d="M419,613.0731 C419,636.6831 419,664.2231 419,684.4031 " fill="none" id="Asignatura-to-Curso" style="stroke:#689D6A;stroke-width:1.0;"/><polygon fill="#689D6A" points="419,689.6231,423,680.6231,419,684.6231,415,680.6231,419,689.6231" style="stroke:#689D6A;stroke-width:1.0;"/><text fill="#EBDBB2" font-family="Iosevka Term" font-size="13" lengthAdjust="spacing" textLength="65" x="420" y="656.02">pertenece</text><text fill="#EBDBB2" font-family="Iosevka Term" font-size="13" lengthAdjust="spacing" textLength="23" x="394.3828" y="633.1665">1..*</text><text fill="#EBDBB2" font-family="Iosevka Term" font-size="13" lengthAdjust="spacing" textLength="8" x="410.025" y="678.9476">1</text><!--MD5=[9e09bab47cb2ac82a022484be85e74c3]
reverse link Persona to Profesor--><path codeLine="60" d="M167,301.9531 C167,301.9531 161.88,602.7331 160.4,689.6831 " fill="none" id="Persona-backto-Profesor" style="stroke:#689D6A;stroke-width:1.0;"/><!--MD5=[e6f56b133923a49ab4a7038e1b9f8159]
@startuml
title Matricula en la Universidad

!include plantuml-config.txt

class Persona {
        # dni : String
        # nombre : Strig
        # direccion : String
        # estadoCivil : String
        - darseDeAlta() : void
}

class Estudiante {
        - listarAsignaturas() : Asignatura *
        - listarNotas() : Nota *
        - matricular(Asignatura a) : void
        - examinar(Asignatura a, float pts, float ptsMax) : void
}

class Asignatura {
        - codigo : int
        - nombre : String
        - listarEstudiantes() : Estudiante *
        - listarNotas() : Nota *
}

class Nota {
        - puntuacion : float
        - puntuacionMaxima : float
}

class Becario {
        - codigo : int
}

class Beca {
        - importeBeca : float
}

class Matricula

class Profesor
class Curso

skinparam Nodesep 100

Persona <|- Estudiante

Estudiante <|-u- Becario
Estudiante "0..*" <- -> "1..*" Asignatura : matricula
(Estudiante,Asignatura) .. Matricula
Estudiante "0..*" <- -> "1..*" Asignatura : examina
(Estudiante,Asignatura) .. Nota

Becario "0..*" -l> "1" Beca : recibe

Asignatura "1..*" - -> "1" Profesor : imparte
Asignatura "1..*" - -> "1" Curso : pertenece

Profesor -l-|> Persona
@enduml

@startuml
title Matricula en la Universidad

skinparam groupInheritance 2

skinparam Default {
        FontName Iosevka Term
        FontColor #ebdbb2
}

skinparam BackgroundColor #1d2021
skinparam Shadowing false
skinparam RoundCorner 15

skinparam Class {
        BackgroundColor #282828
        BorderColor #504945
        ArrowColor #689d6a
}

skinparam Stereotype {
        CBackgroundColor #b8bb26
        CBorderColor #b8bb26
        EBackgroundColor #fe8019
        EBorderColor #fe8019
        ABackgroundColor #83a598
        ABorderColor #83a598
}

skinparam Icon {
        PrivateColor #cc241d
        PrivateBackgroundColor #cc241d
        ProtectedColor #d79921
        ProtectedBackgroundColor #d79921
}

class Persona {
        # dni : String
        # nombre : Strig
        # direccion : String
        # estadoCivil : String
        - darseDeAlta() : void
}

class Estudiante {
        - listarAsignaturas() : Asignatura *
        - listarNotas() : Nota *
        - matricular(Asignatura a) : void
        - examinar(Asignatura a, float pts, float ptsMax) : void
}

class Asignatura {
        - codigo : int
        - nombre : String
        - listarEstudiantes() : Estudiante *
        - listarNotas() : Nota *
}

class Nota {
        - puntuacion : float
        - puntuacionMaxima : float
}

class Becario {
        - codigo : int
}

class Beca {
        - importeBeca : float
}

class Matricula

class Profesor
class Curso

skinparam Nodesep 100

Persona <|- Estudiante

Estudiante <|-u- Becario
Estudiante "0..*" <- -> "1..*" Asignatura : matricula
(Estudiante,Asignatura) .. Matricula
Estudiante "0..*" <- -> "1..*" Asignatura : examina
(Estudiante,Asignatura) .. Nota

Becario "0..*" -l> "1" Beca : recibe

Asignatura "1..*" - -> "1" Profesor : imparte
Asignatura "1..*" - -> "1" Curso : pertenece

Profesor -l-|> Persona
@enduml

PlantUML version 1.2021.16(Wed Dec 08 18:25:22 CET 2021)
(GPL source distribution)
Java Runtime: OpenJDK Runtime Environment
JVM: OpenJDK 64-Bit Server VM
Default Encoding: UTF-8
Language: en
Country: US
--></g></svg>