<?xml version="1.0" encoding="UTF-8" standalone="no"?><svg xmlns="http://www.w3.org/2000/svg" xmlns:xlink="http://www.w3.org/1999/xlink" contentScriptType="application/ecmascript" contentStyleType="text/css" height="569px" preserveAspectRatio="none" style="width:679px;height:569px;background:#1D2021;" version="1.1" viewBox="0 0 679 569" width="679px" zoomAndPan="magnify"><defs/><g><text fill="#EBDBB2" font-family="Iosevka Term" font-size="18" lengthAdjust="spacing" x="212.5" y="16.708">Matricula en la Universidad</text><!--MD5=[8f63dadf5c643e74a34e53c8f0a15d23]
class Persona--><rect codeLine="5" fill="#282828" height="112.0234" id="Persona" rx="7.5" ry="7.5" style="stroke:#504945;stroke-width:1.5;" width="138" x="9" y="162.9531"/><ellipse cx="48.3" cy="178.9531" fill="#B8BB26" rx="11" ry="11" style="stroke:#B8BB26;stroke-width:1.0;"/><path d="M48.5031,185.5938 Q48.0344,185.5938 47.5813,185.5 Q47.1281,185.4063 46.7063,185.1719 Q46.3,184.9375 45.9875,184.5781 Q45.675,184.2188 45.4875,183.7969 Q45.3,183.3594 45.2219,182.8906 Q45.1594,182.4219 45.1594,181.9688 L45.1594,176.4375 Q45.1594,175.9844 45.2219,175.5156 Q45.3,175.0469 45.4875,174.625 Q45.675,174.2031 45.9875,173.8438 Q46.3,173.4688 46.7063,173.25 Q47.1281,173.0156 47.5813,172.9219 Q48.0344,172.8281 48.5031,172.8281 Q48.9406,172.8281 49.3781,172.9063 Q49.8156,172.9688 50.2063,173.1719 Q50.5969,173.3594 50.9094,173.6875 Q51.2375,174 51.425,174.3906 Q51.6281,174.7813 51.7219,175.2188 Q51.8313,175.6406 51.8313,176.0938 Q51.8313,176.0938 51.8313,176.0938 Q51.8313,176.0938 51.8313,176.1094 L49.9406,176.1094 Q49.9406,176.0938 49.9406,176.0938 Q49.9406,176.0938 49.9406,176.0938 Q49.9406,175.7813 49.8469,175.4844 Q49.7688,175.1875 49.5813,174.9375 Q49.3938,174.6875 49.0969,174.5781 Q48.8,174.4531 48.5031,174.4531 Q48.2844,174.4531 48.05,174.5313 Q47.8156,174.5938 47.6438,174.75 Q47.4719,174.8906 47.3469,175.0938 Q47.2375,175.2969 47.175,175.5313 Q47.1125,175.75 47.0813,175.9844 Q47.05,176.2031 47.05,176.4375 L47.05,181.9688 Q47.05,182.2031 47.0813,182.4375 Q47.1125,182.6719 47.175,182.8906 Q47.2375,183.1094 47.3469,183.3125 Q47.4719,183.5156 47.6438,183.6719 Q47.8156,183.8281 48.05,183.8906 Q48.2844,183.9531 48.5031,183.9531 Q48.8,183.9531 49.0969,183.8438 Q49.3938,183.7188 49.5813,183.4688 Q49.7688,183.2188 49.8469,182.9219 Q49.9406,182.625 49.9406,182.3281 Q49.9406,182.3281 49.9406,182.3281 Q49.9406,182.3281 49.9406,182.3125 L51.8313,182.3125 Q51.8313,182.3281 51.8313,182.3281 Q51.8313,182.3281 51.8313,182.3281 Q51.8313,182.7656 51.7219,183.2031 Q51.6281,183.6406 51.425,184.0313 Q51.2375,184.4219 50.9094,184.7344 Q50.5969,185.0469 50.2063,185.25 Q49.8156,185.4375 49.3781,185.5156 Q48.9406,185.5938 48.5031,185.5938 Z " fill="#EBDBB2"/><text fill="#EBDBB2" font-family="Iosevka Term" font-size="12" lengthAdjust="spacing" x="67.7" y="183.1074">Persona</text><line style="stroke:#504945;stroke-width:1.5;" x1="10" x2="146" y1="194.9531" y2="194.9531"/><polygon fill="none" points="20,200.9531,24,204.9531,20,208.9531,16,204.9531" style="stroke:#D79921;stroke-width:1.0;"/><text fill="#EBDBB2" font-family="Iosevka Term" font-size="11" lengthAdjust="spacing" x="29" y="209.1636">dni : String</text><polygon fill="none" points="20,213.7578,24,217.7578,20,221.7578,16,217.7578" style="stroke:#D79921;stroke-width:1.0;"/><text fill="#EBDBB2" font-family="Iosevka Term" font-size="11" lengthAdjust="spacing" x="29" y="221.9683">nombre : Strig</text><polygon fill="none" points="20,226.5625,24,230.5625,20,234.5625,16,230.5625" style="stroke:#D79921;stroke-width:1.0;"/><text fill="#EBDBB2" font-family="Iosevka Term" font-size="11" lengthAdjust="spacing" x="29" y="234.7729">direccion : String</text><polygon fill="none" points="20,239.3672,24,243.3672,20,247.3672,16,243.3672" style="stroke:#D79921;stroke-width:1.0;"/><text fill="#EBDBB2" font-family="Iosevka Term" font-size="11" lengthAdjust="spacing" x="29" y="247.5776">estadoCivil : String</text><line style="stroke:#504945;stroke-width:1.5;" x1="10" x2="146" y1="254.1719" y2="254.1719"/><polygon fill="#D79921" points="20,260.1719,24,264.1719,20,268.1719,16,264.1719" style="stroke:#D79921;stroke-width:1.0;"/><text fill="#EBDBB2" font-family="Iosevka Term" font-size="11" lengthAdjust="spacing" x="29" y="268.3823">darseDeAlta() : void</text><!--MD5=[9196e7f5424c8ba52e10312e1fe81956]
class Estudiante--><rect codeLine="13" fill="#282828" height="99.2188" id="Estudiante" rx="7.5" ry="7.5" style="stroke:#504945;stroke-width:1.5;" width="323" x="247.5" y="169.4531"/><ellipse cx="370.75" cy="185.4531" fill="#B8BB26" rx="11" ry="11" style="stroke:#B8BB26;stroke-width:1.0;"/><path d="M370.9531,192.0938 Q370.4844,192.0938 370.0313,192 Q369.5781,191.9063 369.1563,191.6719 Q368.75,191.4375 368.4375,191.0781 Q368.125,190.7188 367.9375,190.2969 Q367.75,189.8594 367.6719,189.3906 Q367.6094,188.9219 367.6094,188.4688 L367.6094,182.9375 Q367.6094,182.4844 367.6719,182.0156 Q367.75,181.5469 367.9375,181.125 Q368.125,180.7031 368.4375,180.3438 Q368.75,179.9688 369.1563,179.75 Q369.5781,179.5156 370.0313,179.4219 Q370.4844,179.3281 370.9531,179.3281 Q371.3906,179.3281 371.8281,179.4063 Q372.2656,179.4688 372.6563,179.6719 Q373.0469,179.8594 373.3594,180.1875 Q373.6875,180.5 373.875,180.8906 Q374.0781,181.2813 374.1719,181.7188 Q374.2813,182.1406 374.2813,182.5938 Q374.2813,182.5938 374.2813,182.5938 Q374.2813,182.5938 374.2813,182.6094 L372.3906,182.6094 Q372.3906,182.5938 372.3906,182.5938 Q372.3906,182.5938 372.3906,182.5938 Q372.3906,182.2813 372.2969,181.9844 Q372.2188,181.6875 372.0313,181.4375 Q371.8438,181.1875 371.5469,181.0781 Q371.25,180.9531 370.9531,180.9531 Q370.7344,180.9531 370.5,181.0313 Q370.2656,181.0938 370.0938,181.25 Q369.9219,181.3906 369.7969,181.5938 Q369.6875,181.7969 369.625,182.0313 Q369.5625,182.25 369.5313,182.4844 Q369.5,182.7031 369.5,182.9375 L369.5,188.4688 Q369.5,188.7031 369.5313,188.9375 Q369.5625,189.1719 369.625,189.3906 Q369.6875,189.6094 369.7969,189.8125 Q369.9219,190.0156 370.0938,190.1719 Q370.2656,190.3281 370.5,190.3906 Q370.7344,190.4531 370.9531,190.4531 Q371.25,190.4531 371.5469,190.3438 Q371.8438,190.2188 372.0313,189.9688 Q372.2188,189.7188 372.2969,189.4219 Q372.3906,189.125 372.3906,188.8281 Q372.3906,188.8281 372.3906,188.8281 Q372.3906,188.8281 372.3906,188.8125 L374.2813,188.8125 Q374.2813,188.8281 374.2813,188.8281 Q374.2813,188.8281 374.2813,188.8281 Q374.2813,189.2656 374.1719,189.7031 Q374.0781,190.1406 373.875,190.5313 Q373.6875,190.9219 373.3594,191.2344 Q373.0469,191.5469 372.6563,191.75 Q372.2656,191.9375 371.8281,192.0156 Q371.3906,192.0938 370.9531,192.0938 Z " fill="#EBDBB2"/><text fill="#EBDBB2" font-family="Iosevka Term" font-size="12" lengthAdjust="spacing" x="391.25" y="189.6074">Estudiante</text><line style="stroke:#504945;stroke-width:1.5;" x1="248.5" x2="569.5" y1="201.4531" y2="201.4531"/><line style="stroke:#504945;stroke-width:1.5;" x1="248.5" x2="569.5" y1="209.4531" y2="209.4531"/><polygon fill="#D79921" points="258.5,215.4531,262.5,219.4531,258.5,223.4531,254.5,219.4531" style="stroke:#D79921;stroke-width:1.0;"/><text fill="#EBDBB2" font-family="Iosevka Term" font-size="11" lengthAdjust="spacing" x="267.5" y="223.6636">listarAsignaturas() : Asignatura *</text><polygon fill="#D79921" points="258.5,228.2578,262.5,232.2578,258.5,236.2578,254.5,232.2578" style="stroke:#D79921;stroke-width:1.0;"/><text fill="#EBDBB2" font-family="Iosevka Term" font-size="11" lengthAdjust="spacing" x="267.5" y="236.4683">listarNotas() : Nota *</text><polygon fill="#D79921" points="258.5,241.0625,262.5,245.0625,258.5,249.0625,254.5,245.0625" style="stroke:#D79921;stroke-width:1.0;"/><text fill="#EBDBB2" font-family="Iosevka Term" font-size="11" lengthAdjust="spacing" x="267.5" y="249.2729">matricular(Asignatura a) : void</text><polygon fill="#D79921" points="258.5,253.8672,262.5,257.8672,258.5,261.8672,254.5,257.8672" style="stroke:#D79921;stroke-width:1.0;"/><text fill="#EBDBB2" font-family="Iosevka Term" font-size="11" lengthAdjust="spacing" x="267.5" y="262.0776">registrar(Asignatura a, float pts, float ptsMax) : void</text><!--MD5=[b461fef6a7ba6f6fc6681ac8d845c93a]
class Asignatura--><rect codeLine="20" fill="#282828" height="86.4141" id="Asignatura" rx="7.5" ry="7.5" style="stroke:#504945;stroke-width:1.5;" width="212" x="444" y="351.9531"/><ellipse cx="511.75" cy="367.9531" fill="#B8BB26" rx="11" ry="11" style="stroke:#B8BB26;stroke-width:1.0;"/><path d="M511.9531,374.5938 Q511.4844,374.5938 511.0313,374.5 Q510.5781,374.4063 510.1563,374.1719 Q509.75,373.9375 509.4375,373.5781 Q509.125,373.2188 508.9375,372.7969 Q508.75,372.3594 508.6719,371.8906 Q508.6094,371.4219 508.6094,370.9688 L508.6094,365.4375 Q508.6094,364.9844 508.6719,364.5156 Q508.75,364.0469 508.9375,363.625 Q509.125,363.2031 509.4375,362.8438 Q509.75,362.4688 510.1563,362.25 Q510.5781,362.0156 511.0313,361.9219 Q511.4844,361.8281 511.9531,361.8281 Q512.3906,361.8281 512.8281,361.9063 Q513.2656,361.9688 513.6563,362.1719 Q514.0469,362.3594 514.3594,362.6875 Q514.6875,363 514.875,363.3906 Q515.0781,363.7813 515.1719,364.2188 Q515.2813,364.6406 515.2813,365.0938 Q515.2813,365.0938 515.2813,365.0938 Q515.2813,365.0938 515.2813,365.1094 L513.3906,365.1094 Q513.3906,365.0938 513.3906,365.0938 Q513.3906,365.0938 513.3906,365.0938 Q513.3906,364.7813 513.2969,364.4844 Q513.2188,364.1875 513.0313,363.9375 Q512.8438,363.6875 512.5469,363.5781 Q512.25,363.4531 511.9531,363.4531 Q511.7344,363.4531 511.5,363.5313 Q511.2656,363.5938 511.0938,363.75 Q510.9219,363.8906 510.7969,364.0938 Q510.6875,364.2969 510.625,364.5313 Q510.5625,364.75 510.5313,364.9844 Q510.5,365.2031 510.5,365.4375 L510.5,370.9688 Q510.5,371.2031 510.5313,371.4375 Q510.5625,371.6719 510.625,371.8906 Q510.6875,372.1094 510.7969,372.3125 Q510.9219,372.5156 511.0938,372.6719 Q511.2656,372.8281 511.5,372.8906 Q511.7344,372.9531 511.9531,372.9531 Q512.25,372.9531 512.5469,372.8438 Q512.8438,372.7188 513.0313,372.4688 Q513.2188,372.2188 513.2969,371.9219 Q513.3906,371.625 513.3906,371.3281 Q513.3906,371.3281 513.3906,371.3281 Q513.3906,371.3281 513.3906,371.3125 L515.2813,371.3125 Q515.2813,371.3281 515.2813,371.3281 Q515.2813,371.3281 515.2813,371.3281 Q515.2813,371.7656 515.1719,372.2031 Q515.0781,372.6406 514.875,373.0313 Q514.6875,373.4219 514.3594,373.7344 Q514.0469,374.0469 513.6563,374.25 Q513.2656,374.4375 512.8281,374.5156 Q512.3906,374.5938 511.9531,374.5938 Z " fill="#EBDBB2"/><text fill="#EBDBB2" font-family="Iosevka Term" font-size="12" lengthAdjust="spacing" x="532.25" y="372.1074">Asignatura</text><line style="stroke:#504945;stroke-width:1.5;" x1="445" x2="655" y1="383.9531" y2="383.9531"/><rect fill="none" height="6" style="stroke:#CC241D;stroke-width:1.0;" width="6" x="452" y="391.9531"/><text fill="#EBDBB2" font-family="Iosevka Term" font-size="11" lengthAdjust="spacing" x="464" y="398.1636">codigo : int</text><rect fill="none" height="6" style="stroke:#CC241D;stroke-width:1.0;" width="6" x="452" y="404.7578"/><text fill="#EBDBB2" font-family="Iosevka Term" font-size="11" lengthAdjust="spacing" x="464" y="410.9683">nombre : String</text><line style="stroke:#504945;stroke-width:1.5;" x1="445" x2="655" y1="417.5625" y2="417.5625"/><rect fill="#CC241D" height="6" style="stroke:#CC241D;stroke-width:1.0;" width="6" x="452" y="425.5625"/><text fill="#EBDBB2" font-family="Iosevka Term" font-size="11" lengthAdjust="spacing" x="464" y="431.7729">listarEstudiantes() : Estudiante *</text><!--MD5=[32b187216a6f3311c71a31eef342b5f6]
class Nota--><rect codeLine="26" fill="#282828" height="73.6094" id="Nota" rx="7.5" ry="7.5" style="stroke:#504945;stroke-width:1.5;" width="168" x="139" y="357.9531"/><ellipse cx="203.75" cy="373.9531" fill="#B8BB26" rx="11" ry="11" style="stroke:#B8BB26;stroke-width:1.0;"/><path d="M203.9531,380.5938 Q203.4844,380.5938 203.0313,380.5 Q202.5781,380.4063 202.1563,380.1719 Q201.75,379.9375 201.4375,379.5781 Q201.125,379.2188 200.9375,378.7969 Q200.75,378.3594 200.6719,377.8906 Q200.6094,377.4219 200.6094,376.9688 L200.6094,371.4375 Q200.6094,370.9844 200.6719,370.5156 Q200.75,370.0469 200.9375,369.625 Q201.125,369.2031 201.4375,368.8438 Q201.75,368.4688 202.1563,368.25 Q202.5781,368.0156 203.0313,367.9219 Q203.4844,367.8281 203.9531,367.8281 Q204.3906,367.8281 204.8281,367.9063 Q205.2656,367.9688 205.6563,368.1719 Q206.0469,368.3594 206.3594,368.6875 Q206.6875,369 206.875,369.3906 Q207.0781,369.7813 207.1719,370.2188 Q207.2813,370.6406 207.2813,371.0938 Q207.2813,371.0938 207.2813,371.0938 Q207.2813,371.0938 207.2813,371.1094 L205.3906,371.1094 Q205.3906,371.0938 205.3906,371.0938 Q205.3906,371.0938 205.3906,371.0938 Q205.3906,370.7813 205.2969,370.4844 Q205.2188,370.1875 205.0313,369.9375 Q204.8438,369.6875 204.5469,369.5781 Q204.25,369.4531 203.9531,369.4531 Q203.7344,369.4531 203.5,369.5313 Q203.2656,369.5938 203.0938,369.75 Q202.9219,369.8906 202.7969,370.0938 Q202.6875,370.2969 202.625,370.5313 Q202.5625,370.75 202.5313,370.9844 Q202.5,371.2031 202.5,371.4375 L202.5,376.9688 Q202.5,377.2031 202.5313,377.4375 Q202.5625,377.6719 202.625,377.8906 Q202.6875,378.1094 202.7969,378.3125 Q202.9219,378.5156 203.0938,378.6719 Q203.2656,378.8281 203.5,378.8906 Q203.7344,378.9531 203.9531,378.9531 Q204.25,378.9531 204.5469,378.8438 Q204.8438,378.7188 205.0313,378.4688 Q205.2188,378.2188 205.2969,377.9219 Q205.3906,377.625 205.3906,377.3281 Q205.3906,377.3281 205.3906,377.3281 Q205.3906,377.3281 205.3906,377.3125 L207.2813,377.3125 Q207.2813,377.3281 207.2813,377.3281 Q207.2813,377.3281 207.2813,377.3281 Q207.2813,377.7656 207.1719,378.2031 Q207.0781,378.6406 206.875,379.0313 Q206.6875,379.4219 206.3594,379.7344 Q206.0469,380.0469 205.6563,380.25 Q205.2656,380.4375 204.8281,380.5156 Q204.3906,380.5938 203.9531,380.5938 Z " fill="#EBDBB2"/><text fill="#EBDBB2" font-family="Iosevka Term" font-size="12" lengthAdjust="spacing" x="224.25" y="378.1074">Nota</text><line style="stroke:#504945;stroke-width:1.5;" x1="140" x2="306" y1="389.9531" y2="389.9531"/><rect fill="none" height="6" style="stroke:#CC241D;stroke-width:1.0;" width="6" x="147" y="397.9531"/><text fill="#EBDBB2" font-family="Iosevka Term" font-size="11" lengthAdjust="spacing" x="159" y="404.1636">puntuacion : float</text><rect fill="none" height="6" style="stroke:#CC241D;stroke-width:1.0;" width="6" x="147" y="410.7578"/><text fill="#EBDBB2" font-family="Iosevka Term" font-size="11" lengthAdjust="spacing" x="159" y="416.9683">puntuacionMaxima : float</text><line style="stroke:#504945;stroke-width:1.5;" x1="140" x2="306" y1="423.5625" y2="423.5625"/><!--MD5=[ffd766d2ce6418bf3685451d577290a3]
class Becario--><rect codeLine="31" fill="#282828" height="73.6094" id="Becario" rx="7.5" ry="7.5" style="stroke:#504945;stroke-width:1.5;" width="135" x="341.5" y="27.9531"/><ellipse cx="381.7" cy="43.9531" fill="#B8BB26" rx="11" ry="11" style="stroke:#B8BB26;stroke-width:1.0;"/><path d="M381.9031,50.5938 Q381.4344,50.5938 380.9813,50.5 Q380.5281,50.4063 380.1063,50.1719 Q379.7,49.9375 379.3875,49.5781 Q379.075,49.2188 378.8875,48.7969 Q378.7,48.3594 378.6219,47.8906 Q378.5594,47.4219 378.5594,46.9688 L378.5594,41.4375 Q378.5594,40.9844 378.6219,40.5156 Q378.7,40.0469 378.8875,39.625 Q379.075,39.2031 379.3875,38.8438 Q379.7,38.4688 380.1063,38.25 Q380.5281,38.0156 380.9813,37.9219 Q381.4344,37.8281 381.9031,37.8281 Q382.3406,37.8281 382.7781,37.9063 Q383.2156,37.9688 383.6063,38.1719 Q383.9969,38.3594 384.3094,38.6875 Q384.6375,39 384.825,39.3906 Q385.0281,39.7813 385.1219,40.2188 Q385.2313,40.6406 385.2313,41.0938 Q385.2313,41.0938 385.2313,41.0938 Q385.2313,41.0938 385.2313,41.1094 L383.3406,41.1094 Q383.3406,41.0938 383.3406,41.0938 Q383.3406,41.0938 383.3406,41.0938 Q383.3406,40.7813 383.2469,40.4844 Q383.1688,40.1875 382.9813,39.9375 Q382.7938,39.6875 382.4969,39.5781 Q382.2,39.4531 381.9031,39.4531 Q381.6844,39.4531 381.45,39.5313 Q381.2156,39.5938 381.0438,39.75 Q380.8719,39.8906 380.7469,40.0938 Q380.6375,40.2969 380.575,40.5313 Q380.5125,40.75 380.4813,40.9844 Q380.45,41.2031 380.45,41.4375 L380.45,46.9688 Q380.45,47.2031 380.4813,47.4375 Q380.5125,47.6719 380.575,47.8906 Q380.6375,48.1094 380.7469,48.3125 Q380.8719,48.5156 381.0438,48.6719 Q381.2156,48.8281 381.45,48.8906 Q381.6844,48.9531 381.9031,48.9531 Q382.2,48.9531 382.4969,48.8438 Q382.7938,48.7188 382.9813,48.4688 Q383.1688,48.2188 383.2469,47.9219 Q383.3406,47.625 383.3406,47.3281 Q383.3406,47.3281 383.3406,47.3281 Q383.3406,47.3281 383.3406,47.3125 L385.2313,47.3125 Q385.2313,47.3281 385.2313,47.3281 Q385.2313,47.3281 385.2313,47.3281 Q385.2313,47.7656 385.1219,48.2031 Q385.0281,48.6406 384.825,49.0313 Q384.6375,49.4219 384.3094,49.7344 Q383.9969,50.0469 383.6063,50.25 Q383.2156,50.4375 382.7781,50.5156 Q382.3406,50.5938 381.9031,50.5938 Z " fill="#EBDBB2"/><text fill="#EBDBB2" font-family="Iosevka Term" font-size="12" lengthAdjust="spacing" x="401.3" y="48.1074">Becario</text><line style="stroke:#504945;stroke-width:1.5;" x1="342.5" x2="475.5" y1="59.9531" y2="59.9531"/><rect fill="none" height="6" style="stroke:#CC241D;stroke-width:1.0;" width="6" x="349.5" y="67.9531"/><text fill="#EBDBB2" font-family="Iosevka Term" font-size="11" lengthAdjust="spacing" x="361.5" y="74.1636">codigo : int</text><rect fill="none" height="6" style="stroke:#CC241D;stroke-width:1.0;" width="6" x="349.5" y="80.7578"/><text fill="#EBDBB2" font-family="Iosevka Term" font-size="11" lengthAdjust="spacing" x="361.5" y="86.9683">importeBeca : float</text><line style="stroke:#504945;stroke-width:1.5;" x1="342.5" x2="475.5" y1="93.5625" y2="93.5625"/><!--MD5=[6f0827b53b9efc00d4d563e4c81da5fd]
class Beca--><rect codeLine="36" fill="#282828" height="48" id="Beca" rx="7.5" ry="7.5" style="stroke:#504945;stroke-width:1.5;" width="63" x="137.5" y="40.9531"/><ellipse cx="152.5" cy="56.9531" fill="#B8BB26" rx="11" ry="11" style="stroke:#B8BB26;stroke-width:1.0;"/><path d="M152.7031,63.5938 Q152.2344,63.5938 151.7813,63.5 Q151.3281,63.4063 150.9063,63.1719 Q150.5,62.9375 150.1875,62.5781 Q149.875,62.2188 149.6875,61.7969 Q149.5,61.3594 149.4219,60.8906 Q149.3594,60.4219 149.3594,59.9688 L149.3594,54.4375 Q149.3594,53.9844 149.4219,53.5156 Q149.5,53.0469 149.6875,52.625 Q149.875,52.2031 150.1875,51.8438 Q150.5,51.4688 150.9063,51.25 Q151.3281,51.0156 151.7813,50.9219 Q152.2344,50.8281 152.7031,50.8281 Q153.1406,50.8281 153.5781,50.9063 Q154.0156,50.9688 154.4063,51.1719 Q154.7969,51.3594 155.1094,51.6875 Q155.4375,52 155.625,52.3906 Q155.8281,52.7813 155.9219,53.2188 Q156.0313,53.6406 156.0313,54.0938 Q156.0313,54.0938 156.0313,54.0938 Q156.0313,54.0938 156.0313,54.1094 L154.1406,54.1094 Q154.1406,54.0938 154.1406,54.0938 Q154.1406,54.0938 154.1406,54.0938 Q154.1406,53.7813 154.0469,53.4844 Q153.9688,53.1875 153.7813,52.9375 Q153.5938,52.6875 153.2969,52.5781 Q153,52.4531 152.7031,52.4531 Q152.4844,52.4531 152.25,52.5313 Q152.0156,52.5938 151.8438,52.75 Q151.6719,52.8906 151.5469,53.0938 Q151.4375,53.2969 151.375,53.5313 Q151.3125,53.75 151.2813,53.9844 Q151.25,54.2031 151.25,54.4375 L151.25,59.9688 Q151.25,60.2031 151.2813,60.4375 Q151.3125,60.6719 151.375,60.8906 Q151.4375,61.1094 151.5469,61.3125 Q151.6719,61.5156 151.8438,61.6719 Q152.0156,61.8281 152.25,61.8906 Q152.4844,61.9531 152.7031,61.9531 Q153,61.9531 153.2969,61.8438 Q153.5938,61.7188 153.7813,61.4688 Q153.9688,61.2188 154.0469,60.9219 Q154.1406,60.625 154.1406,60.3281 Q154.1406,60.3281 154.1406,60.3281 Q154.1406,60.3281 154.1406,60.3125 L156.0313,60.3125 Q156.0313,60.3281 156.0313,60.3281 Q156.0313,60.3281 156.0313,60.3281 Q156.0313,60.7656 155.9219,61.2031 Q155.8281,61.6406 155.625,62.0313 Q155.4375,62.4219 155.1094,62.7344 Q154.7969,63.0469 154.4063,63.25 Q154.0156,63.4375 153.5781,63.5156 Q153.1406,63.5938 152.7031,63.5938 Z " fill="#EBDBB2"/><text fill="#EBDBB2" font-family="Iosevka Term" font-size="12" lengthAdjust="spacing" x="166.5" y="61.1074">Beca</text><line style="stroke:#504945;stroke-width:1.5;" x1="138.5" x2="199.5" y1="72.9531" y2="72.9531"/><line style="stroke:#504945;stroke-width:1.5;" x1="138.5" x2="199.5" y1="80.9531" y2="80.9531"/><!--MD5=[dd3b13c530c963ada90a48d1c3f4bdb3]
class Profesor--><rect codeLine="37" fill="#282828" height="48" id="Profesor" rx="7.5" ry="7.5" style="stroke:#504945;stroke-width:1.5;" width="85" x="418.5" y="514.9531"/><ellipse cx="433.5" cy="530.9531" fill="#B8BB26" rx="11" ry="11" style="stroke:#B8BB26;stroke-width:1.0;"/><path d="M433.7031,537.5938 Q433.2344,537.5938 432.7813,537.5 Q432.3281,537.4063 431.9063,537.1719 Q431.5,536.9375 431.1875,536.5781 Q430.875,536.2188 430.6875,535.7969 Q430.5,535.3594 430.4219,534.8906 Q430.3594,534.4219 430.3594,533.9688 L430.3594,528.4375 Q430.3594,527.9844 430.4219,527.5156 Q430.5,527.0469 430.6875,526.625 Q430.875,526.2031 431.1875,525.8438 Q431.5,525.4688 431.9063,525.25 Q432.3281,525.0156 432.7813,524.9219 Q433.2344,524.8281 433.7031,524.8281 Q434.1406,524.8281 434.5781,524.9063 Q435.0156,524.9688 435.4063,525.1719 Q435.7969,525.3594 436.1094,525.6875 Q436.4375,526 436.625,526.3906 Q436.8281,526.7813 436.9219,527.2188 Q437.0313,527.6406 437.0313,528.0938 Q437.0313,528.0938 437.0313,528.0938 Q437.0313,528.0938 437.0313,528.1094 L435.1406,528.1094 Q435.1406,528.0938 435.1406,528.0938 Q435.1406,528.0938 435.1406,528.0938 Q435.1406,527.7813 435.0469,527.4844 Q434.9688,527.1875 434.7813,526.9375 Q434.5938,526.6875 434.2969,526.5781 Q434,526.4531 433.7031,526.4531 Q433.4844,526.4531 433.25,526.5313 Q433.0156,526.5938 432.8438,526.75 Q432.6719,526.8906 432.5469,527.0938 Q432.4375,527.2969 432.375,527.5313 Q432.3125,527.75 432.2813,527.9844 Q432.25,528.2031 432.25,528.4375 L432.25,533.9688 Q432.25,534.2031 432.2813,534.4375 Q432.3125,534.6719 432.375,534.8906 Q432.4375,535.1094 432.5469,535.3125 Q432.6719,535.5156 432.8438,535.6719 Q433.0156,535.8281 433.25,535.8906 Q433.4844,535.9531 433.7031,535.9531 Q434,535.9531 434.2969,535.8438 Q434.5938,535.7188 434.7813,535.4688 Q434.9688,535.2188 435.0469,534.9219 Q435.1406,534.625 435.1406,534.3281 Q435.1406,534.3281 435.1406,534.3281 Q435.1406,534.3281 435.1406,534.3125 L437.0313,534.3125 Q437.0313,534.3281 437.0313,534.3281 Q437.0313,534.3281 437.0313,534.3281 Q437.0313,534.7656 436.9219,535.2031 Q436.8281,535.6406 436.625,536.0313 Q436.4375,536.4219 436.1094,536.7344 Q435.7969,537.0469 435.4063,537.25 Q435.0156,537.4375 434.5781,537.5156 Q434.1406,537.5938 433.7031,537.5938 Z " fill="#EBDBB2"/><text fill="#EBDBB2" font-family="Iosevka Term" font-size="12" lengthAdjust="spacing" x="447.5" y="535.1074">Profesor</text><line style="stroke:#504945;stroke-width:1.5;" x1="419.5" x2="502.5" y1="546.9531" y2="546.9531"/><line style="stroke:#504945;stroke-width:1.5;" x1="419.5" x2="502.5" y1="554.9531" y2="554.9531"/><!--MD5=[aa9ebb045d22ec940c587c7180c59f8b]
class Curso--><rect codeLine="38" fill="#282828" height="48" id="Curso" rx="7.5" ry="7.5" style="stroke:#504945;stroke-width:1.5;" width="68" x="604" y="514.9531"/><ellipse cx="619" cy="530.9531" fill="#B8BB26" rx="11" ry="11" style="stroke:#B8BB26;stroke-width:1.0;"/><path d="M619.2031,537.5938 Q618.7344,537.5938 618.2813,537.5 Q617.8281,537.4063 617.4063,537.1719 Q617,536.9375 616.6875,536.5781 Q616.375,536.2188 616.1875,535.7969 Q616,535.3594 615.9219,534.8906 Q615.8594,534.4219 615.8594,533.9688 L615.8594,528.4375 Q615.8594,527.9844 615.9219,527.5156 Q616,527.0469 616.1875,526.625 Q616.375,526.2031 616.6875,525.8438 Q617,525.4688 617.4063,525.25 Q617.8281,525.0156 618.2813,524.9219 Q618.7344,524.8281 619.2031,524.8281 Q619.6406,524.8281 620.0781,524.9063 Q620.5156,524.9688 620.9063,525.1719 Q621.2969,525.3594 621.6094,525.6875 Q621.9375,526 622.125,526.3906 Q622.3281,526.7813 622.4219,527.2188 Q622.5313,527.6406 622.5313,528.0938 Q622.5313,528.0938 622.5313,528.0938 Q622.5313,528.0938 622.5313,528.1094 L620.6406,528.1094 Q620.6406,528.0938 620.6406,528.0938 Q620.6406,528.0938 620.6406,528.0938 Q620.6406,527.7813 620.5469,527.4844 Q620.4688,527.1875 620.2813,526.9375 Q620.0938,526.6875 619.7969,526.5781 Q619.5,526.4531 619.2031,526.4531 Q618.9844,526.4531 618.75,526.5313 Q618.5156,526.5938 618.3438,526.75 Q618.1719,526.8906 618.0469,527.0938 Q617.9375,527.2969 617.875,527.5313 Q617.8125,527.75 617.7813,527.9844 Q617.75,528.2031 617.75,528.4375 L617.75,533.9688 Q617.75,534.2031 617.7813,534.4375 Q617.8125,534.6719 617.875,534.8906 Q617.9375,535.1094 618.0469,535.3125 Q618.1719,535.5156 618.3438,535.6719 Q618.5156,535.8281 618.75,535.8906 Q618.9844,535.9531 619.2031,535.9531 Q619.5,535.9531 619.7969,535.8438 Q620.0938,535.7188 620.2813,535.4688 Q620.4688,535.2188 620.5469,534.9219 Q620.6406,534.625 620.6406,534.3281 Q620.6406,534.3281 620.6406,534.3281 Q620.6406,534.3281 620.6406,534.3125 L622.5313,534.3125 Q622.5313,534.3281 622.5313,534.3281 Q622.5313,534.3281 622.5313,534.3281 Q622.5313,534.7656 622.4219,535.2031 Q622.3281,535.6406 622.125,536.0313 Q621.9375,536.4219 621.6094,536.7344 Q621.2969,537.0469 620.9063,537.25 Q620.5156,537.4375 620.0781,537.5156 Q619.6406,537.5938 619.2031,537.5938 Z " fill="#EBDBB2"/><text fill="#EBDBB2" font-family="Iosevka Term" font-size="12" lengthAdjust="spacing" x="633" y="535.1074">Curso</text><line style="stroke:#504945;stroke-width:1.5;" x1="605" x2="671" y1="546.9531" y2="546.9531"/><line style="stroke:#504945;stroke-width:1.5;" x1="605" x2="671" y1="554.9531" y2="554.9531"/><!--MD5=[78477f461b16805ec7ce90df3096a495]
reverse link Persona to Estudiante--><path codeLine="42" d="M167.53,218.9531 C194.16,218.9531 220.78,218.9531 247.4,218.9531 " fill="none" id="Persona-backto-Estudiante" style="stroke:#689D6A;stroke-width:1.0;"/><polygon fill="none" points="167.17,225.9531,147.17,218.9531,167.17,211.9531,167.17,225.9531" style="stroke:#689D6A;stroke-width:1.0;"/><!--MD5=[7e5e1d89350361ba3d0d9bd5cc597e0c]
link Becario to Estudiante--><path codeLine="44" d="M409,101.9731 C409,116.1131 409,132.8231 409,149.1031 " fill="none" id="Becario-to-Estudiante" style="stroke:#689D6A;stroke-width:1.0;"/><polygon fill="none" points="416,149.2531,409,169.2531,402,149.2531,416,149.2531" style="stroke:#689D6A;stroke-width:1.0;"/><!--MD5=[a9abe5382e28b883e4d135b451eb0cc5]
link Estudiante to Asignatura--><path codeLine="45" d="M451.91,272.9131 C471.31,296.8531 494.02,324.8731 512.7,347.9331 " fill="none" id="Estudiante-Asignatura" style="stroke:#689D6A;stroke-width:1.0;"/><polygon fill="#689D6A" points="515.9,351.8731,513.3502,342.36,512.7557,347.9856,507.1301,347.391,515.9,351.8731" style="stroke:#689D6A;stroke-width:1.0;"/><polygon fill="#689D6A" points="448.65,268.8831,451.2209,278.3905,451.803,272.7637,457.4298,273.3458,448.65,268.8831" style="stroke:#689D6A;stroke-width:1.0;"/><text fill="#EBDBB2" font-family="Iosevka Term" font-size="13" lengthAdjust="spacing" x="489" y="318.02">matricula</text><text fill="#EBDBB2" font-family="Iosevka Term" font-size="13" lengthAdjust="spacing" x="429.4327" y="288.6614">0..*</text><text fill="#EBDBB2" font-family="Iosevka Term" font-size="13" lengthAdjust="spacing" x="485.6325" y="340.8564">0..*</text><!--MD5=[b058eb18565fa41b8f5f0bf7b06390f9]
reverse link Beca to Becario--><path codeLine="47" d="M206.02,64.9531 C241.91,64.9531 297.21,64.9531 341.02,64.9531 " fill="none" id="Beca-backto-Becario" style="stroke:#689D6A;stroke-width:1.0;"/><polygon fill="#689D6A" points="200.87,64.9531,209.87,68.9531,205.87,64.9531,209.87,60.9531,200.87,64.9531" style="stroke:#689D6A;stroke-width:1.0;"/><text fill="#EBDBB2" font-family="Iosevka Term" font-size="13" lengthAdjust="spacing" x="251.5" y="58.02">recibe</text><text fill="#EBDBB2" font-family="Iosevka Term" font-size="13" lengthAdjust="spacing" x="208.7166" y="60.3939">1</text><text fill="#EBDBB2" font-family="Iosevka Term" font-size="13" lengthAdjust="spacing" x="310.4446" y="61.3301">0..*</text><!--MD5=[c350c257aa407744662cf80c319b213a]
link Asignatura to Profesor--><path codeLine="49" d="M523.54,438.1731 C508.9,461.5331 491.13,489.8831 478.28,510.3931 " fill="none" id="Asignatura-to-Profesor" style="stroke:#689D6A;stroke-width:1.0;"/><polygon fill="#689D6A" points="475.61,514.6431,483.777,509.1385,478.2638,510.4055,476.9968,504.8924,475.61,514.6431" style="stroke:#689D6A;stroke-width:1.0;"/><text fill="#EBDBB2" font-family="Iosevka Term" font-size="13" lengthAdjust="spacing" x="504" y="481.02">imparte</text><text fill="#EBDBB2" font-family="Iosevka Term" font-size="13" lengthAdjust="spacing" x="494.4901" y="458.3011">1..*</text><text fill="#EBDBB2" font-family="Iosevka Term" font-size="13" lengthAdjust="spacing" x="470.1962" y="503.9725">1</text><!--MD5=[854db1adf864bce446a41f9f8b6a4789]
link Asignatura to Curso--><path codeLine="50" d="M576.16,438.1731 C590.64,461.5331 608.21,489.8831 620.92,510.3931 " fill="none" id="Asignatura-to-Curso" style="stroke:#689D6A;stroke-width:1.0;"/><polygon fill="#689D6A" points="623.55,514.6431,622.2252,504.8838,620.9231,510.3888,615.4182,509.0868,623.55,514.6431" style="stroke:#689D6A;stroke-width:1.0;"/><text fill="#EBDBB2" font-family="Iosevka Term" font-size="13" lengthAdjust="spacing" x="605" y="481.02">pertenece</text><text fill="#EBDBB2" font-family="Iosevka Term" font-size="13" lengthAdjust="spacing" x="555.4964" y="458.3011">1..*</text><text fill="#EBDBB2" font-family="Iosevka Term" font-size="13" lengthAdjust="spacing" x="611.0528" y="503.9725">1</text><!--MD5=[c0c463ad742af0163d774fcebdf5e4ed]
link Nota to Asignatura--><path codeLine="52" d="M307.21,394.9531 C347.22,394.9531 395.58,394.9531 438.57,394.9531 " fill="none" id="Nota-to-Asignatura" style="stroke:#689D6A;stroke-width:1.0;"/><polygon fill="#689D6A" points="443.79,394.9531,434.79,390.9531,438.79,394.9531,434.79,398.9531,443.79,394.9531" style="stroke:#689D6A;stroke-width:1.0;"/><text fill="#EBDBB2" font-family="Iosevka Term" font-size="13" lengthAdjust="spacing" x="358" y="388.02">es de</text><text fill="#EBDBB2" font-family="Iosevka Term" font-size="13" lengthAdjust="spacing" x="315.136" y="391.4206">0..*</text><text fill="#EBDBB2" font-family="Iosevka Term" font-size="13" lengthAdjust="spacing" x="428.0409" y="391.4828">1</text><!--MD5=[fd0ebd1f7238afc9f9bd24053d6489af]
link Estudiante to Nota--><path codeLine="53" d="M356.69,268.8831 C327.92,295.8031 292.66,328.7831 265.58,354.1231 " fill="none" id="Estudiante-to-Nota" style="stroke:#689D6A;stroke-width:1.0;"/><polygon fill="#689D6A" points="261.65,357.8031,270.9583,354.5852,265.3048,354.391,265.499,348.7375,261.65,357.8031" style="stroke:#689D6A;stroke-width:1.0;"/><text fill="#EBDBB2" font-family="Iosevka Term" font-size="13" lengthAdjust="spacing" x="317" y="318.02">es de</text><text fill="#EBDBB2" font-family="Iosevka Term" font-size="13" lengthAdjust="spacing" x="341.1233" y="288.6614">1</text><text fill="#EBDBB2" font-family="Iosevka Term" font-size="13" lengthAdjust="spacing" x="243.4861" y="346.9634">0..*</text><!--MD5=[8a4b27e1f24257dfd0b43a7d47a12c44]
@startuml
title Matricula en la Universidad

!include plantuml-config.txt

class Persona {
        # dni : String
        # nombre : Strig
        # direccion : String
        # estadoCivil : String
        # darseDeAlta() : void
}

class Estudiante {
        # listarAsignaturas() : Asignatura *
        # listarNotas() : Nota *
        # matricular(Asignatura a) : void
        # registrar(Asignatura a, float pts, float ptsMax) : void
}

class Asignatura {
        - codigo : int
        - nombre : String
        - listarEstudiantes() : Estudiante *
}

class Nota {
        - puntuacion : float
        - puntuacionMaxima : float
}

class Becario {
        - codigo : int
        - importeBeca : float
}

class Beca
class Profesor
class Curso

skinparam Nodesep 100

Persona <|- Estudiante

Estudiante <|-u- Becario
Estudiante "0..*" <- -> "0..*" Asignatura : matricula

Becario "0..*" -l> "1" Beca : recibe

Asignatura "1..*" - -> "1" Profesor : imparte
Asignatura "1..*" - -> "1" Curso : pertenece

Nota "0..*" -r-> "1" Asignatura : es de
Nota "0..*" <-u- "1" Estudiante : es de
@enduml

@startuml
title Matricula en la Universidad

skinparam groupInheritance 2

skinparam Default {
        FontName Iosevka Term
        FontColor #ebdbb2
}

skinparam BackgroundColor #1d2021
skinparam Shadowing false
skinparam RoundCorner 15

skinparam Class {
        BackgroundColor #282828
        BorderColor #504945
        ArrowColor #689d6a
}

skinparam Stereotype {
        CBackgroundColor #b8bb26
        CBorderColor #b8bb26
        EBackgroundColor #fe8019
        EBorderColor #fe8019
        ABackgroundColor #83a598
        ABorderColor #83a598
}

skinparam Icon {
        PrivateColor #cc241d
        PrivateBackgroundColor #cc241d
        ProtectedColor #d79921
        ProtectedBackgroundColor #d79921
}

class Persona {
        # dni : String
        # nombre : Strig
        # direccion : String
        # estadoCivil : String
        # darseDeAlta() : void
}

class Estudiante {
        # listarAsignaturas() : Asignatura *
        # listarNotas() : Nota *
        # matricular(Asignatura a) : void
        # registrar(Asignatura a, float pts, float ptsMax) : void
}

class Asignatura {
        - codigo : int
        - nombre : String
        - listarEstudiantes() : Estudiante *
}

class Nota {
        - puntuacion : float
        - puntuacionMaxima : float
}

class Becario {
        - codigo : int
        - importeBeca : float
}

class Beca
class Profesor
class Curso

skinparam Nodesep 100

Persona <|- Estudiante

Estudiante <|-u- Becario
Estudiante "0..*" <- -> "0..*" Asignatura : matricula

Becario "0..*" -l> "1" Beca : recibe

Asignatura "1..*" - -> "1" Profesor : imparte
Asignatura "1..*" - -> "1" Curso : pertenece

Nota "0..*" -r-> "1" Asignatura : es de
Nota "0..*" <-u- "1" Estudiante : es de
@enduml

PlantUML version 1.2022.1(Tue Feb 01 19:19:58 CET 2022)
(GPL source distribution)
Java Runtime: OpenJDK Runtime Environment
JVM: OpenJDK 64-Bit Server VM
Default Encoding: UTF-8
Language: en
Country: US
--></g></svg>