<?xml version="1.0" encoding="UTF-8" standalone="no"?><svg xmlns="http://www.w3.org/2000/svg" xmlns:xlink="http://www.w3.org/1999/xlink" contentScriptType="application/ecmascript" contentStyleType="text/css" height="689px" preserveAspectRatio="none" style="width:687px;height:689px;background:#1D2021;" version="1.1" viewBox="0 0 687 689" width="687px" zoomAndPan="magnify"><defs/><g><text fill="#EBDBB2" font-family="Iosevka Term" font-size="18" lengthAdjust="spacing" x="263.25" y="16.708">Venta de Coches</text><!--MD5=[9e62edc53476c64bb488036abd7b0275]
class Coche--><rect codeLine="5" fill="#282828" height="163.2422" id="Coche" rx="7.5" ry="7.5" style="stroke:#504945;stroke-width:1.5;" width="143" x="233" y="190.9531"/><ellipse cx="280.75" cy="206.9531" fill="#B8BB26" rx="11" ry="11" style="stroke:#B8BB26;stroke-width:1.0;"/><path d="M280.9531,213.5938 Q280.4844,213.5938 280.0313,213.5 Q279.5781,213.4063 279.1563,213.1719 Q278.75,212.9375 278.4375,212.5781 Q278.125,212.2188 277.9375,211.7969 Q277.75,211.3594 277.6719,210.8906 Q277.6094,210.4219 277.6094,209.9688 L277.6094,204.4375 Q277.6094,203.9844 277.6719,203.5156 Q277.75,203.0469 277.9375,202.625 Q278.125,202.2031 278.4375,201.8438 Q278.75,201.4688 279.1563,201.25 Q279.5781,201.0156 280.0313,200.9219 Q280.4844,200.8281 280.9531,200.8281 Q281.3906,200.8281 281.8281,200.9063 Q282.2656,200.9688 282.6563,201.1719 Q283.0469,201.3594 283.3594,201.6875 Q283.6875,202 283.875,202.3906 Q284.0781,202.7813 284.1719,203.2188 Q284.2813,203.6406 284.2813,204.0938 Q284.2813,204.0938 284.2813,204.0938 Q284.2813,204.0938 284.2813,204.1094 L282.3906,204.1094 Q282.3906,204.0938 282.3906,204.0938 Q282.3906,204.0938 282.3906,204.0938 Q282.3906,203.7813 282.2969,203.4844 Q282.2188,203.1875 282.0313,202.9375 Q281.8438,202.6875 281.5469,202.5781 Q281.25,202.4531 280.9531,202.4531 Q280.7344,202.4531 280.5,202.5313 Q280.2656,202.5938 280.0938,202.75 Q279.9219,202.8906 279.7969,203.0938 Q279.6875,203.2969 279.625,203.5313 Q279.5625,203.75 279.5313,203.9844 Q279.5,204.2031 279.5,204.4375 L279.5,209.9688 Q279.5,210.2031 279.5313,210.4375 Q279.5625,210.6719 279.625,210.8906 Q279.6875,211.1094 279.7969,211.3125 Q279.9219,211.5156 280.0938,211.6719 Q280.2656,211.8281 280.5,211.8906 Q280.7344,211.9531 280.9531,211.9531 Q281.25,211.9531 281.5469,211.8438 Q281.8438,211.7188 282.0313,211.4688 Q282.2188,211.2188 282.2969,210.9219 Q282.3906,210.625 282.3906,210.3281 Q282.3906,210.3281 282.3906,210.3281 Q282.3906,210.3281 282.3906,210.3125 L284.2813,210.3125 Q284.2813,210.3281 284.2813,210.3281 Q284.2813,210.3281 284.2813,210.3281 Q284.2813,210.7656 284.1719,211.2031 Q284.0781,211.6406 283.875,212.0313 Q283.6875,212.4219 283.3594,212.7344 Q283.0469,213.0469 282.6563,213.25 Q282.2656,213.4375 281.8281,213.5156 Q281.3906,213.5938 280.9531,213.5938 Z " fill="#EBDBB2"/><text fill="#EBDBB2" font-family="Iosevka Term" font-size="12" lengthAdjust="spacing" x="301.25" y="211.1074">Coche</text><line style="stroke:#504945;stroke-width:1.5;" x1="234" x2="375" y1="222.9531" y2="222.9531"/><rect fill="none" height="6" style="stroke:#CC241D;stroke-width:1.0;" width="6" x="241" y="230.9531"/><text fill="#EBDBB2" font-family="Iosevka Term" font-size="11" lengthAdjust="spacing" x="253" y="237.1636">marca : String</text><rect fill="none" height="6" style="stroke:#CC241D;stroke-width:1.0;" width="6" x="241" y="243.7578"/><text fill="#EBDBB2" font-family="Iosevka Term" font-size="11" lengthAdjust="spacing" x="253" y="249.9683">modelo : String</text><rect fill="none" height="6" style="stroke:#CC241D;stroke-width:1.0;" width="6" x="241" y="256.5625"/><text fill="#EBDBB2" font-family="Iosevka Term" font-size="11" lengthAdjust="spacing" x="253" y="262.7729">matricula : String</text><rect fill="none" height="6" style="stroke:#CC241D;stroke-width:1.0;" width="6" x="241" y="269.3672"/><text fill="#EBDBB2" font-family="Iosevka Term" font-size="11" lengthAdjust="spacing" x="253" y="275.5776">precioCompra : float</text><rect fill="none" height="6" style="stroke:#CC241D;stroke-width:1.0;" width="6" x="241" y="282.1719"/><text fill="#EBDBB2" font-family="Iosevka Term" font-size="11" lengthAdjust="spacing" x="253" y="288.3823">precioVenta : float</text><line style="stroke:#504945;stroke-width:1.5;" x1="234" x2="375" y1="294.9766" y2="294.9766"/><rect fill="#CC241D" height="6" style="stroke:#CC241D;stroke-width:1.0;" width="6" x="241" y="302.9766"/><text fill="#EBDBB2" font-family="Iosevka Term" font-size="11" lengthAdjust="spacing" x="253" y="309.187">comprar() : void</text><rect fill="#CC241D" height="6" style="stroke:#CC241D;stroke-width:1.0;" width="6" x="241" y="315.7813"/><text fill="#EBDBB2" font-family="Iosevka Term" font-size="11" lengthAdjust="spacing" x="253" y="321.9917">vender() : void</text><rect fill="#CC241D" height="6" style="stroke:#CC241D;stroke-width:1.0;" width="6" x="241" y="328.5859"/><text fill="#EBDBB2" font-family="Iosevka Term" font-size="11" lengthAdjust="spacing" x="253" y="334.7964">reparar() : void</text><rect fill="#CC241D" height="6" style="stroke:#CC241D;stroke-width:1.0;" width="6" x="241" y="341.3906"/><text fill="#EBDBB2" font-family="Iosevka Term" font-size="11" lengthAdjust="spacing" x="253" y="347.6011">listar() : Coche *</text><!--MD5=[6d82cdea786edd168bbbdee352836dca]
class TipoCoche--><rect codeLine="17" fill="#282828" height="86.4141" id="TipoCoche" rx="7.5" ry="7.5" style="stroke:#504945;stroke-width:1.5;" width="97" x="256" y="27.9531"/><ellipse cx="271" cy="43.9531" fill="#FE8019" rx="11" ry="11" style="stroke:#FE8019;stroke-width:1.0;"/><path d="M267.6406,50.4531 L267.6406,37.9531 L274,37.9531 L274,39.5938 L269.5313,39.5938 L269.5313,43.1406 L273.0313,43.1406 L273.0313,44.7813 L269.5313,44.7813 L269.5313,48.8281 L274,48.8281 L274,50.4531 L267.6406,50.4531 Z " fill="#EBDBB2"/><text fill="#EBDBB2" font-family="Iosevka Term" font-size="12" lengthAdjust="spacing" x="285" y="48.1074">TipoCoche</text><line style="stroke:#504945;stroke-width:1.5;" x1="257" x2="352" y1="59.9531" y2="59.9531"/><text fill="#EBDBB2" font-family="Iosevka Term" font-size="11" lengthAdjust="spacing" x="262" y="74.1636">Turismo</text><text fill="#EBDBB2" font-family="Iosevka Term" font-size="11" lengthAdjust="spacing" x="262" y="86.9683">Industrial</text><text fill="#EBDBB2" font-family="Iosevka Term" font-size="11" lengthAdjust="spacing" x="262" y="99.7729">Todoterreno</text><line style="stroke:#504945;stroke-width:1.5;" x1="257" x2="352" y1="106.3672" y2="106.3672"/><!--MD5=[13d423e021247faa9e933b44bf54871d]
class Reparacion--><rect codeLine="23" fill="#282828" height="48" id="Reparacion" rx="7.5" ry="7.5" style="stroke:#504945;stroke-width:1.5;" width="103" x="48" y="450.9531"/><ellipse cx="63" cy="466.9531" fill="#B8BB26" rx="11" ry="11" style="stroke:#B8BB26;stroke-width:1.0;"/><path d="M63.2031,473.5938 Q62.7344,473.5938 62.2813,473.5 Q61.8281,473.4063 61.4063,473.1719 Q61,472.9375 60.6875,472.5781 Q60.375,472.2188 60.1875,471.7969 Q60,471.3594 59.9219,470.8906 Q59.8594,470.4219 59.8594,469.9688 L59.8594,464.4375 Q59.8594,463.9844 59.9219,463.5156 Q60,463.0469 60.1875,462.625 Q60.375,462.2031 60.6875,461.8438 Q61,461.4688 61.4063,461.25 Q61.8281,461.0156 62.2813,460.9219 Q62.7344,460.8281 63.2031,460.8281 Q63.6406,460.8281 64.0781,460.9063 Q64.5156,460.9688 64.9063,461.1719 Q65.2969,461.3594 65.6094,461.6875 Q65.9375,462 66.125,462.3906 Q66.3281,462.7813 66.4219,463.2188 Q66.5313,463.6406 66.5313,464.0938 Q66.5313,464.0938 66.5313,464.0938 Q66.5313,464.0938 66.5313,464.1094 L64.6406,464.1094 Q64.6406,464.0938 64.6406,464.0938 Q64.6406,464.0938 64.6406,464.0938 Q64.6406,463.7813 64.5469,463.4844 Q64.4688,463.1875 64.2813,462.9375 Q64.0938,462.6875 63.7969,462.5781 Q63.5,462.4531 63.2031,462.4531 Q62.9844,462.4531 62.75,462.5313 Q62.5156,462.5938 62.3438,462.75 Q62.1719,462.8906 62.0469,463.0938 Q61.9375,463.2969 61.875,463.5313 Q61.8125,463.75 61.7813,463.9844 Q61.75,464.2031 61.75,464.4375 L61.75,469.9688 Q61.75,470.2031 61.7813,470.4375 Q61.8125,470.6719 61.875,470.8906 Q61.9375,471.1094 62.0469,471.3125 Q62.1719,471.5156 62.3438,471.6719 Q62.5156,471.8281 62.75,471.8906 Q62.9844,471.9531 63.2031,471.9531 Q63.5,471.9531 63.7969,471.8438 Q64.0938,471.7188 64.2813,471.4688 Q64.4688,471.2188 64.5469,470.9219 Q64.6406,470.625 64.6406,470.3281 Q64.6406,470.3281 64.6406,470.3281 Q64.6406,470.3281 64.6406,470.3125 L66.5313,470.3125 Q66.5313,470.3281 66.5313,470.3281 Q66.5313,470.3281 66.5313,470.3281 Q66.5313,470.7656 66.4219,471.2031 Q66.3281,471.6406 66.125,472.0313 Q65.9375,472.4219 65.6094,472.7344 Q65.2969,473.0469 64.9063,473.25 Q64.5156,473.4375 64.0781,473.5156 Q63.6406,473.5938 63.2031,473.5938 Z " fill="#EBDBB2"/><text fill="#EBDBB2" font-family="Iosevka Term" font-size="12" lengthAdjust="spacing" x="77" y="471.1074">Reparacion</text><line style="stroke:#504945;stroke-width:1.5;" x1="49" x2="150" y1="482.9531" y2="482.9531"/><line style="stroke:#504945;stroke-width:1.5;" x1="49" x2="150" y1="490.9531" y2="490.9531"/><!--MD5=[bb899f904013bce43ee5b2f6b2e5b36f]
class TipoReparacion--><rect codeLine="26" fill="#282828" height="86.4141" id="TipoReparacion" rx="7.5" ry="7.5" style="stroke:#504945;stroke-width:1.5;" width="129" x="22" y="595.9531"/><ellipse cx="37" cy="611.9531" fill="#FE8019" rx="11" ry="11" style="stroke:#FE8019;stroke-width:1.0;"/><path d="M33.6406,618.4531 L33.6406,605.9531 L40,605.9531 L40,607.5938 L35.5313,607.5938 L35.5313,611.1406 L39.0313,611.1406 L39.0313,612.7813 L35.5313,612.7813 L35.5313,616.8281 L40,616.8281 L40,618.4531 L33.6406,618.4531 Z " fill="#EBDBB2"/><text fill="#EBDBB2" font-family="Iosevka Term" font-size="12" lengthAdjust="spacing" x="51" y="616.1074">TipoReparacion</text><line style="stroke:#504945;stroke-width:1.5;" x1="23" x2="150" y1="627.9531" y2="627.9531"/><text fill="#EBDBB2" font-family="Iosevka Term" font-size="11" lengthAdjust="spacing" x="28" y="642.1636">Mecanica</text><text fill="#EBDBB2" font-family="Iosevka Term" font-size="11" lengthAdjust="spacing" x="28" y="654.9683">Electrica</text><text fill="#EBDBB2" font-family="Iosevka Term" font-size="11" lengthAdjust="spacing" x="28" y="667.7729">Chapa</text><line style="stroke:#504945;stroke-width:1.5;" x1="23" x2="150" y1="674.3672" y2="674.3672"/><!--MD5=[e363550a3c76349e2d25d63e24111731]
class Vendedor--><rect codeLine="32" fill="#282828" height="48" id="Vendedor" rx="7.5" ry="7.5" style="stroke:#504945;stroke-width:1.5;" width="93" x="284" y="450.9531"/><ellipse cx="299" cy="466.9531" fill="#83A598" rx="11" ry="11" style="stroke:#83A598;stroke-width:1.0;"/><path d="M295.125,473.2031 L297.6563,460.7031 L299.8438,460.7031 L302.375,473.2031 L300.4375,473.2031 L299.9219,470.4219 L297.5781,470.4219 L297.0625,473.2031 L295.125,473.2031 Z M299.6406,468.7813 L298.9219,464.875 Q298.8906,464.6406 298.8438,464.3906 Q298.7969,464.1406 298.75,463.9063 Q298.7031,464.1406 298.6563,464.3906 Q298.6094,464.6406 298.5781,464.875 L297.8594,468.7813 L299.6406,468.7813 Z " fill="#EBDBB2"/><text fill="#EBDBB2" font-family="Iosevka Term" font-size="12" font-style="italic" lengthAdjust="spacing" x="313" y="471.1074">Vendedor</text><line style="stroke:#504945;stroke-width:1.5;" x1="285" x2="376" y1="482.9531" y2="482.9531"/><line style="stroke:#504945;stroke-width:1.5;" x1="285" x2="376" y1="490.9531" y2="490.9531"/><polygon fill="none" points="343.8333,498.9531,359.6653,513.0368,347.4271,519.8358" style="stroke:#689D6A;stroke-width:1.0;"/><line style="stroke:#689D6A;stroke-width:1.0;" x1="353.5462" x2="355.5" y1="516.4363" y2="519.9531"/><line style="stroke:#689D6A;stroke-width:1.0;" x1="325.6151" x2="321.52" y1="450.9531" y2="430.8331"/><!--MD5=[f39ec84bcc17dcc49c427734ae640a37]
class VendedorAsalariado--><rect codeLine="34" fill="#282828" height="60.8047" id="VendedorAsalariado" rx="7.5" ry="7.5" style="stroke:#504945;stroke-width:1.5;" width="159" x="251" y="608.4531"/><ellipse cx="266" cy="624.4531" fill="#B8BB26" rx="11" ry="11" style="stroke:#B8BB26;stroke-width:1.0;"/><path d="M266.2031,631.0938 Q265.7344,631.0938 265.2813,631 Q264.8281,630.9063 264.4063,630.6719 Q264,630.4375 263.6875,630.0781 Q263.375,629.7188 263.1875,629.2969 Q263,628.8594 262.9219,628.3906 Q262.8594,627.9219 262.8594,627.4688 L262.8594,621.9375 Q262.8594,621.4844 262.9219,621.0156 Q263,620.5469 263.1875,620.125 Q263.375,619.7031 263.6875,619.3438 Q264,618.9688 264.4063,618.75 Q264.8281,618.5156 265.2813,618.4219 Q265.7344,618.3281 266.2031,618.3281 Q266.6406,618.3281 267.0781,618.4063 Q267.5156,618.4688 267.9063,618.6719 Q268.2969,618.8594 268.6094,619.1875 Q268.9375,619.5 269.125,619.8906 Q269.3281,620.2813 269.4219,620.7188 Q269.5313,621.1406 269.5313,621.5938 Q269.5313,621.5938 269.5313,621.5938 Q269.5313,621.5938 269.5313,621.6094 L267.6406,621.6094 Q267.6406,621.5938 267.6406,621.5938 Q267.6406,621.5938 267.6406,621.5938 Q267.6406,621.2813 267.5469,620.9844 Q267.4688,620.6875 267.2813,620.4375 Q267.0938,620.1875 266.7969,620.0781 Q266.5,619.9531 266.2031,619.9531 Q265.9844,619.9531 265.75,620.0313 Q265.5156,620.0938 265.3438,620.25 Q265.1719,620.3906 265.0469,620.5938 Q264.9375,620.7969 264.875,621.0313 Q264.8125,621.25 264.7813,621.4844 Q264.75,621.7031 264.75,621.9375 L264.75,627.4688 Q264.75,627.7031 264.7813,627.9375 Q264.8125,628.1719 264.875,628.3906 Q264.9375,628.6094 265.0469,628.8125 Q265.1719,629.0156 265.3438,629.1719 Q265.5156,629.3281 265.75,629.3906 Q265.9844,629.4531 266.2031,629.4531 Q266.5,629.4531 266.7969,629.3438 Q267.0938,629.2188 267.2813,628.9688 Q267.4688,628.7188 267.5469,628.4219 Q267.6406,628.125 267.6406,627.8281 Q267.6406,627.8281 267.6406,627.8281 Q267.6406,627.8281 267.6406,627.8125 L269.5313,627.8125 Q269.5313,627.8281 269.5313,627.8281 Q269.5313,627.8281 269.5313,627.8281 Q269.5313,628.2656 269.4219,628.7031 Q269.3281,629.1406 269.125,629.5313 Q268.9375,629.9219 268.6094,630.2344 Q268.2969,630.5469 267.9063,630.75 Q267.5156,630.9375 267.0781,631.0156 Q266.6406,631.0938 266.2031,631.0938 Z " fill="#EBDBB2"/><text fill="#EBDBB2" font-family="Iosevka Term" font-size="12" lengthAdjust="spacing" x="280" y="628.6074">VendedorAsalariado</text><line style="stroke:#504945;stroke-width:1.5;" x1="252" x2="409" y1="640.4531" y2="640.4531"/><rect fill="none" height="6" style="stroke:#CC241D;stroke-width:1.0;" width="6" x="259" y="648.4531"/><text fill="#EBDBB2" font-family="Iosevka Term" font-size="11" lengthAdjust="spacing" x="271" y="654.6636">salario : float</text><line style="stroke:#504945;stroke-width:1.5;" x1="252" x2="409" y1="661.2578" y2="661.2578"/><!--MD5=[844477cee72a320c7f022c56737a803f]
class VendedorPorComision--><rect codeLine="38" fill="#282828" height="60.8047" id="VendedorPorComision" rx="7.5" ry="7.5" style="stroke:#504945;stroke-width:1.5;" width="170" x="510.5" y="608.4531"/><ellipse cx="525.5" cy="624.4531" fill="#B8BB26" rx="11" ry="11" style="stroke:#B8BB26;stroke-width:1.0;"/><path d="M525.7031,631.0938 Q525.2344,631.0938 524.7813,631 Q524.3281,630.9063 523.9063,630.6719 Q523.5,630.4375 523.1875,630.0781 Q522.875,629.7188 522.6875,629.2969 Q522.5,628.8594 522.4219,628.3906 Q522.3594,627.9219 522.3594,627.4688 L522.3594,621.9375 Q522.3594,621.4844 522.4219,621.0156 Q522.5,620.5469 522.6875,620.125 Q522.875,619.7031 523.1875,619.3438 Q523.5,618.9688 523.9063,618.75 Q524.3281,618.5156 524.7813,618.4219 Q525.2344,618.3281 525.7031,618.3281 Q526.1406,618.3281 526.5781,618.4063 Q527.0156,618.4688 527.4063,618.6719 Q527.7969,618.8594 528.1094,619.1875 Q528.4375,619.5 528.625,619.8906 Q528.8281,620.2813 528.9219,620.7188 Q529.0313,621.1406 529.0313,621.5938 Q529.0313,621.5938 529.0313,621.5938 Q529.0313,621.5938 529.0313,621.6094 L527.1406,621.6094 Q527.1406,621.5938 527.1406,621.5938 Q527.1406,621.5938 527.1406,621.5938 Q527.1406,621.2813 527.0469,620.9844 Q526.9688,620.6875 526.7813,620.4375 Q526.5938,620.1875 526.2969,620.0781 Q526,619.9531 525.7031,619.9531 Q525.4844,619.9531 525.25,620.0313 Q525.0156,620.0938 524.8438,620.25 Q524.6719,620.3906 524.5469,620.5938 Q524.4375,620.7969 524.375,621.0313 Q524.3125,621.25 524.2813,621.4844 Q524.25,621.7031 524.25,621.9375 L524.25,627.4688 Q524.25,627.7031 524.2813,627.9375 Q524.3125,628.1719 524.375,628.3906 Q524.4375,628.6094 524.5469,628.8125 Q524.6719,629.0156 524.8438,629.1719 Q525.0156,629.3281 525.25,629.3906 Q525.4844,629.4531 525.7031,629.4531 Q526,629.4531 526.2969,629.3438 Q526.5938,629.2188 526.7813,628.9688 Q526.9688,628.7188 527.0469,628.4219 Q527.1406,628.125 527.1406,627.8281 Q527.1406,627.8281 527.1406,627.8281 Q527.1406,627.8281 527.1406,627.8125 L529.0313,627.8125 Q529.0313,627.8281 529.0313,627.8281 Q529.0313,627.8281 529.0313,627.8281 Q529.0313,628.2656 528.9219,628.7031 Q528.8281,629.1406 528.625,629.5313 Q528.4375,629.9219 528.1094,630.2344 Q527.7969,630.5469 527.4063,630.75 Q527.0156,630.9375 526.5781,631.0156 Q526.1406,631.0938 525.7031,631.0938 Z " fill="#EBDBB2"/><text fill="#EBDBB2" font-family="Iosevka Term" font-size="12" lengthAdjust="spacing" x="539.5" y="628.6074">VendedorPorComision</text><line style="stroke:#504945;stroke-width:1.5;" x1="511.5" x2="679.5" y1="640.4531" y2="640.4531"/><rect fill="none" height="6" style="stroke:#CC241D;stroke-width:1.0;" width="6" x="518.5" y="648.4531"/><text fill="#EBDBB2" font-family="Iosevka Term" font-size="11" lengthAdjust="spacing" x="530.5" y="654.6636">cochesVendidos : int</text><line style="stroke:#504945;stroke-width:1.5;" x1="511.5" x2="679.5" y1="661.2578" y2="661.2578"/><!--MD5=[80e8dc744b98e71f90ea19e6b574c8dd]
class Exposicion--><rect codeLine="42" fill="#282828" height="60.8047" id="Exposicion" rx="7.5" ry="7.5" style="stroke:#504945;stroke-width:1.5;" width="101" x="516" y="444.4531"/><ellipse cx="532.35" cy="460.4531" fill="#B8BB26" rx="11" ry="11" style="stroke:#B8BB26;stroke-width:1.0;"/><path d="M532.5531,467.0938 Q532.0844,467.0938 531.6313,467 Q531.1781,466.9063 530.7563,466.6719 Q530.35,466.4375 530.0375,466.0781 Q529.725,465.7188 529.5375,465.2969 Q529.35,464.8594 529.2719,464.3906 Q529.2094,463.9219 529.2094,463.4688 L529.2094,457.9375 Q529.2094,457.4844 529.2719,457.0156 Q529.35,456.5469 529.5375,456.125 Q529.725,455.7031 530.0375,455.3438 Q530.35,454.9688 530.7563,454.75 Q531.1781,454.5156 531.6313,454.4219 Q532.0844,454.3281 532.5531,454.3281 Q532.9906,454.3281 533.4281,454.4063 Q533.8656,454.4688 534.2563,454.6719 Q534.6469,454.8594 534.9594,455.1875 Q535.2875,455.5 535.475,455.8906 Q535.6781,456.2813 535.7719,456.7188 Q535.8813,457.1406 535.8813,457.5938 Q535.8813,457.5938 535.8813,457.5938 Q535.8813,457.5938 535.8813,457.6094 L533.9906,457.6094 Q533.9906,457.5938 533.9906,457.5938 Q533.9906,457.5938 533.9906,457.5938 Q533.9906,457.2813 533.8969,456.9844 Q533.8188,456.6875 533.6313,456.4375 Q533.4438,456.1875 533.1469,456.0781 Q532.85,455.9531 532.5531,455.9531 Q532.3344,455.9531 532.1,456.0313 Q531.8656,456.0938 531.6938,456.25 Q531.5219,456.3906 531.3969,456.5938 Q531.2875,456.7969 531.225,457.0313 Q531.1625,457.25 531.1313,457.4844 Q531.1,457.7031 531.1,457.9375 L531.1,463.4688 Q531.1,463.7031 531.1313,463.9375 Q531.1625,464.1719 531.225,464.3906 Q531.2875,464.6094 531.3969,464.8125 Q531.5219,465.0156 531.6938,465.1719 Q531.8656,465.3281 532.1,465.3906 Q532.3344,465.4531 532.5531,465.4531 Q532.85,465.4531 533.1469,465.3438 Q533.4438,465.2188 533.6313,464.9688 Q533.8188,464.7188 533.8969,464.4219 Q533.9906,464.125 533.9906,463.8281 Q533.9906,463.8281 533.9906,463.8281 Q533.9906,463.8281 533.9906,463.8125 L535.8813,463.8125 Q535.8813,463.8281 535.8813,463.8281 Q535.8813,463.8281 535.8813,463.8281 Q535.8813,464.2656 535.7719,464.7031 Q535.6781,465.1406 535.475,465.5313 Q535.2875,465.9219 534.9594,466.2344 Q534.6469,466.5469 534.2563,466.75 Q533.8656,466.9375 533.4281,467.0156 Q532.9906,467.0938 532.5531,467.0938 Z " fill="#EBDBB2"/><text fill="#EBDBB2" font-family="Iosevka Term" font-size="12" lengthAdjust="spacing" x="546.65" y="464.6074">Exposicion</text><line style="stroke:#504945;stroke-width:1.5;" x1="517" x2="616" y1="476.4531" y2="476.4531"/><rect fill="none" height="6" style="stroke:#CC241D;stroke-width:1.0;" width="6" x="524" y="484.4531"/><text fill="#EBDBB2" font-family="Iosevka Term" font-size="11" lengthAdjust="spacing" x="536" y="490.6636">lugar : String</text><line style="stroke:#504945;stroke-width:1.5;" x1="517" x2="616" y1="497.2578" y2="497.2578"/><!--MD5=[20a748d5ee336a9a91751b0a3d4f0beb]
class Cliente--><rect codeLine="46" fill="#282828" height="48" id="Cliente" rx="7.5" ry="7.5" style="stroke:#504945;stroke-width:1.5;" width="75" x="7" y="248.4531"/><ellipse cx="22" cy="264.4531" fill="#B8BB26" rx="11" ry="11" style="stroke:#B8BB26;stroke-width:1.0;"/><path d="M22.2031,271.0938 Q21.7344,271.0938 21.2813,271 Q20.8281,270.9063 20.4063,270.6719 Q20,270.4375 19.6875,270.0781 Q19.375,269.7188 19.1875,269.2969 Q19,268.8594 18.9219,268.3906 Q18.8594,267.9219 18.8594,267.4688 L18.8594,261.9375 Q18.8594,261.4844 18.9219,261.0156 Q19,260.5469 19.1875,260.125 Q19.375,259.7031 19.6875,259.3438 Q20,258.9688 20.4063,258.75 Q20.8281,258.5156 21.2813,258.4219 Q21.7344,258.3281 22.2031,258.3281 Q22.6406,258.3281 23.0781,258.4063 Q23.5156,258.4688 23.9063,258.6719 Q24.2969,258.8594 24.6094,259.1875 Q24.9375,259.5 25.125,259.8906 Q25.3281,260.2813 25.4219,260.7188 Q25.5313,261.1406 25.5313,261.5938 Q25.5313,261.5938 25.5313,261.5938 Q25.5313,261.5938 25.5313,261.6094 L23.6406,261.6094 Q23.6406,261.5938 23.6406,261.5938 Q23.6406,261.5938 23.6406,261.5938 Q23.6406,261.2813 23.5469,260.9844 Q23.4688,260.6875 23.2813,260.4375 Q23.0938,260.1875 22.7969,260.0781 Q22.5,259.9531 22.2031,259.9531 Q21.9844,259.9531 21.75,260.0313 Q21.5156,260.0938 21.3438,260.25 Q21.1719,260.3906 21.0469,260.5938 Q20.9375,260.7969 20.875,261.0313 Q20.8125,261.25 20.7813,261.4844 Q20.75,261.7031 20.75,261.9375 L20.75,267.4688 Q20.75,267.7031 20.7813,267.9375 Q20.8125,268.1719 20.875,268.3906 Q20.9375,268.6094 21.0469,268.8125 Q21.1719,269.0156 21.3438,269.1719 Q21.5156,269.3281 21.75,269.3906 Q21.9844,269.4531 22.2031,269.4531 Q22.5,269.4531 22.7969,269.3438 Q23.0938,269.2188 23.2813,268.9688 Q23.4688,268.7188 23.5469,268.4219 Q23.6406,268.125 23.6406,267.8281 Q23.6406,267.8281 23.6406,267.8281 Q23.6406,267.8281 23.6406,267.8125 L25.5313,267.8125 Q25.5313,267.8281 25.5313,267.8281 Q25.5313,267.8281 25.5313,267.8281 Q25.5313,268.2656 25.4219,268.7031 Q25.3281,269.1406 25.125,269.5313 Q24.9375,269.9219 24.6094,270.2344 Q24.2969,270.5469 23.9063,270.75 Q23.5156,270.9375 23.0781,271.0156 Q22.6406,271.0938 22.2031,271.0938 Z " fill="#EBDBB2"/><text fill="#EBDBB2" font-family="Iosevka Term" font-size="12" lengthAdjust="spacing" x="36" y="268.6074">Cliente</text><line style="stroke:#504945;stroke-width:1.5;" x1="8" x2="81" y1="280.4531" y2="280.4531"/><line style="stroke:#504945;stroke-width:1.5;" x1="8" x2="81" y1="288.4531" y2="288.4531"/><!--MD5=[21174dace72aba80a8f72654e0d803f1]
class Proveedor--><rect codeLine="48" fill="#282828" height="48" id="Proveedor" rx="7.5" ry="7.5" style="stroke:#504945;stroke-width:1.5;" width="96" x="544.5" y="248.4531"/><ellipse cx="559.5" cy="264.4531" fill="#B8BB26" rx="11" ry="11" style="stroke:#B8BB26;stroke-width:1.0;"/><path d="M559.7031,271.0938 Q559.2344,271.0938 558.7813,271 Q558.3281,270.9063 557.9063,270.6719 Q557.5,270.4375 557.1875,270.0781 Q556.875,269.7188 556.6875,269.2969 Q556.5,268.8594 556.4219,268.3906 Q556.3594,267.9219 556.3594,267.4688 L556.3594,261.9375 Q556.3594,261.4844 556.4219,261.0156 Q556.5,260.5469 556.6875,260.125 Q556.875,259.7031 557.1875,259.3438 Q557.5,258.9688 557.9063,258.75 Q558.3281,258.5156 558.7813,258.4219 Q559.2344,258.3281 559.7031,258.3281 Q560.1406,258.3281 560.5781,258.4063 Q561.0156,258.4688 561.4063,258.6719 Q561.7969,258.8594 562.1094,259.1875 Q562.4375,259.5 562.625,259.8906 Q562.8281,260.2813 562.9219,260.7188 Q563.0313,261.1406 563.0313,261.5938 Q563.0313,261.5938 563.0313,261.5938 Q563.0313,261.5938 563.0313,261.6094 L561.1406,261.6094 Q561.1406,261.5938 561.1406,261.5938 Q561.1406,261.5938 561.1406,261.5938 Q561.1406,261.2813 561.0469,260.9844 Q560.9688,260.6875 560.7813,260.4375 Q560.5938,260.1875 560.2969,260.0781 Q560,259.9531 559.7031,259.9531 Q559.4844,259.9531 559.25,260.0313 Q559.0156,260.0938 558.8438,260.25 Q558.6719,260.3906 558.5469,260.5938 Q558.4375,260.7969 558.375,261.0313 Q558.3125,261.25 558.2813,261.4844 Q558.25,261.7031 558.25,261.9375 L558.25,267.4688 Q558.25,267.7031 558.2813,267.9375 Q558.3125,268.1719 558.375,268.3906 Q558.4375,268.6094 558.5469,268.8125 Q558.6719,269.0156 558.8438,269.1719 Q559.0156,269.3281 559.25,269.3906 Q559.4844,269.4531 559.7031,269.4531 Q560,269.4531 560.2969,269.3438 Q560.5938,269.2188 560.7813,268.9688 Q560.9688,268.7188 561.0469,268.4219 Q561.1406,268.125 561.1406,267.8281 Q561.1406,267.8281 561.1406,267.8281 Q561.1406,267.8281 561.1406,267.8125 L563.0313,267.8125 Q563.0313,267.8281 563.0313,267.8281 Q563.0313,267.8281 563.0313,267.8281 Q563.0313,268.2656 562.9219,268.7031 Q562.8281,269.1406 562.625,269.5313 Q562.4375,269.9219 562.1094,270.2344 Q561.7969,270.5469 561.4063,270.75 Q561.0156,270.9375 560.5781,271.0156 Q560.1406,271.0938 559.7031,271.0938 Z " fill="#EBDBB2"/><text fill="#EBDBB2" font-family="Iosevka Term" font-size="12" lengthAdjust="spacing" x="573.5" y="268.6074">Proveedor</text><line style="stroke:#504945;stroke-width:1.5;" x1="545.5" x2="639.5" y1="280.4531" y2="280.4531"/><line style="stroke:#504945;stroke-width:1.5;" x1="545.5" x2="639.5" y1="288.4531" y2="288.4531"/><!--MD5=[179cef5990eb3164e4b2f4b665c246b0]
link Cliente to Coche--><path codeLine="52" d="M87.22,272.4531 C125.23,272.4531 181.74,272.4531 227.6,272.4531 " fill="none" id="Cliente-Coche" style="stroke:#689D6A;stroke-width:1.0;"/><polygon fill="#689D6A" points="232.85,272.4531,223.85,268.4531,227.85,272.4531,223.85,276.4531,232.85,272.4531" style="stroke:#689D6A;stroke-width:1.0;"/><polygon fill="#689D6A" points="82.03,272.4531,91.03,276.4531,87.03,272.4531,91.03,268.4531,82.03,272.4531" style="stroke:#689D6A;stroke-width:1.0;"/><text fill="#EBDBB2" font-family="Iosevka Term" font-size="13" lengthAdjust="spacing" x="133" y="265.52">compra</text><text fill="#EBDBB2" font-family="Iosevka Term" font-size="13" lengthAdjust="spacing" x="89.9238" y="268.3353">0..1</text><text fill="#EBDBB2" font-family="Iosevka Term" font-size="13" lengthAdjust="spacing" x="201.9248" y="268.8">0..*</text><!--MD5=[179cef5990eb3164e4b2f4b665c246b0]
link Cliente to Coche--><path codeLine="53" d="M87.45,284.2331 C101.68,287.5931 117.66,290.7931 132.5,292.4531 C163.71,295.9531 198.08,293.2731 227.85,288.8631 " fill="none" id="Cliente-Coche-1" style="stroke:#689D6A;stroke-width:1.0;"/><polygon fill="#689D6A" points="232.96,288.0831,223.4581,285.492,228.0176,288.8402,224.6694,293.3997,232.96,288.0831" style="stroke:#689D6A;stroke-width:1.0;"/><polygon fill="#689D6A" points="82.3,282.9931,90.1113,288.9917,87.1606,284.1654,91.987,281.2147,82.3,282.9931" style="stroke:#689D6A;stroke-width:1.0;"/><text fill="#EBDBB2" font-family="Iosevka Term" font-size="13" lengthAdjust="spacing" x="133.5" y="288.52">reserva</text><text fill="#EBDBB2" font-family="Iosevka Term" font-size="13" lengthAdjust="spacing" x="89.8491" y="297.8326">0..*</text><text fill="#EBDBB2" font-family="Iosevka Term" font-size="13" lengthAdjust="spacing" x="202.0453" y="285.9197">0..*</text><!--MD5=[18e769e6e2f34f666671c5cc851ddbc2]
reverse link Coche to Proveedor--><path codeLine="55" d="M381.34,272.4531 C433.15,272.4531 499.89,272.4531 544.34,272.4531 " fill="none" id="Coche-backto-Proveedor" style="stroke:#689D6A;stroke-width:1.0;"/><polygon fill="#689D6A" points="376.06,272.4531,385.06,276.4531,381.06,272.4531,385.06,268.4531,376.06,272.4531" style="stroke:#689D6A;stroke-width:1.0;"/><text fill="#EBDBB2" font-family="Iosevka Term" font-size="13" lengthAdjust="spacing" x="426.75" y="265.52">suministra</text><text fill="#EBDBB2" font-family="Iosevka Term" font-size="13" lengthAdjust="spacing" x="383.8006" y="268.7409">*</text><text fill="#EBDBB2" font-family="Iosevka Term" font-size="13" lengthAdjust="spacing" x="528.353" y="268.3818">1</text><!--MD5=[37353021861e5a54d8231e4ce265abce]
link Coche to Exposicion--><path codeLine="56" d="M380.14,331.3331 C426.76,367.0131 484.84,411.4631 523.66,441.1631 " fill="none" id="Coche-Exposicion" style="stroke:#689D6A;stroke-width:1.0;"/><polygon fill="#689D6A" points="527.82,444.3531,523.1087,435.7042,523.851,441.3122,518.2431,442.0546,527.82,444.3531" style="stroke:#689D6A;stroke-width:1.0;"/><polygon fill="#689D6A" points="376.09,328.2431,380.8013,336.892,380.059,331.2841,385.6669,330.5417,376.09,328.2431" style="stroke:#689D6A;stroke-width:1.0;"/><text fill="#EBDBB2" font-family="Iosevka Term" font-size="13" lengthAdjust="spacing" x="468.5" y="397.02">esta</text><text fill="#EBDBB2" font-family="Iosevka Term" font-size="13" lengthAdjust="spacing" x="384.0095" y="329.9074">0..*</text><text fill="#EBDBB2" font-family="Iosevka Term" font-size="13" lengthAdjust="spacing" x="493.3673" y="433.5957">0..1</text><!--MD5=[8bdc2eef8d8cc42f6a8e67023905d80b]
link Proveedor to Exposicion--><!--MD5=[8d93ecbb473b88b6fb959c93d5c890f8]
link Coche to Reparacion--><path codeLine="59" d="M229.19,347.1131 C193.45,382.0631 152.96,421.6631 126.87,447.1831 " fill="none" id="Coche-Reparacion" style="stroke:#689D6A;stroke-width:1.0;"/><polygon fill="#689D6A" points="123.13,450.8431,132.3576,447.4006,126.7011,447.3435,126.7582,441.6869,123.13,450.8431" style="stroke:#689D6A;stroke-width:1.0;"/><polygon fill="#689D6A" points="232.8,343.5831,223.5724,347.0256,229.2289,347.0828,229.1718,352.7393,232.8,343.5831" style="stroke:#689D6A;stroke-width:1.0;"/><text fill="#EBDBB2" font-family="Iosevka Term" font-size="13" lengthAdjust="spacing" x="191.5" y="397.02">tiene</text><text fill="#EBDBB2" font-family="Iosevka Term" font-size="13" lengthAdjust="spacing" x="216.9934" y="347.2062">1</text><text fill="#EBDBB2" font-family="Iosevka Term" font-size="13" lengthAdjust="spacing" x="103.2383" y="439.827">0..*</text><!--MD5=[21f3a892c369c42e6b5b56d15bb26e6d]
reverse link Coche to Vendedor--><path codeLine="60" d="M311.45,359.3131 C312.9,373.2531 314.58,387.5231 316.5,400.9531 C317.88,410.6631 319.68,421.0431 321.52,430.8331 " fill="none" id="Coche-backto-Vendedor" style="stroke:#689D6A;stroke-width:1.0;"/><polygon fill="#689D6A" points="310.92,354.1831,307.8673,363.5469,311.4345,359.1566,315.8249,362.7238,310.92,354.1831" style="stroke:#689D6A;stroke-width:1.0;"/><text fill="#EBDBB2" font-family="Iosevka Term" font-size="13" lengthAdjust="spacing" x="317.5" y="397.02">vende</text><text fill="#EBDBB2" font-family="Iosevka Term" font-size="13" lengthAdjust="spacing" x="287.4676" y="374.1922">0..*</text><text fill="#EBDBB2" font-family="Iosevka Term" font-size="13" lengthAdjust="spacing" x="311.5324" y="420.0059">1</text><!--MD5=[e9371d55a133d2fe92ca4aadefb7df47]
reverse link TipoCoche to Coche--><path codeLine="62" d="M304.5,119.3231 C304.5,140.7331 304.5,166.6331 304.5,190.9431 " fill="none" id="TipoCoche-backto-Coche" style="stroke:#689D6A;stroke-width:1.0;"/><polygon fill="#689D6A" points="304.5,114.2631,300.5,123.2631,304.5,119.2631,308.5,123.2631,304.5,114.2631" style="stroke:#689D6A;stroke-width:1.0;"/><text fill="#EBDBB2" font-family="Iosevka Term" font-size="13" lengthAdjust="spacing" x="305.5" y="157.02">es de tipo</text><text fill="#EBDBB2" font-family="Iosevka Term" font-size="13" lengthAdjust="spacing" x="295.8625" y="134.4055">1</text><text fill="#EBDBB2" font-family="Iosevka Term" font-size="13" lengthAdjust="spacing" x="280.4398" y="179.7994">0..*</text><!--MD5=[11ccaa56f069fc1619d5335357e886d6]
link Reparacion to TipoReparacion--><path codeLine="64" d="M97.64,499.1631 C95.73,522.9031 92.72,560.4531 90.31,590.5131 " fill="none" id="Reparacion-to-TipoReparacion" style="stroke:#689D6A;stroke-width:1.0;"/><polygon fill="#689D6A" points="89.89,595.6531,94.5969,587.0018,90.2899,590.6691,86.6226,586.3621,89.89,595.6531" style="stroke:#689D6A;stroke-width:1.0;"/><text fill="#EBDBB2" font-family="Iosevka Term" font-size="13" lengthAdjust="spacing" x="94.5" y="562.02">es de tipo</text><text fill="#EBDBB2" font-family="Iosevka Term" font-size="13" lengthAdjust="spacing" x="71.3835" y="518.9755">0..*</text><text fill="#EBDBB2" font-family="Iosevka Term" font-size="13" lengthAdjust="spacing" x="81.7966" y="584.9197">1</text><!--MD5=[2d88875f4210d090a67da425b9cd678b]
reverse link Vendedor to VendedorAsalariado--><path codeLine="66" d="M355.5,519.9531 C355.5,519.9531 344.21,573.2231 336.81,608.1731 " fill="none" id="Vendedor-backto-VendedorAsalariado" style="stroke:#689D6A;stroke-width:1.0;"/><!--MD5=[83391f9097a86c168107a29f6be35dc8]
reverse link Vendedor to VendedorPorComision--><path codeLine="67" d="M355.5,519.9531 C355.5,519.9531 394.39,534.8131 424.5,548.9531 C464.19,567.5831 508.03,590.4531 541.39,608.3431 " fill="none" id="Vendedor-backto-VendedorPorComision" style="stroke:#689D6A;stroke-width:1.0;"/><!--MD5=[682d216a0b6eaebda13686d3af8f163f]
@startuml
title Venta de Coches

!include plantuml-config.txt

class Coche {
        - marca : String
        - modelo : String
        - matricula : String
        - precioCompra : float
        - precioVenta : float
        - comprar() : void
        - vender() : void
        - reparar() : void
        - listar() : Coche *
}

enum TipoCoche {
        Turismo
        Industrial
        Todoterreno
}

class Reparacion {
}

enum TipoReparacion {
        Mecanica
        Electrica
        Chapa
}

abstract class Vendedor

class VendedorAsalariado {
        - salario : float
}

class VendedorPorComision {
        - cochesVendidos : int
}

class Exposicion {
        - lugar : String
}

class Cliente

class Proveedor

skinparam Nodesep 100

Cliente "0..1" <-> "0..*" Coche : compra
Cliente "0..*" <-> "0..*" Coche : reserva

Coche "*" <- "1" Proveedor : suministra
Coche "0..*" <-> "0..1" Exposicion : esta
Proveedor -[hidden]d- Exposicion

Coche "1" <- -> "0..*" Reparacion : tiene
Coche "0..*" <- - "1" Vendedor : vende

TipoCoche "1" <- - "0..*" Coche : es de tipo

Reparacion "0..*" - -> "1" TipoReparacion : es de tipo

Vendedor <|- - VendedorAsalariado
Vendedor <|- - VendedorPorComision
@enduml

@startuml
title Venta de Coches

skinparam groupInheritance 2

skinparam Default {
        FontName Iosevka Term
        FontColor #ebdbb2
}

skinparam BackgroundColor #1d2021
skinparam Shadowing false
skinparam RoundCorner 15

skinparam Class {
        BackgroundColor #282828
        BorderColor #504945
        ArrowColor #689d6a
}

skinparam Stereotype {
        CBackgroundColor #b8bb26
        CBorderColor #b8bb26
        EBackgroundColor #fe8019
        EBorderColor #fe8019
        ABackgroundColor #83a598
        ABorderColor #83a598
}

skinparam Icon {
        PrivateColor #cc241d
        PrivateBackgroundColor #cc241d
        ProtectedColor #d79921
        ProtectedBackgroundColor #d79921
}

class Coche {
        - marca : String
        - modelo : String
        - matricula : String
        - precioCompra : float
        - precioVenta : float
        - comprar() : void
        - vender() : void
        - reparar() : void
        - listar() : Coche *
}

enum TipoCoche {
        Turismo
        Industrial
        Todoterreno
}

class Reparacion {
}

enum TipoReparacion {
        Mecanica
        Electrica
        Chapa
}

abstract class Vendedor

class VendedorAsalariado {
        - salario : float
}

class VendedorPorComision {
        - cochesVendidos : int
}

class Exposicion {
        - lugar : String
}

class Cliente

class Proveedor

skinparam Nodesep 100

Cliente "0..1" <-> "0..*" Coche : compra
Cliente "0..*" <-> "0..*" Coche : reserva

Coche "*" <- "1" Proveedor : suministra
Coche "0..*" <-> "0..1" Exposicion : esta
Proveedor -[hidden]d- Exposicion

Coche "1" <- -> "0..*" Reparacion : tiene
Coche "0..*" <- - "1" Vendedor : vende

TipoCoche "1" <- - "0..*" Coche : es de tipo

Reparacion "0..*" - -> "1" TipoReparacion : es de tipo

Vendedor <|- - VendedorAsalariado
Vendedor <|- - VendedorPorComision
@enduml

PlantUML version 1.2022.1(Tue Feb 01 19:19:58 CET 2022)
(GPL source distribution)
Java Runtime: OpenJDK Runtime Environment
JVM: OpenJDK 64-Bit Server VM
Default Encoding: UTF-8
Language: en
Country: US
--></g></svg>